<mxfile host="65bd71144e" pages="5">
    <diagram name="High Level Approach" id="JulvsSPHi9Jr_7Jm3-x4">
        <mxGraphModel dx="1023" dy="2903" grid="1" gridSize="10" guides="1" tooltips="1" connect="1" arrows="1" fold="1" page="1" pageScale="1" pageWidth="850" pageHeight="1100" math="0" shadow="0">
            <root>
                <mxCell id="0"/>
                <mxCell id="1" parent="0"/>
                <mxCell id="tFWXHqorwcY2-bB6QDaT-21" style="edgeStyle=orthogonalEdgeStyle;rounded=0;orthogonalLoop=1;jettySize=auto;html=1;exitX=0.5;exitY=1;exitDx=0;exitDy=0;entryX=0.75;entryY=0;entryDx=0;entryDy=0;startArrow=classic;startFill=1;endArrow=none;endFill=0;" parent="1" source="tFWXHqorwcY2-bB6QDaT-4" target="tFWXHqorwcY2-bB6QDaT-15" edge="1">
                    <mxGeometry relative="1" as="geometry"/>
                </mxCell>
                <mxCell id="tFWXHqorwcY2-bB6QDaT-4" value="&lt;b&gt;&lt;font style=&quot;font-size: 14px;&quot;&gt;ANSWER KEY / QUESTION DATABASE (VECTOR DB)&lt;/font&gt;&lt;/b&gt;&lt;div&gt;&lt;b&gt;&lt;font style=&quot;font-size: 14px;&quot;&gt;&lt;br&gt;&lt;/font&gt;&lt;/b&gt;&lt;/div&gt;&lt;div&gt;&lt;b&gt;&lt;font color=&quot;#ff0000&quot; style=&quot;font-size: 14px;&quot;&gt;Question: How to ensure we take candidate answer and&amp;nbsp;&lt;/font&gt;&lt;/b&gt;&lt;/div&gt;&lt;div&gt;&lt;b&gt;&lt;font color=&quot;#ff0000&quot; style=&quot;font-size: 14px;&quot;&gt;ensure it only goes against answer key to question 1&lt;/font&gt;&lt;/b&gt;&lt;/div&gt;&lt;div&gt;&lt;br&gt;&lt;/div&gt;" style="rounded=1;whiteSpace=wrap;html=1;verticalAlign=top;" parent="1" vertex="1">
                    <mxGeometry x="1630" y="-80" width="670" height="670" as="geometry"/>
                </mxCell>
                <mxCell id="tFWXHqorwcY2-bB6QDaT-1" value="&lt;b&gt;QuestionID: question1&lt;/b&gt;&lt;div&gt;&lt;b&gt;VERSION 1&lt;/b&gt;&lt;div&gt;How does RAG AI work?&lt;/div&gt;&lt;div&gt;&lt;span style=&quot;background-color: initial;&quot;&gt;DateAdded: 02/02/1990&lt;/span&gt;&lt;br&gt;&lt;/div&gt;&lt;div&gt;Grading Criteria / Rubric:&lt;/div&gt;&lt;div&gt;Associated Conepts:&amp;nbsp; LLM, RAG, AI, etc&lt;/div&gt;&lt;div&gt;Accepted Solution Information:&amp;nbsp;&amp;nbsp;&lt;/div&gt;&lt;div&gt;&lt;span style=&quot;background-color: initial;&quot;&gt;{&lt;/span&gt;&lt;br&gt;&lt;/div&gt;&lt;div&gt;&lt;span style=&quot;background-color: initial;&quot;&gt;&amp;nbsp;chunkContent: &quot;The actual answer here&quot;&lt;/span&gt;&lt;span style=&quot;background-color: initial;&quot;&gt;&amp;nbsp;&lt;/span&gt;&amp;nbsp;&lt;/div&gt;&lt;div&gt;&amp;nbsp;chunkID: 0001&lt;/div&gt;&lt;div&gt;&lt;span style=&quot;background-color: initial;&quot;&gt;&amp;nbsp;&lt;/span&gt;&lt;span style=&quot;background-color: initial;&quot;&gt;embedding:&amp;nbsp;&lt;/span&gt;&lt;span style=&quot;background-color: initial;&quot;&gt;[12034912, 120349120934,&amp;nbsp; 1041023491&lt;/span&gt;&lt;/div&gt;&lt;div&gt;&lt;span style=&quot;background-color: initial;&quot;&gt;&amp;nbsp;&lt;/span&gt;&lt;span style=&quot;background-color: initial;&quot;&gt;}&lt;/span&gt;&lt;/div&gt;&lt;div&gt;&lt;div&gt;&lt;span style=&quot;background-color: initial;&quot;&gt;{&lt;/span&gt;&lt;br&gt;&lt;/div&gt;&lt;div&gt;&lt;div&gt;&lt;span style=&quot;background-color: initial;&quot;&gt;chunkContent: &quot;The great answer here but a different answer&quot;&lt;/span&gt;&lt;/div&gt;&lt;div&gt;&lt;span style=&quot;background-color: initial;&quot;&gt;chunkID: 0002&lt;/span&gt;&lt;br&gt;&lt;/div&gt;&lt;/div&gt;&lt;div&gt;embedding:&amp;nbsp;&lt;span style=&quot;background-color: initial;&quot;&gt;[14444912, 124449120934, 1041023491&lt;/span&gt;&lt;/div&gt;&lt;div&gt;}&lt;/div&gt;&lt;/div&gt;&lt;/div&gt;&lt;div&gt;&lt;br&gt;&lt;/div&gt;" style="rounded=0;whiteSpace=wrap;html=1;align=left;horizontal=1;verticalAlign=top;" parent="1" vertex="1">
                    <mxGeometry x="1660" y="20" width="280" height="290" as="geometry"/>
                </mxCell>
                <mxCell id="tFWXHqorwcY2-bB6QDaT-2" value="&lt;b&gt;Question 2:&lt;/b&gt;&lt;div&gt;What is Observability in RAG?&lt;/div&gt;&lt;div&gt;&lt;br&gt;&lt;/div&gt;&lt;div&gt;&lt;div&gt;Grading Criteria:&lt;/div&gt;&lt;div&gt;Associated Conepts:&amp;nbsp; LLM, RAG, AI, etc&lt;/div&gt;&lt;/div&gt;&lt;div&gt;Accepted Solution Information:&amp;nbsp; &amp;lt;good answers&amp;gt;&lt;br&gt;&lt;/div&gt;&lt;div&gt;Embedding: [12034912, 120349120934, 1041023491, etc...]&lt;br&gt;&lt;/div&gt;" style="rounded=0;whiteSpace=wrap;html=1;align=left;horizontal=1;verticalAlign=top;" parent="1" vertex="1">
                    <mxGeometry x="1660" y="320" width="280" height="120" as="geometry"/>
                </mxCell>
                <mxCell id="tFWXHqorwcY2-bB6QDaT-3" value="&lt;b&gt;Question 3:&lt;/b&gt;&lt;div&gt;Explain tokenization in relation to AI&lt;/div&gt;&lt;div&gt;&lt;br&gt;&lt;/div&gt;&lt;div&gt;&lt;span style=&quot;background-color: initial;&quot;&gt;Grading Criteria:&lt;/span&gt;&lt;br&gt;&lt;/div&gt;&lt;div&gt;&lt;div&gt;Associated Conepts:&amp;nbsp; LLM, RAG, AI, etc&lt;/div&gt;&lt;/div&gt;&lt;div&gt;&lt;span style=&quot;background-color: initial;&quot;&gt;Accepted Solution Information:&amp;nbsp; &amp;lt;good answers&amp;gt;&lt;/span&gt;&lt;br&gt;&lt;/div&gt;&lt;div&gt;Embedding: [12034912, 120349120934, 1041023491, etc...]&lt;span style=&quot;background-color: initial;&quot;&gt;&lt;br&gt;&lt;/span&gt;&lt;/div&gt;" style="rounded=0;whiteSpace=wrap;html=1;align=left;horizontal=1;verticalAlign=top;" parent="1" vertex="1">
                    <mxGeometry x="1660" y="450" width="280" height="120" as="geometry"/>
                </mxCell>
                <mxCell id="tFWXHqorwcY2-bB6QDaT-18" style="edgeStyle=orthogonalEdgeStyle;rounded=0;orthogonalLoop=1;jettySize=auto;html=1;entryX=0;entryY=0.5;entryDx=0;entryDy=0;" parent="1" source="tFWXHqorwcY2-bB6QDaT-5" target="tFWXHqorwcY2-bB6QDaT-10" edge="1">
                    <mxGeometry relative="1" as="geometry"/>
                </mxCell>
                <mxCell id="tFWXHqorwcY2-bB6QDaT-5" value="&lt;b&gt;&lt;font style=&quot;font-size: 14px;&quot;&gt;CANDIDATE EXAM - TEST 1&lt;/font&gt;&lt;/b&gt;" style="rounded=1;whiteSpace=wrap;html=1;verticalAlign=top;" parent="1" vertex="1">
                    <mxGeometry x="160" y="90" width="390" height="500" as="geometry"/>
                </mxCell>
                <mxCell id="tFWXHqorwcY2-bB6QDaT-6" value="&lt;b&gt;Question 1 (questionID):&lt;/b&gt;&lt;div&gt;How does RAG AI work?&lt;/div&gt;&lt;div&gt;&lt;br&gt;&lt;/div&gt;&lt;div&gt;Candidate Answer: &amp;lt;blah blah&amp;gt;&lt;/div&gt;" style="rounded=0;whiteSpace=wrap;html=1;align=left;horizontal=1;verticalAlign=top;" parent="1" vertex="1">
                    <mxGeometry x="215" y="150" width="280" height="120" as="geometry"/>
                </mxCell>
                <mxCell id="tFWXHqorwcY2-bB6QDaT-7" value="&lt;b&gt;Question 2&amp;nbsp;&lt;/b&gt;&lt;b&gt;questionID&lt;/b&gt;&lt;b&gt;:&lt;/b&gt;&lt;div&gt;What is Observability in RAG?&lt;/div&gt;&lt;div&gt;&lt;br&gt;&lt;/div&gt;&lt;div&gt;Candidate Answer: &amp;lt;blah blah&amp;gt;&lt;br&gt;&lt;/div&gt;&lt;div&gt;&lt;div&gt;&lt;br&gt;&lt;/div&gt;&lt;/div&gt;" style="rounded=0;whiteSpace=wrap;html=1;align=left;horizontal=1;verticalAlign=top;" parent="1" vertex="1">
                    <mxGeometry x="215" y="280" width="280" height="120" as="geometry"/>
                </mxCell>
                <mxCell id="tFWXHqorwcY2-bB6QDaT-8" value="&lt;b&gt;Question 3:&lt;/b&gt;&lt;div&gt;Explain tokenization in relation to AI&lt;/div&gt;&lt;div&gt;&lt;br&gt;&lt;/div&gt;&lt;div&gt;Candidate Answer: &amp;lt;blah blah&amp;gt;&lt;br&gt;&lt;/div&gt;" style="rounded=0;whiteSpace=wrap;html=1;align=left;horizontal=1;verticalAlign=top;" parent="1" vertex="1">
                    <mxGeometry x="215" y="410" width="280" height="120" as="geometry"/>
                </mxCell>
                <mxCell id="tFWXHqorwcY2-bB6QDaT-20" style="edgeStyle=orthogonalEdgeStyle;rounded=0;orthogonalLoop=1;jettySize=auto;html=1;entryX=0.25;entryY=0;entryDx=0;entryDy=0;" parent="1" source="tFWXHqorwcY2-bB6QDaT-9" target="tFWXHqorwcY2-bB6QDaT-15" edge="1">
                    <mxGeometry relative="1" as="geometry"/>
                </mxCell>
                <mxCell id="tFWXHqorwcY2-bB6QDaT-9" value="&lt;b&gt;&lt;font style=&quot;font-size: 14px;&quot;&gt;NORMALIZED AI CANDIDATE EXAM DATA&lt;/font&gt;&lt;/b&gt;&lt;div&gt;&lt;b&gt;&lt;font style=&quot;font-size: 14px;&quot;&gt;&lt;br&gt;&lt;/font&gt;&lt;/b&gt;&lt;/div&gt;&lt;div&gt;&lt;b&gt;&lt;font style=&quot;font-size: 14px;&quot;&gt;**One record per question&lt;/font&gt;&lt;/b&gt;&lt;/div&gt;&lt;div style=&quot;text-align: left;&quot;&gt;&lt;b&gt;&lt;font style=&quot;font-size: 14px;&quot;&gt;&lt;br&gt;&lt;/font&gt;&lt;/b&gt;&lt;/div&gt;" style="rounded=1;whiteSpace=wrap;html=1;verticalAlign=top;" parent="1" vertex="1">
                    <mxGeometry x="1170" y="90" width="390" height="500" as="geometry"/>
                </mxCell>
                <mxCell id="tFWXHqorwcY2-bB6QDaT-19" style="edgeStyle=orthogonalEdgeStyle;rounded=0;orthogonalLoop=1;jettySize=auto;html=1;entryX=0;entryY=0.5;entryDx=0;entryDy=0;" parent="1" source="tFWXHqorwcY2-bB6QDaT-10" target="tFWXHqorwcY2-bB6QDaT-9" edge="1">
                    <mxGeometry relative="1" as="geometry"/>
                </mxCell>
                <mxCell id="tFWXHqorwcY2-bB6QDaT-10" value="&lt;div style=&quot;text-align: left;&quot;&gt;&lt;b style=&quot;background-color: initial;&quot;&gt;&amp;nbsp; &amp;nbsp; &amp;nbsp; &amp;nbsp; &amp;nbsp; &amp;nbsp; &amp;nbsp; &amp;nbsp; &amp;nbsp; &amp;nbsp; &amp;nbsp; &amp;nbsp; &amp;nbsp; DATA PIPELINE&lt;/b&gt;&lt;/div&gt;&lt;div&gt;&lt;ul&gt;&lt;li style=&quot;text-align: left;&quot;&gt;Take candidate exam&lt;/li&gt;&lt;li style=&quot;text-align: left;&quot;&gt;Format / Normalize data (split by question)&lt;/li&gt;&lt;/ul&gt;&lt;/div&gt;" style="shape=process;whiteSpace=wrap;html=1;backgroundOutline=1;verticalAlign=top;align=center;" parent="1" vertex="1">
                    <mxGeometry x="650" y="245" width="360" height="190" as="geometry"/>
                </mxCell>
                <mxCell id="tFWXHqorwcY2-bB6QDaT-11" value="&lt;b&gt;CandidateID: 12345&lt;/b&gt;&lt;div&gt;&lt;b&gt;examID: 9999999&lt;br&gt;&lt;/b&gt;&lt;div&gt;&lt;b&gt;QuestionID: question1&lt;/b&gt;&lt;/div&gt;&lt;div&gt;&lt;b&gt;Candidate Answer: &amp;lt;answer&amp;gt;&lt;/b&gt;&lt;/div&gt;&lt;div&gt;&lt;b&gt;&lt;br&gt;&lt;/b&gt;&lt;/div&gt;&lt;/div&gt;" style="rounded=0;whiteSpace=wrap;html=1;align=left;horizontal=1;verticalAlign=top;" parent="1" vertex="1">
                    <mxGeometry x="1225" y="160" width="280" height="120" as="geometry"/>
                </mxCell>
                <mxCell id="tFWXHqorwcY2-bB6QDaT-12" value="&lt;div&gt;&lt;div&gt;&lt;b&gt;CandidateID: 12345&lt;/b&gt;&lt;div&gt;&lt;b&gt;QuestionID: question2&lt;/b&gt;&lt;/div&gt;&lt;div&gt;&lt;b&gt;Candidate Answer: &amp;lt;answer&amp;gt;&lt;/b&gt;&lt;/div&gt;&lt;/div&gt;&lt;/div&gt;&lt;div&gt;&lt;b&gt;&lt;br&gt;&lt;/b&gt;&lt;/div&gt;" style="rounded=0;whiteSpace=wrap;html=1;align=left;horizontal=1;verticalAlign=top;" parent="1" vertex="1">
                    <mxGeometry x="1225" y="290" width="280" height="120" as="geometry"/>
                </mxCell>
                <mxCell id="tFWXHqorwcY2-bB6QDaT-13" value="&lt;div&gt;&lt;b&gt;CandidateID: 12345&lt;/b&gt;&lt;div&gt;&lt;b&gt;QuestionID: question3&lt;/b&gt;&lt;/div&gt;&lt;div&gt;&lt;b&gt;Candidate Answer: &amp;lt;answer&amp;gt;&lt;/b&gt;&lt;/div&gt;&lt;/div&gt;&lt;div&gt;&lt;b&gt;&lt;br&gt;&lt;/b&gt;&lt;/div&gt;" style="rounded=0;whiteSpace=wrap;html=1;align=left;horizontal=1;verticalAlign=top;" parent="1" vertex="1">
                    <mxGeometry x="1225" y="420" width="280" height="120" as="geometry"/>
                </mxCell>
                <mxCell id="tFWXHqorwcY2-bB6QDaT-23" style="edgeStyle=orthogonalEdgeStyle;rounded=0;orthogonalLoop=1;jettySize=auto;html=1;entryX=0;entryY=0.5;entryDx=0;entryDy=0;" parent="1" source="tFWXHqorwcY2-bB6QDaT-15" target="tFWXHqorwcY2-bB6QDaT-22" edge="1">
                    <mxGeometry relative="1" as="geometry"/>
                </mxCell>
                <mxCell id="tFWXHqorwcY2-bB6QDaT-15" value="&lt;div style=&quot;text-align: left;&quot;&gt;&lt;b style=&quot;background-color: initial;&quot;&gt;&amp;nbsp; &amp;nbsp; &amp;nbsp; &amp;nbsp; &amp;nbsp; &amp;nbsp; &amp;nbsp; &amp;nbsp; &amp;nbsp; &amp;nbsp; &amp;nbsp; &amp;nbsp; &amp;nbsp; AI ANALYSIS PIPELINE&lt;/b&gt;&lt;/div&gt;&lt;div&gt;&lt;ul&gt;&lt;li style=&quot;text-align: left;&quot;&gt;Take Normalized AI Candidate Exam Data&lt;/li&gt;&lt;li style=&quot;text-align: left;&quot;&gt;Create embeddings for the candidate answer&lt;/li&gt;&lt;li style=&quot;text-align: left;&quot;&gt;Send query to indexer&lt;/li&gt;&lt;li style=&quot;text-align: left;&quot;&gt;indexer returns ranked similarity responses&lt;/li&gt;&lt;ul&gt;&lt;li style=&quot;text-align: left;&quot;&gt;Response:&amp;nbsp;&lt;/li&gt;&lt;li style=&quot;text-align: left;&quot;&gt;Embedding: [12034912, 120349120934, 1041023491]&lt;br&gt;&lt;/li&gt;&lt;li style=&quot;text-align: left;&quot;&gt;Similarity / Accuracy: 90%&lt;/li&gt;&lt;/ul&gt;&lt;/ul&gt;&lt;div style=&quot;text-align: left;&quot;&gt;&lt;br&gt;&lt;/div&gt;&lt;/div&gt;" style="shape=process;whiteSpace=wrap;html=1;backgroundOutline=1;verticalAlign=top;align=center;" parent="1" vertex="1">
                    <mxGeometry x="1400" y="710" width="360" height="280" as="geometry"/>
                </mxCell>
                <mxCell id="tFWXHqorwcY2-bB6QDaT-25" style="edgeStyle=orthogonalEdgeStyle;rounded=0;orthogonalLoop=1;jettySize=auto;html=1;entryX=0.5;entryY=1;entryDx=0;entryDy=0;" parent="1" source="tFWXHqorwcY2-bB6QDaT-22" target="tFWXHqorwcY2-bB6QDaT-24" edge="1">
                    <mxGeometry relative="1" as="geometry"/>
                </mxCell>
                <mxCell id="tFWXHqorwcY2-bB6QDaT-22" value="&lt;b&gt;LLM PROCESSING&lt;/b&gt;&lt;div&gt;&lt;b&gt;&lt;br&gt;&lt;/b&gt;&lt;/div&gt;&lt;div&gt;&lt;ul&gt;&lt;li style=&quot;text-align: left;&quot;&gt;Take indexer response&amp;nbsp;&lt;/li&gt;&lt;li style=&quot;text-align: left;&quot;&gt;Send prompt and response to LLM to create human readable answer&lt;/li&gt;&lt;ul&gt;&lt;li style=&quot;text-align: left;&quot;&gt;PROMPT:&lt;/li&gt;&lt;li style=&quot;text-align: left;&quot;&gt;Using &amp;lt;questionID, Associated Concepts, Grading Criteria, Acceptable Answers, etc.&amp;gt;&lt;/li&gt;&lt;li style=&quot;text-align: left;&quot;&gt;Given the candidates &amp;lt;answer&amp;gt;, provide feedback on accuracy, correctness, and understanding of their answer to the &amp;lt;questionID&amp;gt;.&lt;/li&gt;&lt;/ul&gt;&lt;li style=&quot;text-align: left;&quot;&gt;Save answer to AI Graded Database for review by an expert&lt;/li&gt;&lt;/ul&gt;&lt;/div&gt;" style="shape=process;whiteSpace=wrap;html=1;backgroundOutline=1;verticalAlign=top;align=center;" parent="1" vertex="1">
                    <mxGeometry x="1930" y="710" width="360" height="280" as="geometry"/>
                </mxCell>
                <mxCell id="tFWXHqorwcY2-bB6QDaT-29" style="edgeStyle=orthogonalEdgeStyle;rounded=0;orthogonalLoop=1;jettySize=auto;html=1;entryX=0;entryY=0.5;entryDx=0;entryDy=0;" parent="1" source="tFWXHqorwcY2-bB6QDaT-24" target="tFWXHqorwcY2-bB6QDaT-30" edge="1">
                    <mxGeometry relative="1" as="geometry">
                        <mxPoint x="2870" y="340" as="targetPoint"/>
                    </mxGeometry>
                </mxCell>
                <mxCell id="tFWXHqorwcY2-bB6QDaT-24" value="&lt;b&gt;&lt;font style=&quot;font-size: 14px;&quot;&gt;AI GRADED CANDIDATE DATABASE&lt;/font&gt;&lt;/b&gt;&lt;div&gt;&lt;b&gt;&lt;font style=&quot;font-size: 14px;&quot;&gt;&lt;br&gt;&lt;/font&gt;&lt;/b&gt;&lt;/div&gt;&lt;div&gt;&lt;b&gt;&lt;font style=&quot;font-size: 14px;&quot;&gt;&lt;br&gt;&lt;/font&gt;&lt;/b&gt;&lt;/div&gt;&lt;div style=&quot;text-align: left;&quot;&gt;&lt;b&gt;&lt;font style=&quot;font-size: 14px;&quot;&gt;&lt;br&gt;&lt;/font&gt;&lt;/b&gt;&lt;/div&gt;" style="rounded=1;whiteSpace=wrap;html=1;verticalAlign=top;" parent="1" vertex="1">
                    <mxGeometry x="2440" y="90" width="390" height="500" as="geometry"/>
                </mxCell>
                <mxCell id="tFWXHqorwcY2-bB6QDaT-26" value="&lt;b&gt;CandidateID: 12345&lt;/b&gt;&lt;div&gt;&lt;b style=&quot;background-color: initial;&quot;&gt;Response records for examID: 999999&lt;/b&gt;&lt;br&gt;&lt;/div&gt;&lt;div&gt;&lt;b style=&quot;background-color: initial;&quot;&gt;&lt;br&gt;&lt;/b&gt;&lt;/div&gt;&lt;div&gt;&lt;b&gt;&amp;lt;question1 data: include accuracy information&lt;/b&gt;&lt;/div&gt;&lt;div&gt;&lt;b&gt;&amp;lt;question2 data&amp;gt;&lt;/b&gt;&lt;/div&gt;&lt;div&gt;&lt;b&gt;&amp;lt;question3 data&amp;gt;&lt;/b&gt;&lt;/div&gt;" style="rounded=0;whiteSpace=wrap;html=1;align=left;horizontal=1;verticalAlign=top;" parent="1" vertex="1">
                    <mxGeometry x="2495" y="160" width="280" height="120" as="geometry"/>
                </mxCell>
                <mxCell id="tFWXHqorwcY2-bB6QDaT-36" style="edgeStyle=orthogonalEdgeStyle;rounded=0;orthogonalLoop=1;jettySize=auto;html=1;entryX=0;entryY=0.5;entryDx=0;entryDy=0;" parent="1" source="tFWXHqorwcY2-bB6QDaT-30" target="tFWXHqorwcY2-bB6QDaT-35" edge="1">
                    <mxGeometry relative="1" as="geometry"/>
                </mxCell>
                <mxCell id="tFWXHqorwcY2-bB6QDaT-30" value="&lt;b&gt;EXPERT REVIEW&lt;/b&gt;" style="shape=process;whiteSpace=wrap;html=1;backgroundOutline=1;verticalAlign=top;align=center;" parent="1" vertex="1">
                    <mxGeometry x="2920" y="200" width="430" height="280" as="geometry"/>
                </mxCell>
                <mxCell id="tFWXHqorwcY2-bB6QDaT-31" value="&lt;b&gt;Question 1: question1&lt;/b&gt;&lt;div&gt;&lt;b&gt;VERSION 2&lt;/b&gt;&lt;div&gt;How does RAG AI work?&lt;/div&gt;&lt;div&gt;&lt;span style=&quot;background-color: initial;&quot;&gt;DateAdded: 02/02/1990&lt;/span&gt;&lt;br&gt;&lt;/div&gt;&lt;div&gt;&lt;span style=&quot;background-color: initial;&quot;&gt;Grading Criteria / Rubric:&lt;/span&gt;&lt;/div&gt;&lt;div&gt;&lt;span style=&quot;background-color: initial;&quot;&gt;Associated Conepts:&amp;nbsp; LLM, RAG, AI, etc&lt;/span&gt;&lt;br&gt;&lt;/div&gt;&lt;div&gt;&lt;span style=&quot;background-color: initial;&quot;&gt;Accepted Solution Information: [&lt;/span&gt;&lt;/div&gt;&lt;div&gt;&amp;nbsp; Answer1:&amp;nbsp; English is a language&lt;/div&gt;&lt;div&gt;&amp;nbsp; Answer2:&amp;nbsp; A language is English&lt;/div&gt;&lt;div&gt;&amp;nbsp; Answer3: One of the languags is English&lt;/div&gt;&lt;div&gt;&lt;span style=&quot;background-color: initial;&quot;&gt;]&lt;/span&gt;&lt;/div&gt;&lt;div&gt;&lt;span style=&quot;background-color: initial;&quot;&gt;Embedding: [12034912, 120349120934, 1041023491, etc...]&lt;/span&gt;&lt;br&gt;&lt;/div&gt;&lt;div&gt;&lt;br&gt;&lt;/div&gt;&lt;/div&gt;" style="rounded=0;whiteSpace=wrap;html=1;align=left;horizontal=1;verticalAlign=top;" parent="1" vertex="1">
                    <mxGeometry x="1980" y="20" width="280" height="200" as="geometry"/>
                </mxCell>
                <mxCell id="tFWXHqorwcY2-bB6QDaT-32" value="&lt;b&gt;CandidateID: 56789&lt;/b&gt;&lt;div&gt;&lt;b&gt;&lt;br&gt;&lt;/b&gt;&lt;/div&gt;&lt;div&gt;&lt;b&gt;Response records:&lt;/b&gt;&lt;/div&gt;&lt;div&gt;&lt;b&gt;&amp;lt;question1 data&amp;gt;&lt;/b&gt;&lt;/div&gt;&lt;div&gt;&lt;b&gt;&amp;lt;question2 data&amp;gt;&lt;/b&gt;&lt;/div&gt;&lt;div&gt;&lt;b&gt;&amp;lt;question3 data&amp;gt;&lt;/b&gt;&lt;/div&gt;" style="rounded=0;whiteSpace=wrap;html=1;align=left;horizontal=1;verticalAlign=top;" parent="1" vertex="1">
                    <mxGeometry x="2495" y="305" width="280" height="120" as="geometry"/>
                </mxCell>
                <mxCell id="tFWXHqorwcY2-bB6QDaT-33" value="&lt;b&gt;CandidateID: 99999&lt;/b&gt;&lt;div&gt;&lt;b&gt;&lt;br&gt;&lt;/b&gt;&lt;/div&gt;&lt;div&gt;&lt;b&gt;Response records:&lt;/b&gt;&lt;/div&gt;&lt;div&gt;&lt;b&gt;&amp;lt;question1 data&amp;gt;&lt;/b&gt;&lt;/div&gt;&lt;div&gt;&lt;b&gt;&amp;lt;question2 data&amp;gt;&lt;/b&gt;&lt;/div&gt;&lt;div&gt;&lt;b&gt;&amp;lt;question3 data&amp;gt;&lt;/b&gt;&lt;/div&gt;" style="rounded=0;whiteSpace=wrap;html=1;align=left;horizontal=1;verticalAlign=top;" parent="1" vertex="1">
                    <mxGeometry x="2495" y="450" width="280" height="120" as="geometry"/>
                </mxCell>
                <mxCell id="tFWXHqorwcY2-bB6QDaT-41" style="edgeStyle=orthogonalEdgeStyle;rounded=0;orthogonalLoop=1;jettySize=auto;html=1;entryX=0;entryY=0.5;entryDx=0;entryDy=0;" parent="1" source="tFWXHqorwcY2-bB6QDaT-35" target="tFWXHqorwcY2-bB6QDaT-40" edge="1">
                    <mxGeometry relative="1" as="geometry"/>
                </mxCell>
                <mxCell id="tFWXHqorwcY2-bB6QDaT-35" value="&lt;b&gt;&lt;font style=&quot;font-size: 14px;&quot;&gt;EXPERT GRADED EXAM DATABASE&lt;/font&gt;&lt;/b&gt;&lt;div&gt;&lt;b&gt;&lt;font style=&quot;font-size: 14px;&quot;&gt;&lt;br&gt;&lt;/font&gt;&lt;/b&gt;&lt;/div&gt;&lt;div&gt;&lt;b&gt;&lt;font style=&quot;font-size: 14px;&quot;&gt;&lt;br&gt;&lt;/font&gt;&lt;/b&gt;&lt;/div&gt;&lt;div style=&quot;text-align: left;&quot;&gt;&lt;b&gt;&lt;font style=&quot;font-size: 14px;&quot;&gt;&lt;br&gt;&lt;/font&gt;&lt;/b&gt;&lt;/div&gt;" style="rounded=1;whiteSpace=wrap;html=1;verticalAlign=top;" parent="1" vertex="1">
                    <mxGeometry x="3450" y="90" width="390" height="500" as="geometry"/>
                </mxCell>
                <mxCell id="tFWXHqorwcY2-bB6QDaT-37" value="&lt;b&gt;CandidateID: 12345&lt;/b&gt;&lt;div&gt;&lt;b&gt;&lt;br&gt;&lt;/b&gt;&lt;/div&gt;&lt;div&gt;&lt;b&gt;Response records for examID: 999999&lt;/b&gt;&lt;/div&gt;&lt;div&gt;&lt;b&gt;&amp;lt;question1 data&amp;gt;&lt;/b&gt;&lt;/div&gt;&lt;div&gt;&lt;b&gt;**Expert can add their own feedback**&lt;/b&gt;&lt;/div&gt;&lt;div&gt;&lt;b&gt;&lt;br&gt;&lt;/b&gt;&lt;/div&gt;&lt;div&gt;&lt;b&gt;&amp;lt;question2 data&amp;gt;&lt;/b&gt;&lt;/div&gt;&lt;div&gt;&lt;b&gt;**Expert can add their own feedback**&lt;/b&gt;&lt;b&gt;&lt;br&gt;&lt;/b&gt;&lt;/div&gt;&lt;div&gt;&lt;b&gt;&lt;br&gt;&lt;/b&gt;&lt;/div&gt;&lt;div&gt;&lt;b&gt;&amp;lt;question3 data&amp;gt;&lt;/b&gt;&lt;/div&gt;&lt;div&gt;&lt;b&gt;**Expert can add their own feedback**&lt;/b&gt;&lt;b&gt;&lt;br&gt;&lt;/b&gt;&lt;/div&gt;" style="rounded=0;whiteSpace=wrap;html=1;align=left;horizontal=1;verticalAlign=top;" parent="1" vertex="1">
                    <mxGeometry x="2990" y="245" width="280" height="180" as="geometry"/>
                </mxCell>
                <mxCell id="tFWXHqorwcY2-bB6QDaT-38" value="&lt;b&gt;CandidateID: 12345&lt;/b&gt;&lt;div&gt;&lt;b&gt;&lt;br&gt;&lt;/b&gt;&lt;/div&gt;&lt;div&gt;&lt;b&gt;Response records for examID: 999999&lt;/b&gt;&lt;/div&gt;&lt;div&gt;&lt;b&gt;&amp;lt;question1 data&amp;gt;&lt;/b&gt;&lt;/div&gt;&lt;div&gt;&lt;b&gt;&amp;lt;finalized Candidate Feedback&amp;gt;&lt;/b&gt;&lt;/div&gt;&lt;div&gt;&lt;b&gt;&lt;br&gt;&lt;/b&gt;&lt;/div&gt;&lt;div&gt;&lt;b&gt;&amp;lt;question2 data&amp;gt;&lt;/b&gt;&lt;/div&gt;&lt;div&gt;&lt;b&gt;&amp;lt;finalized Candidate Feedback&amp;gt;&lt;/b&gt;&lt;b&gt;&lt;br&gt;&lt;/b&gt;&lt;/div&gt;&lt;div&gt;&lt;b&gt;&lt;br&gt;&lt;/b&gt;&lt;/div&gt;&lt;div&gt;&lt;b&gt;&amp;lt;question3 data&amp;gt;&lt;/b&gt;&lt;/div&gt;&lt;div&gt;&lt;b&gt;&amp;lt;finalized Candidate Feedback&amp;gt;&lt;/b&gt;&lt;b&gt;&lt;br&gt;&lt;/b&gt;&lt;/div&gt;" style="rounded=0;whiteSpace=wrap;html=1;align=left;horizontal=1;verticalAlign=top;" parent="1" vertex="1">
                    <mxGeometry x="3520" y="140" width="280" height="180" as="geometry"/>
                </mxCell>
                <mxCell id="tFWXHqorwcY2-bB6QDaT-40" value="&lt;b&gt;CANDIDATE EMAIL SERVICE:&lt;/b&gt;&lt;div&gt;&lt;b&gt;GENERATION / FORMATTING / SENDING OF EMAILS&lt;/b&gt;&lt;/div&gt;&lt;div&gt;&lt;ul&gt;&lt;li style=&quot;text-align: left;&quot;&gt;&lt;b&gt;Take Expert Graded Exam record&lt;/b&gt;&lt;/li&gt;&lt;li style=&quot;text-align: left;&quot;&gt;&lt;b&gt;Apply any formatting needed&lt;/b&gt;&lt;/li&gt;&lt;li style=&quot;text-align: left;&quot;&gt;&lt;b&gt;Send to candidateID&#39;s email address&lt;/b&gt;&lt;/li&gt;&lt;/ul&gt;&lt;/div&gt;" style="shape=process;whiteSpace=wrap;html=1;backgroundOutline=1;verticalAlign=top;align=center;" parent="1" vertex="1">
                    <mxGeometry x="4010" y="200" width="430" height="280" as="geometry"/>
                </mxCell>
                <mxCell id="tFWXHqorwcY2-bB6QDaT-42" value="&lt;b&gt;CANDIDATE&lt;/b&gt;" style="shape=umlActor;verticalLabelPosition=bottom;verticalAlign=top;html=1;outlineConnect=0;" parent="1" vertex="1">
                    <mxGeometry x="4660" y="220" width="150" height="240" as="geometry"/>
                </mxCell>
                <mxCell id="tFWXHqorwcY2-bB6QDaT-43" style="edgeStyle=orthogonalEdgeStyle;rounded=0;orthogonalLoop=1;jettySize=auto;html=1;entryX=0.5;entryY=0.5;entryDx=0;entryDy=0;entryPerimeter=0;" parent="1" source="tFWXHqorwcY2-bB6QDaT-40" target="tFWXHqorwcY2-bB6QDaT-42" edge="1">
                    <mxGeometry relative="1" as="geometry"/>
                </mxCell>
                <mxCell id="tFWXHqorwcY2-bB6QDaT-44" value="&lt;b&gt;&lt;font style=&quot;font-size: 18px;&quot;&gt;EMAIL&lt;/font&gt;&lt;/b&gt;" style="edgeLabel;html=1;align=center;verticalAlign=middle;resizable=0;points=[];" parent="tFWXHqorwcY2-bB6QDaT-43" vertex="1" connectable="0">
                    <mxGeometry x="0.0147" y="-5" relative="1" as="geometry">
                        <mxPoint x="-9" y="-25" as="offset"/>
                    </mxGeometry>
                </mxCell>
                <mxCell id="tFWXHqorwcY2-bB6QDaT-48" value="&lt;b&gt;CANDIDATE&lt;/b&gt;" style="shape=umlActor;verticalLabelPosition=bottom;verticalAlign=top;html=1;outlineConnect=0;" parent="1" vertex="1">
                    <mxGeometry x="40" y="260" width="30" height="60" as="geometry"/>
                </mxCell>
                <mxCell id="tFWXHqorwcY2-bB6QDaT-49" style="edgeStyle=orthogonalEdgeStyle;rounded=0;orthogonalLoop=1;jettySize=auto;html=1;entryX=-0.011;entryY=0.39;entryDx=0;entryDy=0;entryPerimeter=0;" parent="1" source="tFWXHqorwcY2-bB6QDaT-48" target="tFWXHqorwcY2-bB6QDaT-5" edge="1">
                    <mxGeometry relative="1" as="geometry"/>
                </mxCell>
                <mxCell id="IY74Jo-S-gYB8LGB8uRn-14" style="edgeStyle=orthogonalEdgeStyle;rounded=0;orthogonalLoop=1;jettySize=auto;html=1;entryX=0;entryY=0.5;entryDx=0;entryDy=0;" parent="1" source="H5Y2XBprJAJDp06BuAl5-1" target="IY74Jo-S-gYB8LGB8uRn-12" edge="1">
                    <mxGeometry relative="1" as="geometry"/>
                </mxCell>
                <mxCell id="H5Y2XBprJAJDp06BuAl5-1" value="&lt;b&gt;ADMIN&lt;/b&gt;" style="shape=umlActor;verticalLabelPosition=bottom;verticalAlign=top;html=1;outlineConnect=0;" parent="1" vertex="1">
                    <mxGeometry x="1210" y="-1215" width="150" height="240" as="geometry"/>
                </mxCell>
                <mxCell id="IY74Jo-S-gYB8LGB8uRn-2" style="edgeStyle=orthogonalEdgeStyle;rounded=0;orthogonalLoop=1;jettySize=auto;html=1;entryX=0;entryY=0.25;entryDx=0;entryDy=0;" parent="1" source="H5Y2XBprJAJDp06BuAl5-5" target="IY74Jo-S-gYB8LGB8uRn-1" edge="1">
                    <mxGeometry relative="1" as="geometry"/>
                </mxCell>
                <mxCell id="H5Y2XBprJAJDp06BuAl5-5" value="&lt;div style=&quot;text-align: left;&quot;&gt;&lt;b style=&quot;background-color: initial;&quot;&gt;&amp;nbsp; &amp;nbsp; &amp;nbsp; &amp;nbsp; &amp;nbsp; &amp;nbsp; &amp;nbsp; &amp;nbsp; &amp;nbsp; &amp;nbsp; EXAM QUESTION PIPELINE&lt;/b&gt;&lt;/div&gt;&lt;div&gt;&lt;ul&gt;&lt;li style=&quot;text-align: left;&quot;&gt;&lt;span style=&quot;background-color: initial;&quot;&gt;Format / Normalize data (split by question)&lt;/span&gt;&lt;br&gt;&lt;/li&gt;&lt;/ul&gt;&lt;/div&gt;" style="shape=process;whiteSpace=wrap;html=1;backgroundOutline=1;verticalAlign=top;align=center;" parent="1" vertex="1">
                    <mxGeometry x="1840" y="-1190" width="360" height="190" as="geometry"/>
                </mxCell>
                <mxCell id="IY74Jo-S-gYB8LGB8uRn-10" style="edgeStyle=orthogonalEdgeStyle;rounded=0;orthogonalLoop=1;jettySize=auto;html=1;entryX=0.5;entryY=0;entryDx=0;entryDy=0;" parent="1" source="IY74Jo-S-gYB8LGB8uRn-1" target="IY74Jo-S-gYB8LGB8uRn-9" edge="1">
                    <mxGeometry relative="1" as="geometry"/>
                </mxCell>
                <mxCell id="IY74Jo-S-gYB8LGB8uRn-1" value="&lt;b&gt;&lt;font style=&quot;font-size: 14px;&quot;&gt;RAW ANSWER KEY / QUESTION DATABASE&amp;nbsp;&lt;/font&gt;&lt;/b&gt;&lt;div&gt;&lt;b&gt;&lt;font style=&quot;font-size: 14px;&quot;&gt;&lt;br&gt;&lt;/font&gt;&lt;/b&gt;&lt;/div&gt;&lt;div&gt;&lt;br&gt;&lt;/div&gt;&lt;div&gt;&lt;br&gt;&lt;/div&gt;&lt;div&gt;&lt;br&gt;&lt;/div&gt;" style="rounded=1;whiteSpace=wrap;html=1;verticalAlign=top;" parent="1" vertex="1">
                    <mxGeometry x="2360" y="-1240" width="640" height="550" as="geometry"/>
                </mxCell>
                <mxCell id="IY74Jo-S-gYB8LGB8uRn-5" value="&lt;b&gt;QuestionID: question1&lt;/b&gt;&lt;div&gt;&lt;div&gt;How does RAG AI work?&lt;/div&gt;&lt;div&gt;&lt;span style=&quot;background-color: initial;&quot;&gt;DateAdded: 02/02/1990&lt;/span&gt;&lt;br&gt;&lt;/div&gt;&lt;div&gt;Author&lt;/div&gt;&lt;div&gt;Version: 1&lt;/div&gt;&lt;div&gt;&lt;span style=&quot;background-color: initial;&quot;&gt;Grading Criteria / Rubric:&lt;/span&gt;&lt;/div&gt;&lt;div&gt;Associated Conepts:&amp;nbsp; LLM, RAG, AI, etc&lt;/div&gt;&lt;div&gt;Accepted Solution Information:&amp;nbsp; &amp;lt;good answers&amp;gt;&lt;/div&gt;&lt;/div&gt;" style="rounded=0;whiteSpace=wrap;html=1;align=left;horizontal=1;verticalAlign=top;" parent="1" vertex="1">
                    <mxGeometry x="2380" y="-1140" width="280" height="120" as="geometry"/>
                </mxCell>
                <mxCell id="IY74Jo-S-gYB8LGB8uRn-6" value="&lt;b&gt;Question 2:&lt;/b&gt;&lt;div&gt;What is Observability in RAG?&lt;/div&gt;&lt;div&gt;&lt;div&gt;&lt;span style=&quot;background-color: initial;&quot;&gt;DateAdded: 02/02/1990&lt;/span&gt;&lt;br&gt;&lt;/div&gt;&lt;div&gt;Author&lt;/div&gt;&lt;div&gt;Version&lt;/div&gt;&lt;div&gt;Grading Criteria / Rubric:&lt;/div&gt;&lt;div&gt;Associated Conepts:&amp;nbsp; LLM, RAG, AI, etc&lt;/div&gt;&lt;div&gt;Accepted Solution Information:&amp;nbsp; &amp;lt;good answers&amp;gt;&lt;/div&gt;&lt;/div&gt;" style="rounded=0;whiteSpace=wrap;html=1;align=left;horizontal=1;verticalAlign=top;" parent="1" vertex="1">
                    <mxGeometry x="2380" y="-1000" width="280" height="120" as="geometry"/>
                </mxCell>
                <mxCell id="IY74Jo-S-gYB8LGB8uRn-7" value="&lt;b&gt;Question 3:&lt;/b&gt;&lt;div&gt;Explain tokenization in relation to AI&lt;/div&gt;&lt;div&gt;&lt;div&gt;&lt;span style=&quot;background-color: initial;&quot;&gt;DateAdded: 02/02/1990&lt;/span&gt;&lt;br&gt;&lt;/div&gt;&lt;div&gt;&lt;div&gt;Author&lt;/div&gt;&lt;div&gt;Version&lt;/div&gt;&lt;div&gt;Grading Criteria / Rubric:&lt;/div&gt;&lt;div&gt;Associated Conepts:&amp;nbsp; LLM, RAG, AI, etc&lt;/div&gt;&lt;div&gt;Accepted Solution Information:&amp;nbsp; &amp;lt;good answers&amp;gt;&lt;/div&gt;&lt;/div&gt;&lt;/div&gt;" style="rounded=0;whiteSpace=wrap;html=1;align=left;horizontal=1;verticalAlign=top;" parent="1" vertex="1">
                    <mxGeometry x="2380" y="-870" width="280" height="120" as="geometry"/>
                </mxCell>
                <mxCell id="IY74Jo-S-gYB8LGB8uRn-8" value="&lt;b&gt;Question 1: question1&lt;/b&gt;&lt;div&gt;&lt;div&gt;How does RAG AI work?&lt;/div&gt;&lt;div&gt;&lt;div&gt;Author&lt;/div&gt;&lt;div&gt;Version: 2&lt;/div&gt;&lt;div&gt;Grading Criteria / Rubric:&lt;/div&gt;&lt;div&gt;Associated Conepts:&amp;nbsp; LLM, RAG, AI, etc&lt;/div&gt;&lt;div&gt;Accepted Solution Information:&amp;nbsp; &amp;lt;good answers&amp;gt;&lt;/div&gt;&lt;/div&gt;&lt;/div&gt;" style="rounded=0;whiteSpace=wrap;html=1;align=left;horizontal=1;verticalAlign=top;" parent="1" vertex="1">
                    <mxGeometry x="2690" y="-1140" width="280" height="120" as="geometry"/>
                </mxCell>
                <mxCell id="IY74Jo-S-gYB8LGB8uRn-11" style="edgeStyle=orthogonalEdgeStyle;rounded=0;orthogonalLoop=1;jettySize=auto;html=1;entryX=0.5;entryY=0;entryDx=0;entryDy=0;" parent="1" source="IY74Jo-S-gYB8LGB8uRn-9" target="tFWXHqorwcY2-bB6QDaT-4" edge="1">
                    <mxGeometry relative="1" as="geometry"/>
                </mxCell>
                <mxCell id="IY74Jo-S-gYB8LGB8uRn-9" value="&lt;div style=&quot;text-align: left;&quot;&gt;&lt;b style=&quot;background-color: initial;&quot;&gt;&amp;nbsp; &amp;nbsp; &amp;nbsp; &amp;nbsp; &amp;nbsp; &amp;nbsp; &amp;nbsp; &amp;nbsp;QUESTION/ANSWER DATA PIPELINE&lt;/b&gt;&lt;/div&gt;&lt;div&gt;&lt;ul&gt;&lt;li style=&quot;text-align: left;&quot;&gt;Take Normalized Raw Question/Answer Key Data&lt;/li&gt;&lt;li style=&quot;text-align: left;&quot;&gt;Create embeddings for the question/answers&lt;/li&gt;&lt;li style=&quot;text-align: left;&quot;&gt;Create / Delete Index&lt;/li&gt;&lt;ul&gt;&lt;li style=&quot;text-align: left;&quot;&gt;&lt;span style=&quot;background-color: initial;&quot;&gt;Add / Upsert / Delete data to index&lt;/span&gt;&lt;/li&gt;&lt;/ul&gt;&lt;/ul&gt;&lt;/div&gt;" style="shape=process;whiteSpace=wrap;html=1;backgroundOutline=1;verticalAlign=top;align=center;" parent="1" vertex="1">
                    <mxGeometry x="1785" y="-570" width="360" height="170" as="geometry"/>
                </mxCell>
                <mxCell id="IY74Jo-S-gYB8LGB8uRn-13" style="edgeStyle=orthogonalEdgeStyle;rounded=0;orthogonalLoop=1;jettySize=auto;html=1;entryX=0;entryY=0.5;entryDx=0;entryDy=0;" parent="1" source="IY74Jo-S-gYB8LGB8uRn-12" target="H5Y2XBprJAJDp06BuAl5-5" edge="1">
                    <mxGeometry relative="1" as="geometry"/>
                </mxCell>
                <mxCell id="IY74Jo-S-gYB8LGB8uRn-12" value="&lt;b&gt;&lt;font style=&quot;font-size: 16px;&quot;&gt;Admin UI&lt;/font&gt;&lt;/b&gt;&lt;div&gt;&lt;b&gt;&lt;font style=&quot;font-size: 16px;&quot;&gt;(Create / Manage Exam Questions)&lt;/font&gt;&lt;/b&gt;&lt;/div&gt;" style="whiteSpace=wrap;html=1;aspect=fixed;" parent="1" vertex="1">
                    <mxGeometry x="1480" y="-1215" width="240" height="240" as="geometry"/>
                </mxCell>
            </root>
        </mxGraphModel>
    </diagram>
    <diagram id="ySqEjmFEnSd4gUKyHkAf" name="Option 2: Short Answer">
        <mxGraphModel dx="2390" dy="377" grid="1" gridSize="10" guides="1" tooltips="1" connect="1" arrows="1" fold="1" page="1" pageScale="1" pageWidth="850" pageHeight="1100" math="0" shadow="0">
            <root>
                <mxCell id="0"/>
                <mxCell id="1" parent="0"/>
                <mxCell id="llPc_HmlTpIFPcBkZiys-1" value="&lt;b style=&quot;font-size: 14px;&quot;&gt;AI Normalized Candidate Exam Data&lt;/b&gt;" style="shape=cylinder3;whiteSpace=wrap;html=1;boundedLbl=1;backgroundOutline=1;size=15;strokeColor=default;align=center;verticalAlign=middle;fontFamily=Helvetica;fontSize=12;fontColor=default;fillColor=default;" parent="1" vertex="1">
                    <mxGeometry x="1170" y="1360" width="120" height="130" as="geometry"/>
                </mxCell>
                <mxCell id="4eu_GEeswz5yfSO-8ymM-2" style="edgeStyle=none;curved=1;rounded=0;orthogonalLoop=1;jettySize=auto;html=1;fontSize=12;startSize=8;endSize=8;" edge="1" parent="1" source="llPc_HmlTpIFPcBkZiys-3" target="4eu_GEeswz5yfSO-8ymM-1">
                    <mxGeometry relative="1" as="geometry"/>
                </mxCell>
                <mxCell id="llPc_HmlTpIFPcBkZiys-3" value="Data Retrieval&amp;nbsp;" style="rounded=0;whiteSpace=wrap;html=1;" parent="1" vertex="1">
                    <mxGeometry x="1170" y="1530" width="120" height="60" as="geometry"/>
                </mxCell>
                <mxCell id="llPc_HmlTpIFPcBkZiys-4" style="edgeStyle=orthogonalEdgeStyle;rounded=0;orthogonalLoop=1;jettySize=auto;html=1;entryX=0.5;entryY=0;entryDx=0;entryDy=0;" parent="1" source="llPc_HmlTpIFPcBkZiys-1" target="llPc_HmlTpIFPcBkZiys-3" edge="1">
                    <mxGeometry relative="1" as="geometry">
                        <mxPoint x="1280" y="1680" as="targetPoint"/>
                    </mxGeometry>
                </mxCell>
                <mxCell id="llPc_HmlTpIFPcBkZiys-5" style="edgeStyle=orthogonalEdgeStyle;rounded=0;orthogonalLoop=1;jettySize=auto;html=1;exitX=0.5;exitY=1;exitDx=0;exitDy=0;entryX=0.5;entryY=0;entryDx=0;entryDy=0;" parent="1" source="llPc_HmlTpIFPcBkZiys-6" target="llPc_HmlTpIFPcBkZiys-8" edge="1">
                    <mxGeometry relative="1" as="geometry"/>
                </mxCell>
                <mxCell id="llPc_HmlTpIFPcBkZiys-6" value="Apply Embedding Model" style="rounded=0;whiteSpace=wrap;html=1;" parent="1" vertex="1">
                    <mxGeometry x="1170" y="1750" width="120" height="60" as="geometry"/>
                </mxCell>
                <mxCell id="llPc_HmlTpIFPcBkZiys-7" style="edgeStyle=orthogonalEdgeStyle;rounded=0;orthogonalLoop=1;jettySize=auto;html=1;entryX=0;entryY=0.5;entryDx=0;entryDy=0;" parent="1" source="llPc_HmlTpIFPcBkZiys-8" target="llPc_HmlTpIFPcBkZiys-41" edge="1">
                    <mxGeometry relative="1" as="geometry"/>
                </mxCell>
                <mxCell id="llPc_HmlTpIFPcBkZiys-8" value="query vector db&lt;br&gt;&lt;b&gt;Apply Filtering&lt;br&gt;Ranking&lt;br&gt;&lt;/b&gt;" style="rounded=0;whiteSpace=wrap;html=1;" parent="1" vertex="1">
                    <mxGeometry x="1170" y="1850" width="120" height="60" as="geometry"/>
                </mxCell>
                <mxCell id="llPc_HmlTpIFPcBkZiys-10" style="edgeStyle=orthogonalEdgeStyle;rounded=0;orthogonalLoop=1;jettySize=auto;html=1;exitX=0.5;exitY=1;exitDx=0;exitDy=0;entryX=0.5;entryY=0;entryDx=0;entryDy=0;" parent="1" source="llPc_HmlTpIFPcBkZiys-11" target="llPc_HmlTpIFPcBkZiys-38" edge="1">
                    <mxGeometry relative="1" as="geometry">
                        <mxPoint x="690" y="1720" as="targetPoint"/>
                    </mxGeometry>
                </mxCell>
                <mxCell id="llPc_HmlTpIFPcBkZiys-11" value="Data Retrieval&amp;nbsp;" style="rounded=0;whiteSpace=wrap;html=1;" parent="1" vertex="1">
                    <mxGeometry x="800" y="1630" width="120" height="60" as="geometry"/>
                </mxCell>
                <mxCell id="llPc_HmlTpIFPcBkZiys-12" style="edgeStyle=orthogonalEdgeStyle;rounded=0;orthogonalLoop=1;jettySize=auto;html=1;exitX=0.145;exitY=1;exitDx=0;exitDy=-4.35;exitPerimeter=0;entryX=1;entryY=0.5;entryDx=0;entryDy=0;startArrow=classic;startFill=1;endArrow=none;endFill=0;" parent="1" source="llPc_HmlTpIFPcBkZiys-14" target="llPc_HmlTpIFPcBkZiys-18" edge="1">
                    <mxGeometry relative="1" as="geometry">
                        <Array as="points">
                            <mxPoint x="980" y="2000"/>
                            <mxPoint x="920" y="2000"/>
                        </Array>
                    </mxGeometry>
                </mxCell>
                <mxCell id="llPc_HmlTpIFPcBkZiys-13" style="edgeStyle=orthogonalEdgeStyle;rounded=0;orthogonalLoop=1;jettySize=auto;html=1;exitX=0.855;exitY=1;exitDx=0;exitDy=-4.35;exitPerimeter=0;entryX=0;entryY=0.5;entryDx=0;entryDy=0;" parent="1" source="llPc_HmlTpIFPcBkZiys-14" target="llPc_HmlTpIFPcBkZiys-8" edge="1">
                    <mxGeometry relative="1" as="geometry">
                        <Array as="points">
                            <mxPoint x="1060" y="1880"/>
                        </Array>
                    </mxGeometry>
                </mxCell>
                <mxCell id="llPc_HmlTpIFPcBkZiys-14" value="&lt;b&gt;&lt;font style=&quot;font-size: 14px;&quot;&gt;ANSWER KEY / QUESTION DATABASE (VECTOR DB)&lt;/font&gt;&lt;/b&gt;&lt;div&gt;&lt;b&gt;&lt;font style=&quot;font-size: 14px;&quot;&gt;&lt;br&gt;&lt;/font&gt;&lt;/b&gt;&lt;/div&gt;" style="shape=cylinder3;whiteSpace=wrap;html=1;boundedLbl=1;backgroundOutline=1;size=15;" parent="1" vertex="1">
                    <mxGeometry x="960" y="1460" width="120" height="130" as="geometry"/>
                </mxCell>
                <mxCell id="llPc_HmlTpIFPcBkZiys-15" style="edgeStyle=orthogonalEdgeStyle;rounded=0;orthogonalLoop=1;jettySize=auto;html=1;exitX=0.5;exitY=1;exitDx=0;exitDy=0;" parent="1" source="llPc_HmlTpIFPcBkZiys-16" target="llPc_HmlTpIFPcBkZiys-17" edge="1">
                    <mxGeometry relative="1" as="geometry"/>
                </mxCell>
                <mxCell id="llPc_HmlTpIFPcBkZiys-16" value="Admin UI&lt;div&gt;(Modify Questions&lt;/div&gt;&lt;div&gt;&amp;amp; Answers, etc.)&lt;/div&gt;" style="rounded=0;whiteSpace=wrap;html=1;" parent="1" vertex="1">
                    <mxGeometry x="800" y="1240" width="120" height="60" as="geometry"/>
                </mxCell>
                <mxCell id="llPc_HmlTpIFPcBkZiys-17" value="QUESTION MANAGEMENT SERVICE&lt;div&gt;(Update/Modify/etc.)&lt;/div&gt;" style="rounded=0;whiteSpace=wrap;html=1;" parent="1" vertex="1">
                    <mxGeometry x="800" y="1360" width="120" height="60" as="geometry"/>
                </mxCell>
                <mxCell id="llPc_HmlTpIFPcBkZiys-18" value="Add / Upsert / Delete data to VectorDB" style="rounded=0;whiteSpace=wrap;html=1;" parent="1" vertex="1">
                    <mxGeometry x="800" y="1980" width="120" height="60" as="geometry"/>
                </mxCell>
                <mxCell id="llPc_HmlTpIFPcBkZiys-19" style="edgeStyle=orthogonalEdgeStyle;rounded=0;orthogonalLoop=1;jettySize=auto;html=1;exitX=0.5;exitY=1;exitDx=0;exitDy=0;entryX=0.5;entryY=0;entryDx=0;entryDy=0;" parent="1" source="llPc_HmlTpIFPcBkZiys-21" target="llPc_HmlTpIFPcBkZiys-18" edge="1">
                    <mxGeometry relative="1" as="geometry"/>
                </mxCell>
                <mxCell id="llPc_HmlTpIFPcBkZiys-20" value="" style="edgeStyle=orthogonalEdgeStyle;rounded=0;orthogonalLoop=1;jettySize=auto;html=1;startArrow=classic;startFill=1;endArrow=none;endFill=0;" parent="1" source="llPc_HmlTpIFPcBkZiys-21" target="llPc_HmlTpIFPcBkZiys-22" edge="1">
                    <mxGeometry relative="1" as="geometry"/>
                </mxCell>
                <mxCell id="llPc_HmlTpIFPcBkZiys-21" value="Index data" style="rounded=0;whiteSpace=wrap;html=1;" parent="1" vertex="1">
                    <mxGeometry x="800" y="1900" width="120" height="60" as="geometry"/>
                </mxCell>
                <mxCell id="llPc_HmlTpIFPcBkZiys-22" value="Apply Embedding Model" style="rounded=0;whiteSpace=wrap;html=1;" parent="1" vertex="1">
                    <mxGeometry x="800" y="1810" width="120" height="60" as="geometry"/>
                </mxCell>
                <mxCell id="llPc_HmlTpIFPcBkZiys-23" style="edgeStyle=orthogonalEdgeStyle;rounded=0;orthogonalLoop=1;jettySize=auto;html=1;exitX=0.5;exitY=1;exitDx=0;exitDy=0;exitPerimeter=0;entryX=0.5;entryY=0;entryDx=0;entryDy=0;" parent="1" source="llPc_HmlTpIFPcBkZiys-24" target="llPc_HmlTpIFPcBkZiys-11" edge="1">
                    <mxGeometry relative="1" as="geometry"/>
                </mxCell>
                <mxCell id="llPc_HmlTpIFPcBkZiys-24" value="&lt;b&gt;&lt;font style=&quot;font-size: 14px;&quot;&gt;RAW ANSWER KEY / QUESTION DATABASE&amp;nbsp;&lt;/font&gt;&lt;/b&gt;&lt;div&gt;&lt;b&gt;&lt;font style=&quot;font-size: 14px;&quot;&gt;(Data Store, unspecified)&lt;/font&gt;&lt;/b&gt;&lt;div&gt;&lt;b&gt;&lt;font style=&quot;font-size: 14px;&quot;&gt;&lt;br&gt;&lt;/font&gt;&lt;/b&gt;&lt;/div&gt;&lt;/div&gt;" style="shape=cylinder3;whiteSpace=wrap;html=1;boundedLbl=1;backgroundOutline=1;size=15;strokeColor=default;align=center;verticalAlign=middle;fontFamily=Helvetica;fontSize=12;fontColor=default;fillColor=default;" parent="1" vertex="1">
                    <mxGeometry x="800" y="1460" width="120" height="130" as="geometry"/>
                </mxCell>
                <mxCell id="llPc_HmlTpIFPcBkZiys-25" style="edgeStyle=orthogonalEdgeStyle;rounded=0;orthogonalLoop=1;jettySize=auto;html=1;entryX=0;entryY=0.5;entryDx=0;entryDy=0;" parent="1" source="llPc_HmlTpIFPcBkZiys-26" target="llPc_HmlTpIFPcBkZiys-16" edge="1">
                    <mxGeometry relative="1" as="geometry"/>
                </mxCell>
                <mxCell id="llPc_HmlTpIFPcBkZiys-26" value="ADMIN" style="shape=umlActor;verticalLabelPosition=bottom;verticalAlign=top;html=1;outlineConnect=0;" parent="1" vertex="1">
                    <mxGeometry x="690" y="1240" width="30" height="60" as="geometry"/>
                </mxCell>
                <mxCell id="llPc_HmlTpIFPcBkZiys-27" style="edgeStyle=orthogonalEdgeStyle;rounded=0;orthogonalLoop=1;jettySize=auto;html=1;exitX=0.5;exitY=1;exitDx=0;exitDy=0;entryX=0.5;entryY=0;entryDx=0;entryDy=0;entryPerimeter=0;" parent="1" source="llPc_HmlTpIFPcBkZiys-17" target="llPc_HmlTpIFPcBkZiys-24" edge="1">
                    <mxGeometry relative="1" as="geometry"/>
                </mxCell>
                <mxCell id="llPc_HmlTpIFPcBkZiys-29" style="edgeStyle=orthogonalEdgeStyle;rounded=0;orthogonalLoop=1;jettySize=auto;html=1;" parent="1" source="llPc_HmlTpIFPcBkZiys-30" target="llPc_HmlTpIFPcBkZiys-34" edge="1">
                    <mxGeometry relative="1" as="geometry"/>
                </mxCell>
                <mxCell id="llPc_HmlTpIFPcBkZiys-30" value="&lt;div&gt;&lt;br&gt;&lt;/div&gt;&lt;div&gt;&lt;span style=&quot;text-align: left; background-color: initial;&quot;&gt;Prompt Orchestrator&lt;/span&gt;&lt;/div&gt;" style="rounded=0;whiteSpace=wrap;html=1;" parent="1" vertex="1">
                    <mxGeometry x="1510" y="1805" width="160" height="150" as="geometry"/>
                </mxCell>
                <mxCell id="llPc_HmlTpIFPcBkZiys-31" value="Normalize LLM response data and store to db&lt;br&gt;&lt;b&gt;Response Filter&lt;/b&gt;" style="rounded=0;whiteSpace=wrap;html=1;" parent="1" vertex="1">
                    <mxGeometry x="2020" y="1845" width="170" height="60" as="geometry"/>
                </mxCell>
                <mxCell id="llPc_HmlTpIFPcBkZiys-32" style="edgeStyle=orthogonalEdgeStyle;rounded=0;orthogonalLoop=1;jettySize=auto;html=1;entryX=0;entryY=0.5;entryDx=0;entryDy=0;" parent="1" source="llPc_HmlTpIFPcBkZiys-34" target="llPc_HmlTpIFPcBkZiys-31" edge="1">
                    <mxGeometry relative="1" as="geometry"/>
                </mxCell>
                <mxCell id="llPc_HmlTpIFPcBkZiys-33" style="edgeStyle=orthogonalEdgeStyle;rounded=0;orthogonalLoop=1;jettySize=auto;html=1;entryX=1;entryY=0.75;entryDx=0;entryDy=0;" parent="1" source="llPc_HmlTpIFPcBkZiys-34" target="llPc_HmlTpIFPcBkZiys-30" edge="1">
                    <mxGeometry relative="1" as="geometry">
                        <Array as="points">
                            <mxPoint x="1690" y="1918"/>
                        </Array>
                    </mxGeometry>
                </mxCell>
                <mxCell id="llPc_HmlTpIFPcBkZiys-34" value="LLM Processing&lt;br&gt;Provide the following:&lt;br&gt;&lt;ul&gt;&lt;li style=&quot;text-align: left;&quot;&gt;How well does the candidate answer match the Answers from Answers Key?&lt;/li&gt;&lt;li style=&quot;text-align: left;&quot;&gt;Areas of improvement&lt;/li&gt;&lt;ul&gt;&lt;li style=&quot;text-align: left;&quot;&gt;Suggested content&lt;/li&gt;&lt;/ul&gt;&lt;/ul&gt;" style="rounded=0;whiteSpace=wrap;html=1;" parent="1" vertex="1">
                    <mxGeometry x="1710" y="1800" width="280" height="150" as="geometry"/>
                </mxCell>
                <mxCell id="FAQ8SjFKWdRQwwW_EuPi-18" style="edgeStyle=orthogonalEdgeStyle;rounded=0;orthogonalLoop=1;jettySize=auto;html=1;entryX=0;entryY=0.5;entryDx=0;entryDy=0;" parent="1" source="llPc_HmlTpIFPcBkZiys-35" target="FAQ8SjFKWdRQwwW_EuPi-13" edge="1">
                    <mxGeometry relative="1" as="geometry"/>
                </mxCell>
                <mxCell id="llPc_HmlTpIFPcBkZiys-35" value="&lt;b&gt;&lt;font style=&quot;font-size: 14px;&quot;&gt;AI GRADED CANDIDATE DATABASE&lt;/font&gt;&lt;/b&gt;&lt;div&gt;&lt;b&gt;&lt;font style=&quot;font-size: 14px;&quot;&gt;&lt;br&gt;&lt;/font&gt;&lt;/b&gt;&lt;/div&gt;&lt;div&gt;&lt;b&gt;&lt;font style=&quot;font-size: 14px;&quot;&gt;&lt;br&gt;&lt;/font&gt;&lt;/b&gt;&lt;/div&gt;" style="shape=cylinder3;whiteSpace=wrap;html=1;boundedLbl=1;backgroundOutline=1;size=15;strokeColor=default;align=center;verticalAlign=middle;fontFamily=Helvetica;fontSize=12;fontColor=default;fillColor=default;" parent="1" vertex="1">
                    <mxGeometry x="2045" y="1530" width="120" height="130" as="geometry"/>
                </mxCell>
                <mxCell id="llPc_HmlTpIFPcBkZiys-36" style="edgeStyle=orthogonalEdgeStyle;rounded=0;orthogonalLoop=1;jettySize=auto;html=1;entryX=0.5;entryY=1;entryDx=0;entryDy=0;entryPerimeter=0;" parent="1" source="llPc_HmlTpIFPcBkZiys-31" target="llPc_HmlTpIFPcBkZiys-35" edge="1">
                    <mxGeometry relative="1" as="geometry"/>
                </mxCell>
                <mxCell id="llPc_HmlTpIFPcBkZiys-37" style="edgeStyle=orthogonalEdgeStyle;rounded=0;orthogonalLoop=1;jettySize=auto;html=1;entryX=0.5;entryY=0;entryDx=0;entryDy=0;" parent="1" source="llPc_HmlTpIFPcBkZiys-38" target="llPc_HmlTpIFPcBkZiys-22" edge="1">
                    <mxGeometry relative="1" as="geometry"/>
                </mxCell>
                <mxCell id="llPc_HmlTpIFPcBkZiys-38" value="Chunk data&amp;nbsp;&lt;div&gt;(if needed)&lt;/div&gt;" style="rounded=0;whiteSpace=wrap;html=1;" parent="1" vertex="1">
                    <mxGeometry x="800" y="1720" width="120" height="60" as="geometry"/>
                </mxCell>
                <mxCell id="llPc_HmlTpIFPcBkZiys-40" style="edgeStyle=orthogonalEdgeStyle;rounded=0;orthogonalLoop=1;jettySize=auto;html=1;" parent="1" source="llPc_HmlTpIFPcBkZiys-41" target="llPc_HmlTpIFPcBkZiys-30" edge="1">
                    <mxGeometry relative="1" as="geometry"/>
                </mxCell>
                <mxCell id="llPc_HmlTpIFPcBkZiys-41" value="&lt;b&gt;Prompt&lt;br&gt;Validation&lt;br&gt;&lt;/b&gt;" style="rounded=0;whiteSpace=wrap;html=1;" parent="1" vertex="1">
                    <mxGeometry x="1340" y="1850" width="120" height="60" as="geometry"/>
                </mxCell>
                <mxCell id="zBo2JKRc_5d1mUjpZlG1-2" style="edgeStyle=orthogonalEdgeStyle;rounded=0;orthogonalLoop=1;jettySize=auto;html=1;entryX=0;entryY=0.5;entryDx=0;entryDy=0;" parent="1" source="FAQ8SjFKWdRQwwW_EuPi-11" target="zBo2JKRc_5d1mUjpZlG1-1" edge="1">
                    <mxGeometry relative="1" as="geometry"/>
                </mxCell>
                <mxCell id="FAQ8SjFKWdRQwwW_EuPi-11" value="&lt;span style=&quot;font-size: 14px;&quot;&gt;&lt;b&gt;Expert Graded&lt;br&gt;&lt;/b&gt;&lt;/span&gt;Exam Database" style="shape=cylinder3;whiteSpace=wrap;html=1;boundedLbl=1;backgroundOutline=1;size=15;strokeColor=default;align=center;verticalAlign=middle;fontFamily=Helvetica;fontSize=12;fontColor=default;fillColor=default;" parent="1" vertex="1">
                    <mxGeometry x="2760" y="1530" width="120" height="130" as="geometry"/>
                </mxCell>
                <mxCell id="FAQ8SjFKWdRQwwW_EuPi-12" value="&lt;b&gt;CANDIDATE&lt;/b&gt;" style="shape=umlActor;verticalLabelPosition=bottom;verticalAlign=top;html=1;outlineConnect=0;" parent="1" vertex="1">
                    <mxGeometry x="3420" y="1475" width="150" height="240" as="geometry"/>
                </mxCell>
                <mxCell id="FAQ8SjFKWdRQwwW_EuPi-15" style="edgeStyle=orthogonalEdgeStyle;rounded=0;orthogonalLoop=1;jettySize=auto;html=1;" parent="1" source="FAQ8SjFKWdRQwwW_EuPi-13" target="FAQ8SjFKWdRQwwW_EuPi-11" edge="1">
                    <mxGeometry relative="1" as="geometry"/>
                </mxCell>
                <mxCell id="FAQ8SjFKWdRQwwW_EuPi-16" style="edgeStyle=orthogonalEdgeStyle;rounded=1;orthogonalLoop=1;jettySize=auto;html=1;" parent="1" source="FAQ8SjFKWdRQwwW_EuPi-13" target="FAQ8SjFKWdRQwwW_EuPi-14" edge="1">
                    <mxGeometry relative="1" as="geometry">
                        <Array as="points">
                            <mxPoint x="2475" y="1710"/>
                            <mxPoint x="2820" y="1710"/>
                        </Array>
                    </mxGeometry>
                </mxCell>
                <mxCell id="FAQ8SjFKWdRQwwW_EuPi-13" value="&lt;b&gt;Review Service&lt;br&gt;- Pull in Candidate answer&lt;br&gt;-&amp;nbsp;Review the AI responses&lt;br&gt;- Store AI response feedback from Expert analysis (optional)&lt;br&gt;&amp;nbsp;- Adding additional feedback from Expert&lt;br&gt;&lt;/b&gt;&lt;b style=&quot;border-color: var(--border-color);&quot;&gt;- if the AI threshold filter is not met (optional)&lt;/b&gt;&lt;b&gt;&lt;br&gt;- Email Format&lt;br&gt;&lt;/b&gt;" style="shape=process;whiteSpace=wrap;html=1;backgroundOutline=1;verticalAlign=top;align=left;" parent="1" vertex="1">
                    <mxGeometry x="2240" y="1522.5" width="470" height="145" as="geometry"/>
                </mxCell>
                <mxCell id="FAQ8SjFKWdRQwwW_EuPi-14" value="&lt;span style=&quot;font-size: 14px;&quot;&gt;&lt;b&gt;AI Response&lt;br&gt;Feedback&lt;br&gt;&lt;/b&gt;&lt;/span&gt;" style="shape=cylinder3;whiteSpace=wrap;html=1;boundedLbl=1;backgroundOutline=1;size=15;strokeColor=default;align=center;verticalAlign=middle;fontFamily=Helvetica;fontSize=12;fontColor=default;fillColor=default;" parent="1" vertex="1">
                    <mxGeometry x="2760" y="1740" width="120" height="130" as="geometry"/>
                </mxCell>
                <mxCell id="zBo2JKRc_5d1mUjpZlG1-3" style="edgeStyle=orthogonalEdgeStyle;rounded=0;orthogonalLoop=1;jettySize=auto;html=1;entryX=0.5;entryY=0.5;entryDx=0;entryDy=0;entryPerimeter=0;" parent="1" source="zBo2JKRc_5d1mUjpZlG1-1" target="FAQ8SjFKWdRQwwW_EuPi-12" edge="1">
                    <mxGeometry relative="1" as="geometry"/>
                </mxCell>
                <mxCell id="zBo2JKRc_5d1mUjpZlG1-1" value="&lt;b&gt;CANDIDATE EMAIL SERVICE:&lt;/b&gt;&lt;div&gt;&lt;b&gt;GENERATION / SENDING OF EMAILS&lt;/b&gt;&lt;/div&gt;&lt;div&gt;&lt;ul&gt;&lt;li style=&quot;text-align: left;&quot;&gt;&lt;b&gt;Take Expert Graded Exam record&lt;/b&gt;&lt;/li&gt;&lt;li style=&quot;text-align: left;&quot;&gt;&lt;b&gt;Apply any formatting needed&lt;/b&gt;&lt;/li&gt;&lt;li style=&quot;text-align: left;&quot;&gt;&lt;b&gt;Send to candidateID&#39;s email address&lt;/b&gt;&lt;/li&gt;&lt;/ul&gt;&lt;/div&gt;" style="shape=process;whiteSpace=wrap;html=1;backgroundOutline=1;verticalAlign=top;align=center;" parent="1" vertex="1">
                    <mxGeometry x="2950" y="1525" width="330" height="140" as="geometry"/>
                </mxCell>
                <mxCell id="4eu_GEeswz5yfSO-8ymM-3" value="" style="edgeStyle=none;curved=1;rounded=0;orthogonalLoop=1;jettySize=auto;html=1;fontSize=12;startSize=8;endSize=8;" edge="1" parent="1" source="4eu_GEeswz5yfSO-8ymM-1" target="llPc_HmlTpIFPcBkZiys-6">
                    <mxGeometry relative="1" as="geometry"/>
                </mxCell>
                <mxCell id="4eu_GEeswz5yfSO-8ymM-1" value="Chunk data&amp;nbsp;&lt;div&gt;(if needed)&lt;/div&gt;" style="rounded=0;whiteSpace=wrap;html=1;" vertex="1" parent="1">
                    <mxGeometry x="1170" y="1630" width="120" height="60" as="geometry"/>
                </mxCell>
            </root>
        </mxGraphModel>
    </diagram>
    <diagram id="mJxIYXbhvtI1gHHD8IRf" name="All options considered for Short-Answer">
        <mxGraphModel dx="1434" dy="886" grid="1" gridSize="10" guides="1" tooltips="1" connect="1" arrows="1" fold="1" page="1" pageScale="1" pageWidth="850" pageHeight="1100" math="0" shadow="0">
            <root>
                <mxCell id="0"/>
                <mxCell id="1" parent="0"/>
                <mxCell id="RW081cyx6c7tKIx5Bm8l-1" value="&lt;font style=&quot;font-size: 14px;&quot;&gt;&lt;b&gt;AI Normalized Candidate Exam Data&lt;/b&gt;&lt;/font&gt;" style="shape=cylinder3;whiteSpace=wrap;html=1;boundedLbl=1;backgroundOutline=1;size=15;strokeColor=default;align=center;verticalAlign=middle;fontFamily=Helvetica;fontSize=12;fontColor=default;fillColor=default;" parent="1" vertex="1">
                    <mxGeometry x="1140" y="470" width="120" height="130" as="geometry"/>
                </mxCell>
                <mxCell id="0tjZnTirtEJvISteG7uV-10" style="edgeStyle=orthogonalEdgeStyle;rounded=0;orthogonalLoop=1;jettySize=auto;html=1;exitX=0.5;exitY=1;exitDx=0;exitDy=0;entryX=0.5;entryY=0;entryDx=0;entryDy=0;" parent="1" source="vpDbZs-vdEBF1j_pbWEh-1" target="0tjZnTirtEJvISteG7uV-6" edge="1">
                    <mxGeometry relative="1" as="geometry">
                        <mxPoint x="810" y="730" as="targetPoint"/>
                    </mxGeometry>
                </mxCell>
                <mxCell id="vpDbZs-vdEBF1j_pbWEh-1" value="Data Retrieval&amp;nbsp;" style="rounded=0;whiteSpace=wrap;html=1;" parent="1" vertex="1">
                    <mxGeometry x="750" y="640" width="120" height="60" as="geometry"/>
                </mxCell>
                <mxCell id="0tjZnTirtEJvISteG7uV-1" style="edgeStyle=orthogonalEdgeStyle;rounded=0;orthogonalLoop=1;jettySize=auto;html=1;exitX=0.145;exitY=1;exitDx=0;exitDy=-4.35;exitPerimeter=0;entryX=1;entryY=0.5;entryDx=0;entryDy=0;startArrow=classic;startFill=1;endArrow=none;endFill=0;" parent="1" source="eDluKhF_HJNQehMkLV1u-1" target="0tjZnTirtEJvISteG7uV-5" edge="1">
                    <mxGeometry relative="1" as="geometry">
                        <Array as="points">
                            <mxPoint x="930" y="950"/>
                        </Array>
                    </mxGeometry>
                </mxCell>
                <mxCell id="mMr2zwwxchism_N1tsFI-1" style="edgeStyle=orthogonalEdgeStyle;rounded=0;orthogonalLoop=1;jettySize=auto;html=1;exitX=0.855;exitY=1;exitDx=0;exitDy=-4.35;exitPerimeter=0;entryX=0;entryY=0.5;entryDx=0;entryDy=0;" parent="1" source="eDluKhF_HJNQehMkLV1u-1" target="muD_Ug5KTFGlHooU9dLW-6" edge="1">
                    <mxGeometry relative="1" as="geometry">
                        <Array as="points">
                            <mxPoint x="1010" y="820"/>
                        </Array>
                    </mxGeometry>
                </mxCell>
                <mxCell id="eDluKhF_HJNQehMkLV1u-1" value="&lt;b&gt;&lt;font style=&quot;font-size: 14px;&quot;&gt;ANSWER KEY / QUESTION DATABASE (DB)&lt;/font&gt;&lt;/b&gt;&lt;div&gt;&lt;b&gt;&lt;font style=&quot;font-size: 14px;&quot;&gt;&lt;br&gt;&lt;/font&gt;&lt;/b&gt;&lt;/div&gt;" style="shape=cylinder3;whiteSpace=wrap;html=1;boundedLbl=1;backgroundOutline=1;size=15;" parent="1" vertex="1">
                    <mxGeometry x="910" y="470" width="120" height="130" as="geometry"/>
                </mxCell>
                <mxCell id="muD_Ug5KTFGlHooU9dLW-5" style="edgeStyle=orthogonalEdgeStyle;rounded=0;orthogonalLoop=1;jettySize=auto;html=1;entryX=0.5;entryY=0;entryDx=0;entryDy=0;" parent="1" source="0tjZnTirtEJvISteG7uV-2" target="muD_Ug5KTFGlHooU9dLW-6" edge="1">
                    <mxGeometry relative="1" as="geometry">
                        <mxPoint x="1199.9999999999998" y="750" as="targetPoint"/>
                    </mxGeometry>
                </mxCell>
                <mxCell id="0tjZnTirtEJvISteG7uV-2" value="Data Retrieval&amp;nbsp;" style="rounded=0;whiteSpace=wrap;html=1;" parent="1" vertex="1">
                    <mxGeometry x="1140" y="670" width="120" height="60" as="geometry"/>
                </mxCell>
                <mxCell id="0tjZnTirtEJvISteG7uV-15" style="edgeStyle=orthogonalEdgeStyle;rounded=0;orthogonalLoop=1;jettySize=auto;html=1;exitX=0.5;exitY=1;exitDx=0;exitDy=0;" parent="1" source="0tjZnTirtEJvISteG7uV-3" target="0tjZnTirtEJvISteG7uV-4" edge="1">
                    <mxGeometry relative="1" as="geometry"/>
                </mxCell>
                <mxCell id="0tjZnTirtEJvISteG7uV-3" value="Admin UI&lt;div&gt;(Modify Questions&lt;/div&gt;&lt;div&gt;&amp;amp; Answers, etc.)&lt;/div&gt;" style="rounded=0;whiteSpace=wrap;html=1;" parent="1" vertex="1">
                    <mxGeometry x="750" y="250" width="120" height="60" as="geometry"/>
                </mxCell>
                <mxCell id="0tjZnTirtEJvISteG7uV-4" value="QUESTION MANAGEMENT SERVICE&lt;div&gt;(Update/Modify/etc.)&lt;/div&gt;" style="rounded=0;whiteSpace=wrap;html=1;" parent="1" vertex="1">
                    <mxGeometry x="750" y="370" width="120" height="60" as="geometry"/>
                </mxCell>
                <mxCell id="0tjZnTirtEJvISteG7uV-5" value="Add / Upsert / Delete data to VectorDB" style="rounded=0;whiteSpace=wrap;html=1;" parent="1" vertex="1">
                    <mxGeometry x="750" y="900" width="120" height="60" as="geometry"/>
                </mxCell>
                <mxCell id="0tjZnTirtEJvISteG7uV-12" style="edgeStyle=orthogonalEdgeStyle;rounded=0;orthogonalLoop=1;jettySize=auto;html=1;exitX=0.5;exitY=1;exitDx=0;exitDy=0;entryX=0.5;entryY=0;entryDx=0;entryDy=0;" parent="1" source="0tjZnTirtEJvISteG7uV-6" target="0tjZnTirtEJvISteG7uV-5" edge="1">
                    <mxGeometry relative="1" as="geometry"/>
                </mxCell>
                <mxCell id="0tjZnTirtEJvISteG7uV-6" value="Index data" style="rounded=0;whiteSpace=wrap;html=1;" parent="1" vertex="1">
                    <mxGeometry x="750" y="770" width="120" height="60" as="geometry"/>
                </mxCell>
                <mxCell id="0tjZnTirtEJvISteG7uV-9" style="edgeStyle=orthogonalEdgeStyle;rounded=0;orthogonalLoop=1;jettySize=auto;html=1;exitX=0.5;exitY=1;exitDx=0;exitDy=0;exitPerimeter=0;entryX=0.5;entryY=0;entryDx=0;entryDy=0;" parent="1" source="0tjZnTirtEJvISteG7uV-8" target="vpDbZs-vdEBF1j_pbWEh-1" edge="1">
                    <mxGeometry relative="1" as="geometry"/>
                </mxCell>
                <mxCell id="0tjZnTirtEJvISteG7uV-8" value="&lt;b&gt;&lt;font style=&quot;font-size: 14px;&quot;&gt;RAW ANSWER KEY / QUESTION DATABASE&amp;nbsp;&lt;/font&gt;&lt;/b&gt;&lt;div&gt;&lt;b&gt;&lt;font style=&quot;font-size: 14px;&quot;&gt;(Data Store, unspecified)&lt;/font&gt;&lt;/b&gt;&lt;div&gt;&lt;b&gt;&lt;font style=&quot;font-size: 14px;&quot;&gt;&lt;br&gt;&lt;/font&gt;&lt;/b&gt;&lt;/div&gt;&lt;/div&gt;" style="shape=cylinder3;whiteSpace=wrap;html=1;boundedLbl=1;backgroundOutline=1;size=15;strokeColor=default;align=center;verticalAlign=middle;fontFamily=Helvetica;fontSize=12;fontColor=default;fillColor=default;" parent="1" vertex="1">
                    <mxGeometry x="750" y="470" width="120" height="130" as="geometry"/>
                </mxCell>
                <mxCell id="0tjZnTirtEJvISteG7uV-14" style="edgeStyle=orthogonalEdgeStyle;rounded=0;orthogonalLoop=1;jettySize=auto;html=1;entryX=0;entryY=0.5;entryDx=0;entryDy=0;" parent="1" source="0tjZnTirtEJvISteG7uV-13" target="0tjZnTirtEJvISteG7uV-3" edge="1">
                    <mxGeometry relative="1" as="geometry"/>
                </mxCell>
                <mxCell id="0tjZnTirtEJvISteG7uV-13" value="ADMIN" style="shape=umlActor;verticalLabelPosition=bottom;verticalAlign=top;html=1;outlineConnect=0;" parent="1" vertex="1">
                    <mxGeometry x="640" y="250" width="30" height="60" as="geometry"/>
                </mxCell>
                <mxCell id="0tjZnTirtEJvISteG7uV-16" style="edgeStyle=orthogonalEdgeStyle;rounded=0;orthogonalLoop=1;jettySize=auto;html=1;exitX=0.5;exitY=1;exitDx=0;exitDy=0;entryX=0.5;entryY=0;entryDx=0;entryDy=0;entryPerimeter=0;" parent="1" source="0tjZnTirtEJvISteG7uV-4" target="0tjZnTirtEJvISteG7uV-8" edge="1">
                    <mxGeometry relative="1" as="geometry"/>
                </mxCell>
                <mxCell id="muD_Ug5KTFGlHooU9dLW-1" value="&lt;div style=&quot;text-align: left;&quot;&gt;&lt;b style=&quot;background-color: initial;&quot;&gt;&amp;nbsp; &amp;nbsp; &amp;nbsp; &amp;nbsp; &amp;nbsp; &amp;nbsp; &amp;nbsp; &amp;nbsp; &amp;nbsp; &amp;nbsp; &amp;nbsp; &amp;nbsp; &amp;nbsp; AI ANALYSIS PIPELINE&lt;/b&gt;&lt;/div&gt;&lt;div&gt;&lt;ul&gt;&lt;li style=&quot;text-align: left;&quot;&gt;Take Normalized AI Candidate Exam Data&lt;/li&gt;&lt;li style=&quot;text-align: left;&quot;&gt;Create embeddings for the candidate answer&lt;/li&gt;&lt;li style=&quot;text-align: left;&quot;&gt;Send query to indexer&lt;/li&gt;&lt;li style=&quot;text-align: left;&quot;&gt;indexer returns ranked similarity responses&lt;/li&gt;&lt;ul&gt;&lt;li style=&quot;text-align: left;&quot;&gt;Response:&lt;/li&gt;&lt;li style=&quot;text-align: left;&quot;&gt;Similarity / Accuracy: 90%&lt;/li&gt;&lt;/ul&gt;&lt;/ul&gt;&lt;div style=&quot;text-align: left;&quot;&gt;&lt;br&gt;&lt;/div&gt;&lt;/div&gt;" style="shape=process;whiteSpace=wrap;html=1;backgroundOutline=1;verticalAlign=top;align=center;" parent="1" vertex="1">
                    <mxGeometry x="50" y="250" width="360" height="280" as="geometry"/>
                </mxCell>
                <mxCell id="muD_Ug5KTFGlHooU9dLW-3" style="edgeStyle=orthogonalEdgeStyle;rounded=0;orthogonalLoop=1;jettySize=auto;html=1;entryX=0.5;entryY=0;entryDx=0;entryDy=0;" parent="1" source="RW081cyx6c7tKIx5Bm8l-1" target="0tjZnTirtEJvISteG7uV-2" edge="1">
                    <mxGeometry relative="1" as="geometry">
                        <mxPoint x="1250" y="680" as="targetPoint"/>
                    </mxGeometry>
                </mxCell>
                <mxCell id="tm6qg2HBaLtCG7ACH0hl-6" style="edgeStyle=orthogonalEdgeStyle;rounded=0;orthogonalLoop=1;jettySize=auto;html=1;entryX=0;entryY=0.5;entryDx=0;entryDy=0;" parent="1" source="muD_Ug5KTFGlHooU9dLW-6" target="tm6qg2HBaLtCG7ACH0hl-3" edge="1">
                    <mxGeometry relative="1" as="geometry"/>
                </mxCell>
                <mxCell id="muD_Ug5KTFGlHooU9dLW-6" value="pull question data from db" style="rounded=0;whiteSpace=wrap;html=1;" parent="1" vertex="1">
                    <mxGeometry x="1140" y="790" width="120" height="60" as="geometry"/>
                </mxCell>
                <mxCell id="muD_Ug5KTFGlHooU9dLW-8" value="&lt;b style=&quot;font-size: 14px;&quot;&gt;AI Normalized Candidate Exam Data&lt;/b&gt;" style="shape=cylinder3;whiteSpace=wrap;html=1;boundedLbl=1;backgroundOutline=1;size=15;strokeColor=default;align=center;verticalAlign=middle;fontFamily=Helvetica;fontSize=12;fontColor=default;fillColor=default;" parent="1" vertex="1">
                    <mxGeometry x="1170" y="1460" width="120" height="130" as="geometry"/>
                </mxCell>
                <mxCell id="muD_Ug5KTFGlHooU9dLW-9" style="edgeStyle=orthogonalEdgeStyle;rounded=0;orthogonalLoop=1;jettySize=auto;html=1;entryX=0.5;entryY=0;entryDx=0;entryDy=0;" parent="1" source="muD_Ug5KTFGlHooU9dLW-10" target="muD_Ug5KTFGlHooU9dLW-13" edge="1">
                    <mxGeometry relative="1" as="geometry"/>
                </mxCell>
                <mxCell id="muD_Ug5KTFGlHooU9dLW-10" value="Data Retrieval&amp;nbsp;" style="rounded=0;whiteSpace=wrap;html=1;" parent="1" vertex="1">
                    <mxGeometry x="1170" y="1650" width="120" height="60" as="geometry"/>
                </mxCell>
                <mxCell id="muD_Ug5KTFGlHooU9dLW-11" style="edgeStyle=orthogonalEdgeStyle;rounded=0;orthogonalLoop=1;jettySize=auto;html=1;entryX=0.5;entryY=0;entryDx=0;entryDy=0;" parent="1" source="muD_Ug5KTFGlHooU9dLW-8" target="muD_Ug5KTFGlHooU9dLW-10" edge="1">
                    <mxGeometry relative="1" as="geometry">
                        <mxPoint x="1280" y="1680" as="targetPoint"/>
                    </mxGeometry>
                </mxCell>
                <mxCell id="muD_Ug5KTFGlHooU9dLW-12" style="edgeStyle=orthogonalEdgeStyle;rounded=0;orthogonalLoop=1;jettySize=auto;html=1;exitX=0.5;exitY=1;exitDx=0;exitDy=0;entryX=0.5;entryY=0;entryDx=0;entryDy=0;" parent="1" source="muD_Ug5KTFGlHooU9dLW-13" target="muD_Ug5KTFGlHooU9dLW-14" edge="1">
                    <mxGeometry relative="1" as="geometry"/>
                </mxCell>
                <mxCell id="muD_Ug5KTFGlHooU9dLW-13" value="Apply Embedding Model" style="rounded=0;whiteSpace=wrap;html=1;" parent="1" vertex="1">
                    <mxGeometry x="1170" y="1750" width="120" height="60" as="geometry"/>
                </mxCell>
                <mxCell id="e6j-1HoQsrWpwvJSjHso-6" style="edgeStyle=orthogonalEdgeStyle;rounded=0;orthogonalLoop=1;jettySize=auto;html=1;entryX=0;entryY=0.5;entryDx=0;entryDy=0;" parent="1" source="muD_Ug5KTFGlHooU9dLW-14" target="e6j-1HoQsrWpwvJSjHso-5" edge="1">
                    <mxGeometry relative="1" as="geometry"/>
                </mxCell>
                <mxCell id="muD_Ug5KTFGlHooU9dLW-14" value="query vector db&lt;br&gt;&lt;b&gt;Apply Filtering&lt;br&gt;Ranking&lt;br&gt;&lt;/b&gt;" style="rounded=0;whiteSpace=wrap;html=1;" parent="1" vertex="1">
                    <mxGeometry x="1170" y="1850" width="120" height="60" as="geometry"/>
                </mxCell>
                <mxCell id="lGvvZeo0mcH_qj1Bu3mb-1" value="&lt;b&gt;Options&lt;/b&gt;:&lt;div&gt;&lt;span style=&quot;background-color: initial;&quot;&gt;1.)&amp;nbsp; No embeddings, no vector DB.&amp;nbsp; Pull AnswerKey data and Candidate Exam Answer - pass to LLM&lt;/span&gt;&lt;/div&gt;&lt;div&gt;&lt;br&gt;&lt;/div&gt;&lt;div&gt;2.)&amp;nbsp;&lt;span style=&quot;background-color: initial;&quot;&gt;Get embeddings for question1, apply embeddings to Candidate Exam Answer, LLM does comparison / similarity. Fetch content comes after.&lt;/span&gt;&lt;/div&gt;&lt;div&gt;&lt;span style=&quot;background-color: initial;&quot;&gt;&lt;br&gt;&lt;/span&gt;&lt;/div&gt;&lt;div&gt;&lt;div style=&quot;border-color: var(--border-color);&quot;&gt;3.) Similarity query to vector db to find top &amp;lt;k&amp;gt; results,&lt;/div&gt;&lt;div style=&quot;border-color: var(--border-color);&quot;&gt;send prompt with raw content / question / candidate answer to LLM for evaluation&lt;/div&gt;&lt;/div&gt;" style="rounded=1;whiteSpace=wrap;html=1;fontSize=18;align=left;verticalAlign=top;arcSize=0;" parent="1" vertex="1">
                    <mxGeometry x="120" y="1150" width="500" height="330" as="geometry"/>
                </mxCell>
                <mxCell id="lGvvZeo0mcH_qj1Bu3mb-2" style="edgeStyle=orthogonalEdgeStyle;rounded=0;orthogonalLoop=1;jettySize=auto;html=1;exitX=0.5;exitY=1;exitDx=0;exitDy=0;entryX=0.5;entryY=0;entryDx=0;entryDy=0;" parent="1" source="lGvvZeo0mcH_qj1Bu3mb-3" target="HkC7Mc5X7X3p5CN1dlaK-15" edge="1">
                    <mxGeometry relative="1" as="geometry">
                        <mxPoint x="690" y="1720" as="targetPoint"/>
                    </mxGeometry>
                </mxCell>
                <mxCell id="lGvvZeo0mcH_qj1Bu3mb-3" value="Data Retrieval&amp;nbsp;" style="rounded=0;whiteSpace=wrap;html=1;" parent="1" vertex="1">
                    <mxGeometry x="800" y="1630" width="120" height="60" as="geometry"/>
                </mxCell>
                <mxCell id="lGvvZeo0mcH_qj1Bu3mb-4" style="edgeStyle=orthogonalEdgeStyle;rounded=0;orthogonalLoop=1;jettySize=auto;html=1;exitX=0.145;exitY=1;exitDx=0;exitDy=-4.35;exitPerimeter=0;entryX=1;entryY=0.5;entryDx=0;entryDy=0;startArrow=classic;startFill=1;endArrow=none;endFill=0;" parent="1" source="lGvvZeo0mcH_qj1Bu3mb-5" target="lGvvZeo0mcH_qj1Bu3mb-9" edge="1">
                    <mxGeometry relative="1" as="geometry">
                        <Array as="points">
                            <mxPoint x="980" y="2000"/>
                            <mxPoint x="920" y="2000"/>
                        </Array>
                    </mxGeometry>
                </mxCell>
                <mxCell id="HkC7Mc5X7X3p5CN1dlaK-8" style="edgeStyle=orthogonalEdgeStyle;rounded=0;orthogonalLoop=1;jettySize=auto;html=1;exitX=0.855;exitY=1;exitDx=0;exitDy=-4.35;exitPerimeter=0;entryX=0;entryY=0.5;entryDx=0;entryDy=0;" parent="1" source="lGvvZeo0mcH_qj1Bu3mb-5" target="muD_Ug5KTFGlHooU9dLW-14" edge="1">
                    <mxGeometry relative="1" as="geometry">
                        <Array as="points">
                            <mxPoint x="1060" y="1880"/>
                        </Array>
                    </mxGeometry>
                </mxCell>
                <mxCell id="lGvvZeo0mcH_qj1Bu3mb-5" value="&lt;b&gt;&lt;font style=&quot;font-size: 14px;&quot;&gt;ANSWER KEY / QUESTION DATABASE (VECTOR DB)&lt;/font&gt;&lt;/b&gt;&lt;div&gt;&lt;b&gt;&lt;font style=&quot;font-size: 14px;&quot;&gt;&lt;br&gt;&lt;/font&gt;&lt;/b&gt;&lt;/div&gt;" style="shape=cylinder3;whiteSpace=wrap;html=1;boundedLbl=1;backgroundOutline=1;size=15;" parent="1" vertex="1">
                    <mxGeometry x="960" y="1460" width="120" height="130" as="geometry"/>
                </mxCell>
                <mxCell id="lGvvZeo0mcH_qj1Bu3mb-6" style="edgeStyle=orthogonalEdgeStyle;rounded=0;orthogonalLoop=1;jettySize=auto;html=1;exitX=0.5;exitY=1;exitDx=0;exitDy=0;" parent="1" source="lGvvZeo0mcH_qj1Bu3mb-7" target="lGvvZeo0mcH_qj1Bu3mb-8" edge="1">
                    <mxGeometry relative="1" as="geometry"/>
                </mxCell>
                <mxCell id="lGvvZeo0mcH_qj1Bu3mb-7" value="Admin UI&lt;div&gt;(Modify Questions&lt;/div&gt;&lt;div&gt;&amp;amp; Answers, etc.)&lt;/div&gt;" style="rounded=0;whiteSpace=wrap;html=1;" parent="1" vertex="1">
                    <mxGeometry x="800" y="1240" width="120" height="60" as="geometry"/>
                </mxCell>
                <mxCell id="lGvvZeo0mcH_qj1Bu3mb-8" value="QUESTION MANAGEMENT SERVICE&lt;div&gt;(Update/Modify/etc.)&lt;/div&gt;" style="rounded=0;whiteSpace=wrap;html=1;" parent="1" vertex="1">
                    <mxGeometry x="800" y="1360" width="120" height="60" as="geometry"/>
                </mxCell>
                <mxCell id="lGvvZeo0mcH_qj1Bu3mb-9" value="Add / Upsert / Delete data to VectorDB" style="rounded=0;whiteSpace=wrap;html=1;" parent="1" vertex="1">
                    <mxGeometry x="800" y="1980" width="120" height="60" as="geometry"/>
                </mxCell>
                <mxCell id="lGvvZeo0mcH_qj1Bu3mb-10" style="edgeStyle=orthogonalEdgeStyle;rounded=0;orthogonalLoop=1;jettySize=auto;html=1;exitX=0.5;exitY=1;exitDx=0;exitDy=0;entryX=0.5;entryY=0;entryDx=0;entryDy=0;" parent="1" source="lGvvZeo0mcH_qj1Bu3mb-11" target="lGvvZeo0mcH_qj1Bu3mb-9" edge="1">
                    <mxGeometry relative="1" as="geometry"/>
                </mxCell>
                <mxCell id="KaorW1IGcZPYwbK9dUcE-1" value="" style="edgeStyle=orthogonalEdgeStyle;rounded=0;orthogonalLoop=1;jettySize=auto;html=1;startArrow=classic;startFill=1;endArrow=none;endFill=0;" parent="1" source="lGvvZeo0mcH_qj1Bu3mb-11" target="lGvvZeo0mcH_qj1Bu3mb-13" edge="1">
                    <mxGeometry relative="1" as="geometry"/>
                </mxCell>
                <mxCell id="lGvvZeo0mcH_qj1Bu3mb-11" value="Index data" style="rounded=0;whiteSpace=wrap;html=1;" parent="1" vertex="1">
                    <mxGeometry x="800" y="1900" width="120" height="60" as="geometry"/>
                </mxCell>
                <mxCell id="lGvvZeo0mcH_qj1Bu3mb-13" value="Apply Embedding Model" style="rounded=0;whiteSpace=wrap;html=1;" parent="1" vertex="1">
                    <mxGeometry x="800" y="1810" width="120" height="60" as="geometry"/>
                </mxCell>
                <mxCell id="lGvvZeo0mcH_qj1Bu3mb-14" style="edgeStyle=orthogonalEdgeStyle;rounded=0;orthogonalLoop=1;jettySize=auto;html=1;exitX=0.5;exitY=1;exitDx=0;exitDy=0;exitPerimeter=0;entryX=0.5;entryY=0;entryDx=0;entryDy=0;" parent="1" source="lGvvZeo0mcH_qj1Bu3mb-15" target="lGvvZeo0mcH_qj1Bu3mb-3" edge="1">
                    <mxGeometry relative="1" as="geometry"/>
                </mxCell>
                <mxCell id="lGvvZeo0mcH_qj1Bu3mb-15" value="&lt;b&gt;&lt;font style=&quot;font-size: 14px;&quot;&gt;RAW ANSWER KEY / QUESTION DATABASE&amp;nbsp;&lt;/font&gt;&lt;/b&gt;&lt;div&gt;&lt;b&gt;&lt;font style=&quot;font-size: 14px;&quot;&gt;(Data Store, unspecified)&lt;/font&gt;&lt;/b&gt;&lt;div&gt;&lt;b&gt;&lt;font style=&quot;font-size: 14px;&quot;&gt;&lt;br&gt;&lt;/font&gt;&lt;/b&gt;&lt;/div&gt;&lt;/div&gt;" style="shape=cylinder3;whiteSpace=wrap;html=1;boundedLbl=1;backgroundOutline=1;size=15;strokeColor=default;align=center;verticalAlign=middle;fontFamily=Helvetica;fontSize=12;fontColor=default;fillColor=default;" parent="1" vertex="1">
                    <mxGeometry x="800" y="1460" width="120" height="130" as="geometry"/>
                </mxCell>
                <mxCell id="lGvvZeo0mcH_qj1Bu3mb-16" style="edgeStyle=orthogonalEdgeStyle;rounded=0;orthogonalLoop=1;jettySize=auto;html=1;entryX=0;entryY=0.5;entryDx=0;entryDy=0;" parent="1" source="lGvvZeo0mcH_qj1Bu3mb-17" target="lGvvZeo0mcH_qj1Bu3mb-7" edge="1">
                    <mxGeometry relative="1" as="geometry"/>
                </mxCell>
                <mxCell id="lGvvZeo0mcH_qj1Bu3mb-17" value="ADMIN" style="shape=umlActor;verticalLabelPosition=bottom;verticalAlign=top;html=1;outlineConnect=0;" parent="1" vertex="1">
                    <mxGeometry x="690" y="1240" width="30" height="60" as="geometry"/>
                </mxCell>
                <mxCell id="lGvvZeo0mcH_qj1Bu3mb-18" style="edgeStyle=orthogonalEdgeStyle;rounded=0;orthogonalLoop=1;jettySize=auto;html=1;exitX=0.5;exitY=1;exitDx=0;exitDy=0;entryX=0.5;entryY=0;entryDx=0;entryDy=0;entryPerimeter=0;" parent="1" source="lGvvZeo0mcH_qj1Bu3mb-8" target="lGvvZeo0mcH_qj1Bu3mb-15" edge="1">
                    <mxGeometry relative="1" as="geometry"/>
                </mxCell>
                <mxCell id="lGvvZeo0mcH_qj1Bu3mb-19" value="&lt;b&gt;Option&lt;/b&gt;:&amp;nbsp;&amp;nbsp;&lt;span style=&quot;background-color: initial;&quot;&gt;1.)&amp;nbsp; Do not apply Embeddings to Candidate Exams, simply pull data from Vector DB to pass to LLM&lt;/span&gt;&lt;div&gt;&lt;br&gt;&lt;/div&gt;" style="rounded=1;whiteSpace=wrap;html=1;fontSize=18;align=left;verticalAlign=top;arcSize=0;" parent="1" vertex="1">
                    <mxGeometry x="630" y="130" width="500" height="80" as="geometry"/>
                </mxCell>
                <mxCell id="lGvvZeo0mcH_qj1Bu3mb-20" value="&lt;b&gt;Option&lt;/b&gt;:&amp;nbsp;&lt;span style=&quot;background-color: initial;&quot;&gt;2&lt;/span&gt;" style="rounded=1;whiteSpace=wrap;html=1;fontSize=18;align=left;verticalAlign=top;arcSize=0;" parent="1" vertex="1">
                    <mxGeometry x="740" y="1120" width="500" height="80" as="geometry"/>
                </mxCell>
                <mxCell id="tm6qg2HBaLtCG7ACH0hl-1" value="&lt;b&gt;LLM PROCESSING&lt;/b&gt;&lt;div&gt;&lt;b&gt;&lt;br&gt;&lt;/b&gt;&lt;/div&gt;&lt;div&gt;&lt;ul&gt;&lt;li style=&quot;text-align: left;&quot;&gt;Take indexer response&amp;nbsp;&lt;/li&gt;&lt;li style=&quot;text-align: left;&quot;&gt;Send prompt and response to LLM to create human readable answer&lt;/li&gt;&lt;ul&gt;&lt;li style=&quot;text-align: left;&quot;&gt;PROMPT:&lt;/li&gt;&lt;li style=&quot;text-align: left;&quot;&gt;Using &amp;lt;questionID, Associated Concepts, Grading Criteria, Acceptable Answers, etc.&amp;gt;&lt;/li&gt;&lt;li style=&quot;text-align: left;&quot;&gt;Given the candidates &amp;lt;answer&amp;gt;, provide feedback on accuracy, correctness, and understanding of their answer to the &amp;lt;questionID&amp;gt;.&lt;/li&gt;&lt;/ul&gt;&lt;li style=&quot;text-align: left;&quot;&gt;Save answer to AI Graded Database for review by an expert&lt;/li&gt;&lt;/ul&gt;&lt;/div&gt;" style="shape=process;whiteSpace=wrap;html=1;backgroundOutline=1;verticalAlign=top;align=center;" parent="1" vertex="1">
                    <mxGeometry x="50" y="540" width="360" height="280" as="geometry"/>
                </mxCell>
                <mxCell id="tm6qg2HBaLtCG7ACH0hl-7" style="edgeStyle=orthogonalEdgeStyle;rounded=0;orthogonalLoop=1;jettySize=auto;html=1;entryX=0;entryY=0.5;entryDx=0;entryDy=0;" parent="1" source="tm6qg2HBaLtCG7ACH0hl-3" target="tm6qg2HBaLtCG7ACH0hl-5" edge="1">
                    <mxGeometry relative="1" as="geometry"/>
                </mxCell>
                <mxCell id="tm6qg2HBaLtCG7ACH0hl-3" value="&lt;div&gt;&lt;br&gt;&lt;/div&gt;&lt;div&gt;LLM Prompting (&lt;/div&gt;question that was asked&lt;br&gt;Candidate Exam answer + Acceptable Answer Data&amp;nbsp;&lt;div&gt;)&lt;/div&gt;" style="rounded=0;whiteSpace=wrap;html=1;" parent="1" vertex="1">
                    <mxGeometry x="1330" y="770" width="160" height="100" as="geometry"/>
                </mxCell>
                <mxCell id="tm6qg2HBaLtCG7ACH0hl-4" value="Normalize LLM response data and store to db" style="rounded=0;whiteSpace=wrap;html=1;" parent="1" vertex="1">
                    <mxGeometry x="1730" y="790" width="120" height="60" as="geometry"/>
                </mxCell>
                <mxCell id="-2EClnyrfUiAtAgwtBaj-1" style="edgeStyle=orthogonalEdgeStyle;rounded=0;orthogonalLoop=1;jettySize=auto;html=1;entryX=0;entryY=0.5;entryDx=0;entryDy=0;" parent="1" source="tm6qg2HBaLtCG7ACH0hl-5" target="tm6qg2HBaLtCG7ACH0hl-4" edge="1">
                    <mxGeometry relative="1" as="geometry"/>
                </mxCell>
                <mxCell id="tm6qg2HBaLtCG7ACH0hl-5" value="LLM Processing" style="rounded=0;whiteSpace=wrap;html=1;" parent="1" vertex="1">
                    <mxGeometry x="1550" y="790" width="120" height="60" as="geometry"/>
                </mxCell>
                <mxCell id="2YZ5MHwzRFpqTepZqCJX-1" value="&lt;b&gt;&lt;font style=&quot;font-size: 14px;&quot;&gt;AI GRADED CANDIDATE DATABASE&lt;/font&gt;&lt;/b&gt;&lt;div&gt;&lt;b&gt;&lt;font style=&quot;font-size: 14px;&quot;&gt;&lt;br&gt;&lt;/font&gt;&lt;/b&gt;&lt;/div&gt;&lt;div&gt;&lt;b&gt;&lt;font style=&quot;font-size: 14px;&quot;&gt;&lt;br&gt;&lt;/font&gt;&lt;/b&gt;&lt;/div&gt;" style="shape=cylinder3;whiteSpace=wrap;html=1;boundedLbl=1;backgroundOutline=1;size=15;strokeColor=default;align=center;verticalAlign=middle;fontFamily=Helvetica;fontSize=12;fontColor=default;fillColor=default;" parent="1" vertex="1">
                    <mxGeometry x="1730" y="480" width="120" height="130" as="geometry"/>
                </mxCell>
                <mxCell id="-2EClnyrfUiAtAgwtBaj-2" style="edgeStyle=orthogonalEdgeStyle;rounded=0;orthogonalLoop=1;jettySize=auto;html=1;entryX=0.5;entryY=1;entryDx=0;entryDy=0;entryPerimeter=0;" parent="1" source="tm6qg2HBaLtCG7ACH0hl-4" target="2YZ5MHwzRFpqTepZqCJX-1" edge="1">
                    <mxGeometry relative="1" as="geometry"/>
                </mxCell>
                <mxCell id="e6j-1HoQsrWpwvJSjHso-9" style="edgeStyle=orthogonalEdgeStyle;rounded=0;orthogonalLoop=1;jettySize=auto;html=1;" parent="1" source="HkC7Mc5X7X3p5CN1dlaK-2" target="HkC7Mc5X7X3p5CN1dlaK-5" edge="1">
                    <mxGeometry relative="1" as="geometry"/>
                </mxCell>
                <mxCell id="HkC7Mc5X7X3p5CN1dlaK-2" value="&lt;div&gt;&lt;br&gt;&lt;/div&gt;&lt;div&gt;&lt;span style=&quot;text-align: left; background-color: initial;&quot;&gt;Prompt Orchestrator&lt;/span&gt;&lt;/div&gt;" style="rounded=0;whiteSpace=wrap;html=1;" parent="1" vertex="1">
                    <mxGeometry x="1510" y="1805" width="160" height="150" as="geometry"/>
                </mxCell>
                <mxCell id="HkC7Mc5X7X3p5CN1dlaK-3" value="Normalize LLM response data and store to db&lt;br&gt;&lt;b&gt;Response Filter&lt;/b&gt;" style="rounded=0;whiteSpace=wrap;html=1;" parent="1" vertex="1">
                    <mxGeometry x="2020" y="1845" width="170" height="60" as="geometry"/>
                </mxCell>
                <mxCell id="HkC7Mc5X7X3p5CN1dlaK-4" style="edgeStyle=orthogonalEdgeStyle;rounded=0;orthogonalLoop=1;jettySize=auto;html=1;entryX=0;entryY=0.5;entryDx=0;entryDy=0;" parent="1" source="HkC7Mc5X7X3p5CN1dlaK-5" target="HkC7Mc5X7X3p5CN1dlaK-3" edge="1">
                    <mxGeometry relative="1" as="geometry"/>
                </mxCell>
                <mxCell id="e6j-1HoQsrWpwvJSjHso-10" style="edgeStyle=orthogonalEdgeStyle;rounded=0;orthogonalLoop=1;jettySize=auto;html=1;entryX=1;entryY=0.75;entryDx=0;entryDy=0;" parent="1" source="HkC7Mc5X7X3p5CN1dlaK-5" target="HkC7Mc5X7X3p5CN1dlaK-2" edge="1">
                    <mxGeometry relative="1" as="geometry">
                        <Array as="points">
                            <mxPoint x="1690" y="1918"/>
                        </Array>
                    </mxGeometry>
                </mxCell>
                <mxCell id="HkC7Mc5X7X3p5CN1dlaK-5" value="LLM Processing&lt;br&gt;Provide the following:&lt;br&gt;&lt;ul&gt;&lt;li style=&quot;text-align: left;&quot;&gt;How well does the candidate answer match the Answers from Answers Key?&lt;/li&gt;&lt;li style=&quot;text-align: left;&quot;&gt;Areas of improvement&lt;/li&gt;&lt;ul&gt;&lt;li style=&quot;text-align: left;&quot;&gt;Suggested content&lt;/li&gt;&lt;/ul&gt;&lt;/ul&gt;" style="rounded=0;whiteSpace=wrap;html=1;" parent="1" vertex="1">
                    <mxGeometry x="1710" y="1800" width="280" height="150" as="geometry"/>
                </mxCell>
                <mxCell id="HkC7Mc5X7X3p5CN1dlaK-6" value="&lt;b&gt;&lt;font style=&quot;font-size: 14px;&quot;&gt;AI GRADED CANDIDATE DATABASE&lt;/font&gt;&lt;/b&gt;&lt;div&gt;&lt;b&gt;&lt;font style=&quot;font-size: 14px;&quot;&gt;&lt;br&gt;&lt;/font&gt;&lt;/b&gt;&lt;/div&gt;&lt;div&gt;&lt;b&gt;&lt;font style=&quot;font-size: 14px;&quot;&gt;&lt;br&gt;&lt;/font&gt;&lt;/b&gt;&lt;/div&gt;" style="shape=cylinder3;whiteSpace=wrap;html=1;boundedLbl=1;backgroundOutline=1;size=15;strokeColor=default;align=center;verticalAlign=middle;fontFamily=Helvetica;fontSize=12;fontColor=default;fillColor=default;" parent="1" vertex="1">
                    <mxGeometry x="2045" y="1530" width="120" height="130" as="geometry"/>
                </mxCell>
                <mxCell id="HkC7Mc5X7X3p5CN1dlaK-7" style="edgeStyle=orthogonalEdgeStyle;rounded=0;orthogonalLoop=1;jettySize=auto;html=1;entryX=0.5;entryY=1;entryDx=0;entryDy=0;entryPerimeter=0;" parent="1" source="HkC7Mc5X7X3p5CN1dlaK-3" target="HkC7Mc5X7X3p5CN1dlaK-6" edge="1">
                    <mxGeometry relative="1" as="geometry"/>
                </mxCell>
                <mxCell id="HkC7Mc5X7X3p5CN1dlaK-16" style="edgeStyle=orthogonalEdgeStyle;rounded=0;orthogonalLoop=1;jettySize=auto;html=1;entryX=0.5;entryY=0;entryDx=0;entryDy=0;" parent="1" source="HkC7Mc5X7X3p5CN1dlaK-15" target="lGvvZeo0mcH_qj1Bu3mb-13" edge="1">
                    <mxGeometry relative="1" as="geometry"/>
                </mxCell>
                <mxCell id="HkC7Mc5X7X3p5CN1dlaK-15" value="Chunk data&amp;nbsp;&lt;div&gt;(if needed)&lt;/div&gt;" style="rounded=0;whiteSpace=wrap;html=1;" parent="1" vertex="1">
                    <mxGeometry x="800" y="1720" width="120" height="60" as="geometry"/>
                </mxCell>
                <mxCell id="7ymmeGiWS2FybJr41jOW-1" value="&lt;b&gt;QuestionID: question1&lt;/b&gt;&lt;div&gt;&lt;b&gt;VERSION 1&lt;/b&gt;&lt;div&gt;How does RAG AI work?&lt;/div&gt;&lt;div&gt;&lt;span style=&quot;background-color: initial;&quot;&gt;DateAdded: 02/02/1990&lt;/span&gt;&lt;br&gt;&lt;/div&gt;&lt;div&gt;Grading Criteria / Rubric:&lt;/div&gt;&lt;div&gt;Associated Conepts:&amp;nbsp; LLM, RAG, AI, etc&lt;/div&gt;&lt;div&gt;Accepted Solution Information:&amp;nbsp; &amp;lt;good answers&amp;gt;&lt;/div&gt;&lt;div&gt;Metadata: Question #, Version#, Day added, Associated Concepts&lt;/div&gt;&lt;div&gt;Embedding: [12034912, 120349120934, 1041023491, etc...]&lt;/div&gt;&lt;div&gt;&lt;br&gt;&lt;/div&gt;&lt;/div&gt;&lt;div&gt;&lt;br&gt;&lt;/div&gt;" style="rounded=0;whiteSpace=wrap;html=1;align=left;horizontal=1;verticalAlign=top;" parent="1" vertex="1">
                    <mxGeometry x="490" y="1660" width="280" height="190" as="geometry"/>
                </mxCell>
                <mxCell id="e6j-1HoQsrWpwvJSjHso-1" value="&lt;ul&gt;&lt;li&gt;&lt;font style=&quot;font-size: 17px;&quot;&gt;Feedback&lt;/font&gt;&lt;/li&gt;&lt;ul&gt;&lt;li&gt;&lt;span style=&quot;font-size: 17px;&quot;&gt;Too many tokens needed for LLM&lt;/span&gt;&lt;/li&gt;&lt;li&gt;&lt;span style=&quot;font-size: 17px;&quot;&gt;Not leveraging Semantic/Similarity/Chunking on the DB&lt;/span&gt;&lt;/li&gt;&lt;/ul&gt;&lt;/ul&gt;" style="text;html=1;strokeColor=default;fillColor=none;align=left;verticalAlign=middle;whiteSpace=wrap;rounded=0;strokeWidth=1;" parent="1" vertex="1">
                    <mxGeometry x="1110" y="230" width="600" height="210" as="geometry"/>
                </mxCell>
                <mxCell id="e6j-1HoQsrWpwvJSjHso-7" style="edgeStyle=orthogonalEdgeStyle;rounded=0;orthogonalLoop=1;jettySize=auto;html=1;" parent="1" source="e6j-1HoQsrWpwvJSjHso-5" target="HkC7Mc5X7X3p5CN1dlaK-2" edge="1">
                    <mxGeometry relative="1" as="geometry"/>
                </mxCell>
                <mxCell id="e6j-1HoQsrWpwvJSjHso-5" value="&lt;b&gt;Prompt&lt;br&gt;Validation&lt;br&gt;&lt;/b&gt;" style="rounded=0;whiteSpace=wrap;html=1;" parent="1" vertex="1">
                    <mxGeometry x="1340" y="1850" width="120" height="60" as="geometry"/>
                </mxCell>
                <mxCell id="e6j-1HoQsrWpwvJSjHso-11" value="&lt;b&gt;Option&lt;/b&gt;:&amp;nbsp;&amp;nbsp;&lt;span style=&quot;background-color: initial;&quot;&gt;3). Drawing NOT accurate&lt;/span&gt;&lt;div&gt;&lt;br&gt;&lt;/div&gt;" style="rounded=1;whiteSpace=wrap;html=1;fontSize=18;align=left;verticalAlign=top;arcSize=0;" parent="1" vertex="1">
                    <mxGeometry x="1220" y="2320" width="500" height="80" as="geometry"/>
                </mxCell>
                <mxCell id="e6j-1HoQsrWpwvJSjHso-12" value="&lt;b style=&quot;font-size: 14px;&quot;&gt;AI Normalized Candidate Exam Data&lt;/b&gt;" style="shape=cylinder3;whiteSpace=wrap;html=1;boundedLbl=1;backgroundOutline=1;size=15;strokeColor=default;align=center;verticalAlign=middle;fontFamily=Helvetica;fontSize=12;fontColor=default;fillColor=default;" parent="1" vertex="1">
                    <mxGeometry x="1310" y="2540" width="120" height="130" as="geometry"/>
                </mxCell>
                <mxCell id="e6j-1HoQsrWpwvJSjHso-13" style="edgeStyle=orthogonalEdgeStyle;rounded=0;orthogonalLoop=1;jettySize=auto;html=1;entryX=0.5;entryY=0;entryDx=0;entryDy=0;" parent="1" source="e6j-1HoQsrWpwvJSjHso-14" target="e6j-1HoQsrWpwvJSjHso-17" edge="1">
                    <mxGeometry relative="1" as="geometry"/>
                </mxCell>
                <mxCell id="e6j-1HoQsrWpwvJSjHso-14" value="Data Retrieval&amp;nbsp;" style="rounded=0;whiteSpace=wrap;html=1;" parent="1" vertex="1">
                    <mxGeometry x="1310" y="2730" width="120" height="60" as="geometry"/>
                </mxCell>
                <mxCell id="e6j-1HoQsrWpwvJSjHso-15" style="edgeStyle=orthogonalEdgeStyle;rounded=0;orthogonalLoop=1;jettySize=auto;html=1;entryX=0.5;entryY=0;entryDx=0;entryDy=0;" parent="1" source="e6j-1HoQsrWpwvJSjHso-12" target="e6j-1HoQsrWpwvJSjHso-14" edge="1">
                    <mxGeometry relative="1" as="geometry">
                        <mxPoint x="1420" y="2760" as="targetPoint"/>
                    </mxGeometry>
                </mxCell>
                <mxCell id="e6j-1HoQsrWpwvJSjHso-16" style="edgeStyle=orthogonalEdgeStyle;rounded=0;orthogonalLoop=1;jettySize=auto;html=1;exitX=0.5;exitY=1;exitDx=0;exitDy=0;entryX=0.5;entryY=0;entryDx=0;entryDy=0;" parent="1" source="e6j-1HoQsrWpwvJSjHso-17" target="e6j-1HoQsrWpwvJSjHso-19" edge="1">
                    <mxGeometry relative="1" as="geometry"/>
                </mxCell>
                <mxCell id="e6j-1HoQsrWpwvJSjHso-17" value="Apply Embedding Model" style="rounded=0;whiteSpace=wrap;html=1;" parent="1" vertex="1">
                    <mxGeometry x="1310" y="2830" width="120" height="60" as="geometry"/>
                </mxCell>
                <mxCell id="e6j-1HoQsrWpwvJSjHso-18" style="edgeStyle=orthogonalEdgeStyle;rounded=0;orthogonalLoop=1;jettySize=auto;html=1;entryX=0;entryY=0.5;entryDx=0;entryDy=0;" parent="1" source="e6j-1HoQsrWpwvJSjHso-19" target="e6j-1HoQsrWpwvJSjHso-50" edge="1">
                    <mxGeometry relative="1" as="geometry"/>
                </mxCell>
                <mxCell id="e6j-1HoQsrWpwvJSjHso-19" value="query vector db&lt;br&gt;&lt;b&gt;Apply Filtering&lt;br&gt;Ranking&lt;br&gt;&lt;/b&gt;" style="rounded=0;whiteSpace=wrap;html=1;" parent="1" vertex="1">
                    <mxGeometry x="1310" y="2930" width="120" height="60" as="geometry"/>
                </mxCell>
                <mxCell id="e6j-1HoQsrWpwvJSjHso-20" style="edgeStyle=orthogonalEdgeStyle;rounded=0;orthogonalLoop=1;jettySize=auto;html=1;exitX=0.5;exitY=1;exitDx=0;exitDy=0;entryX=0.5;entryY=0;entryDx=0;entryDy=0;" parent="1" source="e6j-1HoQsrWpwvJSjHso-21" target="e6j-1HoQsrWpwvJSjHso-47" edge="1">
                    <mxGeometry relative="1" as="geometry">
                        <mxPoint x="830" y="2800" as="targetPoint"/>
                    </mxGeometry>
                </mxCell>
                <mxCell id="e6j-1HoQsrWpwvJSjHso-21" value="Data Retrieval&amp;nbsp;" style="rounded=0;whiteSpace=wrap;html=1;" parent="1" vertex="1">
                    <mxGeometry x="940" y="2710" width="120" height="60" as="geometry"/>
                </mxCell>
                <mxCell id="e6j-1HoQsrWpwvJSjHso-22" style="edgeStyle=orthogonalEdgeStyle;rounded=0;orthogonalLoop=1;jettySize=auto;html=1;exitX=0.145;exitY=1;exitDx=0;exitDy=-4.35;exitPerimeter=0;entryX=1;entryY=0.5;entryDx=0;entryDy=0;startArrow=classic;startFill=1;endArrow=none;endFill=0;" parent="1" source="e6j-1HoQsrWpwvJSjHso-24" target="e6j-1HoQsrWpwvJSjHso-28" edge="1">
                    <mxGeometry relative="1" as="geometry">
                        <Array as="points">
                            <mxPoint x="1120" y="3080"/>
                            <mxPoint x="1060" y="3080"/>
                        </Array>
                    </mxGeometry>
                </mxCell>
                <mxCell id="e6j-1HoQsrWpwvJSjHso-23" style="edgeStyle=orthogonalEdgeStyle;rounded=0;orthogonalLoop=1;jettySize=auto;html=1;exitX=0.855;exitY=1;exitDx=0;exitDy=-4.35;exitPerimeter=0;entryX=0;entryY=0.5;entryDx=0;entryDy=0;" parent="1" source="e6j-1HoQsrWpwvJSjHso-24" target="e6j-1HoQsrWpwvJSjHso-19" edge="1">
                    <mxGeometry relative="1" as="geometry">
                        <Array as="points">
                            <mxPoint x="1200" y="2960"/>
                        </Array>
                    </mxGeometry>
                </mxCell>
                <mxCell id="e6j-1HoQsrWpwvJSjHso-24" value="&lt;b&gt;&lt;font style=&quot;font-size: 14px;&quot;&gt;ANSWER KEY / QUESTION DATABASE (VECTOR DB)&lt;/font&gt;&lt;/b&gt;&lt;div&gt;&lt;b&gt;&lt;font style=&quot;font-size: 14px;&quot;&gt;&lt;br&gt;&lt;/font&gt;&lt;/b&gt;&lt;/div&gt;" style="shape=cylinder3;whiteSpace=wrap;html=1;boundedLbl=1;backgroundOutline=1;size=15;" parent="1" vertex="1">
                    <mxGeometry x="1100" y="2540" width="120" height="130" as="geometry"/>
                </mxCell>
                <mxCell id="e6j-1HoQsrWpwvJSjHso-25" style="edgeStyle=orthogonalEdgeStyle;rounded=0;orthogonalLoop=1;jettySize=auto;html=1;exitX=0.5;exitY=1;exitDx=0;exitDy=0;" parent="1" source="e6j-1HoQsrWpwvJSjHso-26" target="e6j-1HoQsrWpwvJSjHso-27" edge="1">
                    <mxGeometry relative="1" as="geometry"/>
                </mxCell>
                <mxCell id="e6j-1HoQsrWpwvJSjHso-26" value="Admin UI&lt;div&gt;(Modify Questions&lt;/div&gt;&lt;div&gt;&amp;amp; Answers, etc.)&lt;/div&gt;" style="rounded=0;whiteSpace=wrap;html=1;" parent="1" vertex="1">
                    <mxGeometry x="940" y="2320" width="120" height="60" as="geometry"/>
                </mxCell>
                <mxCell id="e6j-1HoQsrWpwvJSjHso-27" value="QUESTION MANAGEMENT SERVICE&lt;div&gt;(Update/Modify/etc.)&lt;/div&gt;" style="rounded=0;whiteSpace=wrap;html=1;" parent="1" vertex="1">
                    <mxGeometry x="940" y="2440" width="120" height="60" as="geometry"/>
                </mxCell>
                <mxCell id="e6j-1HoQsrWpwvJSjHso-28" value="Add / Upsert / Delete data to VectorDB" style="rounded=0;whiteSpace=wrap;html=1;" parent="1" vertex="1">
                    <mxGeometry x="940" y="3060" width="120" height="60" as="geometry"/>
                </mxCell>
                <mxCell id="e6j-1HoQsrWpwvJSjHso-29" style="edgeStyle=orthogonalEdgeStyle;rounded=0;orthogonalLoop=1;jettySize=auto;html=1;exitX=0.5;exitY=1;exitDx=0;exitDy=0;entryX=0.5;entryY=0;entryDx=0;entryDy=0;" parent="1" source="e6j-1HoQsrWpwvJSjHso-31" target="e6j-1HoQsrWpwvJSjHso-28" edge="1">
                    <mxGeometry relative="1" as="geometry"/>
                </mxCell>
                <mxCell id="e6j-1HoQsrWpwvJSjHso-30" value="" style="edgeStyle=orthogonalEdgeStyle;rounded=0;orthogonalLoop=1;jettySize=auto;html=1;startArrow=classic;startFill=1;endArrow=none;endFill=0;" parent="1" source="e6j-1HoQsrWpwvJSjHso-31" target="e6j-1HoQsrWpwvJSjHso-32" edge="1">
                    <mxGeometry relative="1" as="geometry"/>
                </mxCell>
                <mxCell id="e6j-1HoQsrWpwvJSjHso-31" value="Index data" style="rounded=0;whiteSpace=wrap;html=1;" parent="1" vertex="1">
                    <mxGeometry x="940" y="2980" width="120" height="60" as="geometry"/>
                </mxCell>
                <mxCell id="e6j-1HoQsrWpwvJSjHso-32" value="Apply Embedding Model" style="rounded=0;whiteSpace=wrap;html=1;" parent="1" vertex="1">
                    <mxGeometry x="940" y="2890" width="120" height="60" as="geometry"/>
                </mxCell>
                <mxCell id="e6j-1HoQsrWpwvJSjHso-33" style="edgeStyle=orthogonalEdgeStyle;rounded=0;orthogonalLoop=1;jettySize=auto;html=1;exitX=0.5;exitY=1;exitDx=0;exitDy=0;exitPerimeter=0;entryX=0.5;entryY=0;entryDx=0;entryDy=0;" parent="1" source="e6j-1HoQsrWpwvJSjHso-34" target="e6j-1HoQsrWpwvJSjHso-21" edge="1">
                    <mxGeometry relative="1" as="geometry"/>
                </mxCell>
                <mxCell id="e6j-1HoQsrWpwvJSjHso-34" value="&lt;b&gt;&lt;font style=&quot;font-size: 14px;&quot;&gt;RAW ANSWER KEY / QUESTION DATABASE&amp;nbsp;&lt;/font&gt;&lt;/b&gt;&lt;div&gt;&lt;b&gt;&lt;font style=&quot;font-size: 14px;&quot;&gt;(Data Store, unspecified)&lt;/font&gt;&lt;/b&gt;&lt;div&gt;&lt;b&gt;&lt;font style=&quot;font-size: 14px;&quot;&gt;&lt;br&gt;&lt;/font&gt;&lt;/b&gt;&lt;/div&gt;&lt;/div&gt;" style="shape=cylinder3;whiteSpace=wrap;html=1;boundedLbl=1;backgroundOutline=1;size=15;strokeColor=default;align=center;verticalAlign=middle;fontFamily=Helvetica;fontSize=12;fontColor=default;fillColor=default;" parent="1" vertex="1">
                    <mxGeometry x="940" y="2540" width="120" height="130" as="geometry"/>
                </mxCell>
                <mxCell id="e6j-1HoQsrWpwvJSjHso-35" style="edgeStyle=orthogonalEdgeStyle;rounded=0;orthogonalLoop=1;jettySize=auto;html=1;entryX=0;entryY=0.5;entryDx=0;entryDy=0;" parent="1" source="e6j-1HoQsrWpwvJSjHso-36" target="e6j-1HoQsrWpwvJSjHso-26" edge="1">
                    <mxGeometry relative="1" as="geometry"/>
                </mxCell>
                <mxCell id="e6j-1HoQsrWpwvJSjHso-36" value="ADMIN" style="shape=umlActor;verticalLabelPosition=bottom;verticalAlign=top;html=1;outlineConnect=0;" parent="1" vertex="1">
                    <mxGeometry x="830" y="2320" width="30" height="60" as="geometry"/>
                </mxCell>
                <mxCell id="e6j-1HoQsrWpwvJSjHso-37" style="edgeStyle=orthogonalEdgeStyle;rounded=0;orthogonalLoop=1;jettySize=auto;html=1;exitX=0.5;exitY=1;exitDx=0;exitDy=0;entryX=0.5;entryY=0;entryDx=0;entryDy=0;entryPerimeter=0;" parent="1" source="e6j-1HoQsrWpwvJSjHso-27" target="e6j-1HoQsrWpwvJSjHso-34" edge="1">
                    <mxGeometry relative="1" as="geometry"/>
                </mxCell>
                <mxCell id="e6j-1HoQsrWpwvJSjHso-38" style="edgeStyle=orthogonalEdgeStyle;rounded=0;orthogonalLoop=1;jettySize=auto;html=1;" parent="1" source="e6j-1HoQsrWpwvJSjHso-39" target="e6j-1HoQsrWpwvJSjHso-43" edge="1">
                    <mxGeometry relative="1" as="geometry"/>
                </mxCell>
                <mxCell id="e6j-1HoQsrWpwvJSjHso-39" value="&lt;div&gt;&lt;br&gt;&lt;/div&gt;&lt;div&gt;&lt;span style=&quot;text-align: left; background-color: initial;&quot;&gt;Prompt Orchestrator&lt;/span&gt;&lt;/div&gt;" style="rounded=0;whiteSpace=wrap;html=1;" parent="1" vertex="1">
                    <mxGeometry x="1650" y="2885" width="160" height="150" as="geometry"/>
                </mxCell>
                <mxCell id="e6j-1HoQsrWpwvJSjHso-40" value="Normalize LLM response data and store to db&lt;br&gt;&lt;b&gt;Response Filter&lt;/b&gt;" style="rounded=0;whiteSpace=wrap;html=1;" parent="1" vertex="1">
                    <mxGeometry x="2160" y="2925" width="170" height="60" as="geometry"/>
                </mxCell>
                <mxCell id="e6j-1HoQsrWpwvJSjHso-41" style="edgeStyle=orthogonalEdgeStyle;rounded=0;orthogonalLoop=1;jettySize=auto;html=1;entryX=0;entryY=0.5;entryDx=0;entryDy=0;" parent="1" source="e6j-1HoQsrWpwvJSjHso-43" target="e6j-1HoQsrWpwvJSjHso-40" edge="1">
                    <mxGeometry relative="1" as="geometry"/>
                </mxCell>
                <mxCell id="e6j-1HoQsrWpwvJSjHso-42" style="edgeStyle=orthogonalEdgeStyle;rounded=0;orthogonalLoop=1;jettySize=auto;html=1;entryX=1;entryY=0.75;entryDx=0;entryDy=0;" parent="1" source="e6j-1HoQsrWpwvJSjHso-43" target="e6j-1HoQsrWpwvJSjHso-39" edge="1">
                    <mxGeometry relative="1" as="geometry">
                        <Array as="points">
                            <mxPoint x="1830" y="2998"/>
                        </Array>
                    </mxGeometry>
                </mxCell>
                <mxCell id="e6j-1HoQsrWpwvJSjHso-43" value="LLM Processing&lt;br&gt;Provide the following:&lt;br&gt;&lt;ul&gt;&lt;li style=&quot;text-align: left;&quot;&gt;How well does the candidate answer match the Answers from Answers Key?&lt;/li&gt;&lt;li style=&quot;text-align: left;&quot;&gt;Areas of improvement&lt;/li&gt;&lt;ul&gt;&lt;li style=&quot;text-align: left;&quot;&gt;Suggested content&lt;/li&gt;&lt;/ul&gt;&lt;/ul&gt;" style="rounded=0;whiteSpace=wrap;html=1;" parent="1" vertex="1">
                    <mxGeometry x="1850" y="2880" width="280" height="150" as="geometry"/>
                </mxCell>
                <mxCell id="e6j-1HoQsrWpwvJSjHso-44" value="&lt;b&gt;&lt;font style=&quot;font-size: 14px;&quot;&gt;AI GRADED CANDIDATE DATABASE&lt;/font&gt;&lt;/b&gt;&lt;div&gt;&lt;b&gt;&lt;font style=&quot;font-size: 14px;&quot;&gt;&lt;br&gt;&lt;/font&gt;&lt;/b&gt;&lt;/div&gt;&lt;div&gt;&lt;b&gt;&lt;font style=&quot;font-size: 14px;&quot;&gt;&lt;br&gt;&lt;/font&gt;&lt;/b&gt;&lt;/div&gt;" style="shape=cylinder3;whiteSpace=wrap;html=1;boundedLbl=1;backgroundOutline=1;size=15;strokeColor=default;align=center;verticalAlign=middle;fontFamily=Helvetica;fontSize=12;fontColor=default;fillColor=default;" parent="1" vertex="1">
                    <mxGeometry x="2185" y="2610" width="120" height="130" as="geometry"/>
                </mxCell>
                <mxCell id="e6j-1HoQsrWpwvJSjHso-45" style="edgeStyle=orthogonalEdgeStyle;rounded=0;orthogonalLoop=1;jettySize=auto;html=1;entryX=0.5;entryY=1;entryDx=0;entryDy=0;entryPerimeter=0;" parent="1" source="e6j-1HoQsrWpwvJSjHso-40" target="e6j-1HoQsrWpwvJSjHso-44" edge="1">
                    <mxGeometry relative="1" as="geometry"/>
                </mxCell>
                <mxCell id="e6j-1HoQsrWpwvJSjHso-46" style="edgeStyle=orthogonalEdgeStyle;rounded=0;orthogonalLoop=1;jettySize=auto;html=1;entryX=0.5;entryY=0;entryDx=0;entryDy=0;" parent="1" source="e6j-1HoQsrWpwvJSjHso-47" target="e6j-1HoQsrWpwvJSjHso-32" edge="1">
                    <mxGeometry relative="1" as="geometry"/>
                </mxCell>
                <mxCell id="e6j-1HoQsrWpwvJSjHso-47" value="Chunk data&amp;nbsp;&lt;div&gt;(if needed)&lt;/div&gt;" style="rounded=0;whiteSpace=wrap;html=1;" parent="1" vertex="1">
                    <mxGeometry x="940" y="2800" width="120" height="60" as="geometry"/>
                </mxCell>
                <mxCell id="e6j-1HoQsrWpwvJSjHso-48" value="&lt;b&gt;QuestionID: question1&lt;/b&gt;&lt;div&gt;&lt;b&gt;VERSION 1&lt;/b&gt;&lt;div&gt;How does RAG AI work?&lt;/div&gt;&lt;div&gt;&lt;span style=&quot;background-color: initial;&quot;&gt;DateAdded: 02/02/1990&lt;/span&gt;&lt;br&gt;&lt;/div&gt;&lt;div&gt;Grading Criteria / Rubric:&lt;/div&gt;&lt;div&gt;Associated Conepts:&amp;nbsp; LLM, RAG, AI, etc&lt;/div&gt;&lt;div&gt;Accepted Solution Information:&amp;nbsp; &amp;lt;good answers&amp;gt;&lt;/div&gt;&lt;div&gt;Metadata: Question #, Version#, Day added, Associated Concepts&lt;/div&gt;&lt;div&gt;Embedding: [12034912, 120349120934, 1041023491, etc...]&lt;/div&gt;&lt;div&gt;&lt;br&gt;&lt;/div&gt;&lt;/div&gt;&lt;div&gt;&lt;br&gt;&lt;/div&gt;" style="rounded=0;whiteSpace=wrap;html=1;align=left;horizontal=1;verticalAlign=top;" parent="1" vertex="1">
                    <mxGeometry x="630" y="2740" width="280" height="190" as="geometry"/>
                </mxCell>
                <mxCell id="e6j-1HoQsrWpwvJSjHso-49" style="edgeStyle=orthogonalEdgeStyle;rounded=0;orthogonalLoop=1;jettySize=auto;html=1;" parent="1" source="e6j-1HoQsrWpwvJSjHso-50" target="e6j-1HoQsrWpwvJSjHso-39" edge="1">
                    <mxGeometry relative="1" as="geometry"/>
                </mxCell>
                <mxCell id="e6j-1HoQsrWpwvJSjHso-50" value="&lt;b&gt;Prompt&lt;br&gt;Validation&lt;br&gt;&lt;/b&gt;" style="rounded=0;whiteSpace=wrap;html=1;" parent="1" vertex="1">
                    <mxGeometry x="1480" y="2930" width="120" height="60" as="geometry"/>
                </mxCell>
            </root>
        </mxGraphModel>
    </diagram>
    <diagram id="OxG9ReDJwyxeF5Jl937w" name="Indexing Options">
        <mxGraphModel dx="-266" dy="886" grid="1" gridSize="10" guides="1" tooltips="1" connect="1" arrows="1" fold="1" page="1" pageScale="1" pageWidth="850" pageHeight="1100" math="0" shadow="0">
            <root>
                <mxCell id="0"/>
                <mxCell id="1" parent="0"/>
                <mxCell id="o1j_lH1K5KizX1-DXXIF-6" value="&lt;div style=&quot;&quot;&gt;&lt;b&gt;&lt;font style=&quot;font-size: 22px;&quot;&gt;OPTION 5&lt;/font&gt;&lt;/b&gt;&lt;/div&gt;&lt;div style=&quot;&quot;&gt;&lt;span style=&quot;font-size: 18px;&quot;&gt;5.) Create parent-child relationship between top level meta data and answers&lt;/span&gt;&lt;b&gt;&lt;font style=&quot;font-size: 22px;&quot;&gt;&lt;br&gt;&lt;/font&gt;&lt;/b&gt;&lt;/div&gt;" style="rounded=0;whiteSpace=wrap;html=1;verticalAlign=top;align=left;" parent="1" vertex="1">
                    <mxGeometry x="2277.5" y="1370" width="1170" height="1240" as="geometry"/>
                </mxCell>
                <mxCell id="-IwFFGHjHIB1J5n7SxKi-1" value="&lt;b&gt;Options&lt;/b&gt;:&lt;div&gt;&lt;br&gt;&lt;div&gt;&lt;strike&gt;1.) Single Index with all questions, answers, versions, etc.&lt;/strike&gt; (Ineffective cost, having to reindex anytime there is a change to any given question)&lt;/div&gt;&lt;div&gt;&lt;br&gt;&lt;/div&gt;&lt;div&gt;2.) An Index per question with all versions / answers (Consider data cleanup / index cleanup for old data)&lt;br&gt;&lt;br&gt;&lt;/div&gt;&lt;div&gt;&lt;b&gt;&lt;font style=&quot;font-size: 21px;&quot; color=&quot;#006600&quot;&gt;3.) An Index per question &amp;amp; version (winner)&lt;/font&gt;&lt;/b&gt;&lt;/div&gt;&lt;/div&gt;&lt;div&gt;&lt;b&gt;&lt;font style=&quot;font-size: 21px;&quot; color=&quot;#006600&quot;&gt;**ADR&lt;/font&gt;&lt;/b&gt;&lt;/div&gt;&lt;div&gt;&lt;br&gt;&lt;/div&gt;&lt;div&gt;4.) Store embeddings and content separately&lt;/div&gt;&lt;div&gt;&lt;br&gt;&lt;/div&gt;&lt;div&gt;5.) Create parent-child relationship between top level meta data and answers&lt;/div&gt;" style="rounded=1;whiteSpace=wrap;html=1;fontSize=18;align=left;verticalAlign=top;arcSize=0;" parent="1" vertex="1">
                    <mxGeometry x="1720" y="60" width="500" height="380" as="geometry"/>
                </mxCell>
                <mxCell id="IUI847j3i8lRyXXEy65F-1" style="edgeStyle=orthogonalEdgeStyle;rounded=0;orthogonalLoop=1;jettySize=auto;html=1;exitX=0.5;exitY=1;exitDx=0;exitDy=0;entryX=0;entryY=0.5;entryDx=0;entryDy=0;" parent="1" source="IUI847j3i8lRyXXEy65F-3" target="IUI847j3i8lRyXXEy65F-4" edge="1">
                    <mxGeometry relative="1" as="geometry"/>
                </mxCell>
                <mxCell id="IUI847j3i8lRyXXEy65F-2" style="edgeStyle=orthogonalEdgeStyle;rounded=0;orthogonalLoop=1;jettySize=auto;html=1;exitX=0.75;exitY=1;exitDx=0;exitDy=0;entryX=0;entryY=0.5;entryDx=0;entryDy=0;" parent="1" source="IUI847j3i8lRyXXEy65F-3" target="IUI847j3i8lRyXXEy65F-5" edge="1">
                    <mxGeometry relative="1" as="geometry"/>
                </mxCell>
                <mxCell id="IUI847j3i8lRyXXEy65F-3" value="&lt;b&gt;Question 1: question1&lt;/b&gt;&lt;div&gt;&lt;br&gt;&lt;/div&gt;&lt;div&gt;Id: 8888888&lt;/div&gt;&lt;div&gt;QuestionID&lt;/div&gt;&lt;div&gt;Question:&amp;nbsp; What is RAG AI?&lt;/div&gt;&lt;div&gt;Author&lt;/div&gt;&lt;div&gt;&lt;span style=&quot;background-color: initial;&quot;&gt;Date Added&lt;/span&gt;&lt;br&gt;&lt;/div&gt;&lt;div&gt;&lt;span style=&quot;background-color: initial;&quot;&gt;&lt;br&gt;&lt;/span&gt;&lt;/div&gt;&lt;div&gt;&lt;br&gt;&lt;/div&gt;" style="rounded=0;whiteSpace=wrap;html=1;align=left;horizontal=1;verticalAlign=top;" parent="1" vertex="1">
                    <mxGeometry x="2330" y="1470" width="345" height="150" as="geometry"/>
                </mxCell>
                <mxCell id="IUI847j3i8lRyXXEy65F-4" value="&lt;div&gt;&lt;b&gt;Question 1 Answers&lt;/b&gt;&lt;/div&gt;&lt;div&gt;&lt;b&gt;&lt;br&gt;&lt;/b&gt;&lt;/div&gt;&lt;div&gt;&lt;b&gt;Version 1&lt;/b&gt;&lt;/div&gt;&lt;div&gt;&lt;div&gt;&lt;b&gt;parent ID:&amp;nbsp;&lt;/b&gt;&lt;span style=&quot;background-color: initial;&quot;&gt;8888888&lt;/span&gt;&lt;/div&gt;&lt;div&gt;&lt;b&gt;&amp;lt;good answers&amp;gt;&lt;/b&gt;&lt;/div&gt;&lt;div&gt;&lt;b&gt;&amp;lt;embeddings&amp;gt;&lt;/b&gt;&lt;/div&gt;&lt;div&gt;&lt;b&gt;&amp;lt;date added&amp;gt;&lt;/b&gt;&lt;/div&gt;&lt;/div&gt;" style="rounded=0;whiteSpace=wrap;html=1;align=left;horizontal=1;verticalAlign=top;" parent="1" vertex="1">
                    <mxGeometry x="2690" y="1770" width="345" height="150" as="geometry"/>
                </mxCell>
                <mxCell id="IUI847j3i8lRyXXEy65F-5" value="&lt;div&gt;&lt;b&gt;Question 1 Answers&lt;/b&gt;&lt;/div&gt;&lt;div&gt;&lt;b&gt;&lt;br&gt;&lt;/b&gt;&lt;/div&gt;&lt;div&gt;&lt;b&gt;Version 2&lt;/b&gt;&lt;/div&gt;&lt;div&gt;&lt;b&gt;parent ID:&amp;nbsp;&lt;/b&gt;&lt;span style=&quot;background-color: initial;&quot;&gt;8888888&lt;/span&gt;&lt;/div&gt;&lt;div&gt;&lt;b&gt;&amp;lt;good answers&amp;gt;&lt;/b&gt;&lt;/div&gt;&lt;div&gt;&lt;b style=&quot;background-color: initial;&quot;&gt;&amp;lt;embeddings&amp;gt;&lt;/b&gt;&lt;/div&gt;&lt;div&gt;&lt;b&gt;&amp;lt;date added&amp;gt;&lt;/b&gt;&lt;/div&gt;" style="rounded=0;whiteSpace=wrap;html=1;align=left;horizontal=1;verticalAlign=top;" parent="1" vertex="1">
                    <mxGeometry x="2690" y="1610" width="345" height="150" as="geometry"/>
                </mxCell>
                <mxCell id="o1j_lH1K5KizX1-DXXIF-1" value="&lt;div&gt;&lt;b&gt;&lt;font style=&quot;font-size: 22px;&quot;&gt;OPTION 2&lt;/font&gt;&lt;/b&gt;&lt;/div&gt;&lt;div&gt;&lt;span style=&quot;font-size: 18px;&quot;&gt;2.) An Index per question with all versions / answers (Consider data cleanup / index cleanup for old data)&lt;/span&gt;&lt;br style=&quot;font-size: 18px;&quot;&gt;&lt;/div&gt;&lt;div&gt;&lt;span style=&quot;font-size: 18px;&quot;&gt;&lt;br&gt;&lt;/span&gt;&lt;/div&gt;&lt;b&gt;QuestionID: question1&lt;/b&gt;&lt;div&gt;&lt;div&gt;&lt;b&gt;VERSION 1&lt;/b&gt;&lt;div&gt;How does RAG AI work?&lt;/div&gt;&lt;div&gt;&lt;span style=&quot;background-color: initial;&quot;&gt;DateAdded: 02/02/1990&lt;/span&gt;&lt;br&gt;&lt;/div&gt;&lt;div&gt;Grading Criteria / Rubric:&lt;/div&gt;&lt;div&gt;Associated Conepts:&amp;nbsp; LLM, RAG, AI, etc&lt;/div&gt;&lt;div&gt;Accepted Solution Information:&amp;nbsp; &amp;lt;good answers&amp;gt;&lt;/div&gt;&lt;div&gt;Embedding: [12034912, 120349120934, 1041023491, etc...]&lt;/div&gt;&lt;div&gt;&lt;br&gt;&lt;/div&gt;&lt;/div&gt;&lt;div&gt;&lt;b&gt;VERSION 2&lt;/b&gt;&lt;div&gt;How does RAG AI work?&lt;/div&gt;&lt;div&gt;&lt;span style=&quot;background-color: initial;&quot;&gt;DateAdded: 02/02/1990&lt;/span&gt;&lt;br&gt;&lt;/div&gt;&lt;div&gt;&lt;span style=&quot;background-color: initial;&quot;&gt;Grading Criteria / Rubric:&lt;/span&gt;&lt;/div&gt;&lt;div&gt;&lt;span style=&quot;background-color: initial;&quot;&gt;Associated Conepts:&amp;nbsp; LLM, RAG, AI, etc&lt;/span&gt;&lt;br&gt;&lt;/div&gt;&lt;div&gt;Accepted Solution Information:&amp;nbsp; &amp;lt;good answers&amp;gt;&lt;/div&gt;&lt;div&gt;Embedding: [12034912, 120349120934, 1041023491, etc...]&lt;/div&gt;&lt;div&gt;&lt;br&gt;&lt;/div&gt;&lt;div&gt;.....&lt;/div&gt;&lt;/div&gt;&lt;div&gt;&lt;br&gt;&lt;/div&gt;&lt;div&gt;&lt;b&gt;VERSION 100000000&lt;/b&gt;&lt;/div&gt;&lt;/div&gt;" style="rounded=0;whiteSpace=wrap;html=1;align=left;horizontal=1;verticalAlign=top;" parent="1" vertex="1">
                    <mxGeometry x="2307.5" y="10" width="332.5" height="480" as="geometry"/>
                </mxCell>
                <mxCell id="o1j_lH1K5KizX1-DXXIF-2" value="&lt;div&gt;&lt;b&gt;&lt;font style=&quot;font-size: 22px;&quot;&gt;OPTION 3&lt;/font&gt;&lt;/b&gt;&lt;b&gt;&lt;br&gt;&lt;/b&gt;&lt;/div&gt;&lt;div&gt;&lt;div&gt;3.) An Index per question &amp;amp; version&lt;/div&gt;&lt;div&gt;&lt;br style=&quot;font-size: 18px;&quot;&gt;&lt;/div&gt;&lt;/div&gt;&lt;div&gt;&lt;b&gt;&lt;font style=&quot;font-size: 22px;&quot;&gt;&lt;br&gt;&lt;/font&gt;&lt;/b&gt;&lt;/div&gt;&lt;b&gt;Question 1: question1&lt;/b&gt;&lt;div&gt;&lt;b&gt;VERSION 2&lt;/b&gt;&lt;/div&gt;&lt;div&gt;&lt;b&gt;ActiveVersion?&amp;nbsp; TRUE&lt;br&gt;&lt;/b&gt;&lt;div&gt;How does RAG AI work?&lt;/div&gt;&lt;div&gt;&lt;span style=&quot;background-color: initial;&quot;&gt;DateAdded: 02/02/1990&lt;/span&gt;&lt;br&gt;&lt;/div&gt;&lt;div&gt;&lt;span style=&quot;background-color: initial;&quot;&gt;Grading Criteria / Rubric:&lt;/span&gt;&lt;/div&gt;&lt;div&gt;&lt;span style=&quot;background-color: initial;&quot;&gt;Associated Conepts:&amp;nbsp; LLM, RAG, AI, etc&lt;/span&gt;&lt;br&gt;&lt;/div&gt;&lt;div&gt;&lt;span style=&quot;background-color: initial;&quot;&gt;Accepted Solution Information: [&lt;/span&gt;&lt;/div&gt;&lt;div&gt;&amp;nbsp; Answer1:&amp;nbsp; English is a language&lt;/div&gt;&lt;div&gt;&amp;nbsp; Answer2:&amp;nbsp; A language is English&lt;/div&gt;&lt;div&gt;&amp;nbsp; Answer3: One of the languags is English&lt;/div&gt;&lt;div&gt;&lt;span style=&quot;background-color: initial;&quot;&gt;]&lt;/span&gt;&lt;/div&gt;&lt;div&gt;&lt;span style=&quot;background-color: initial;&quot;&gt;Embedding: [12034912, 120349120934, 1041023491, etc...1501586815819&lt;/span&gt;&lt;span style=&quot;background-color: initial;&quot;&gt;]&lt;/span&gt;&lt;/div&gt;&lt;div&gt;&lt;br&gt;&lt;/div&gt;&lt;/div&gt;" style="rounded=0;whiteSpace=wrap;html=1;align=left;horizontal=1;verticalAlign=top;" parent="1" vertex="1">
                    <mxGeometry x="2585" y="530" width="280" height="310" as="geometry"/>
                </mxCell>
                <mxCell id="o1j_lH1K5KizX1-DXXIF-3" value="&lt;div&gt;&lt;b&gt;&lt;font style=&quot;font-size: 22px;&quot;&gt;OPTION 3&lt;/font&gt;&lt;/b&gt;&lt;/div&gt;&lt;div&gt;&lt;div&gt;3.) An Index per question &amp;amp; version&lt;/div&gt;&lt;div&gt;&lt;br style=&quot;font-size: 18px;&quot;&gt;&lt;/div&gt;&lt;/div&gt;&lt;div&gt;&lt;b&gt;&lt;font style=&quot;font-size: 22px;&quot;&gt;&lt;br&gt;&lt;/font&gt;&lt;/b&gt;&lt;/div&gt;&lt;b&gt;QuestionID: question1&lt;/b&gt;&lt;div&gt;&lt;b&gt;VERSION 1&lt;/b&gt;&lt;/div&gt;&lt;div&gt;&lt;b&gt;ActiveVersion?&amp;nbsp; FALSE&lt;br&gt;&lt;/b&gt;&lt;div&gt;How does RAG AI work?&lt;/div&gt;&lt;div&gt;&lt;span style=&quot;background-color: initial;&quot;&gt;DateAdded: 02/02/1990&lt;/span&gt;&lt;br&gt;&lt;/div&gt;&lt;div&gt;Grading Criteria / Rubric:&lt;/div&gt;&lt;div&gt;Associated Conepts:&amp;nbsp; LLM, RAG, AI, etc&lt;/div&gt;&lt;div&gt;&lt;span style=&quot;background-color: initial;&quot;&gt;Accepted Solution Information: [&lt;/span&gt;&lt;br&gt;&lt;/div&gt;&lt;div&gt;&lt;div&gt;&amp;nbsp; Answer1:&amp;nbsp; English is a language&lt;/div&gt;&lt;div&gt;&lt;span style=&quot;background-color: initial;&quot;&gt;]&lt;/span&gt;&lt;/div&gt;&lt;/div&gt;&lt;div&gt;Embedding: [12034912, 120349120934,&amp;nbsp;&lt;/div&gt;&lt;div&gt;1041023491, etc...]&lt;/div&gt;&lt;/div&gt;" style="rounded=0;whiteSpace=wrap;html=1;align=left;horizontal=1;verticalAlign=top;" parent="1" vertex="1">
                    <mxGeometry x="2290" y="530" width="280" height="310" as="geometry"/>
                </mxCell>
                <mxCell id="o1j_lH1K5KizX1-DXXIF-7" value="&lt;div style=&quot;&quot;&gt;&lt;b&gt;&lt;font style=&quot;font-size: 22px;&quot;&gt;OPTION 4&lt;/font&gt;&lt;/b&gt;&lt;/div&gt;&lt;div style=&quot;&quot;&gt;&lt;div&gt;4.) Store embeddings and content separately&lt;/div&gt;&lt;div&gt;&lt;br style=&quot;font-size: 18px;&quot;&gt;&lt;/div&gt;&lt;/div&gt;" style="rounded=0;whiteSpace=wrap;html=1;verticalAlign=top;align=left;" parent="1" vertex="1">
                    <mxGeometry x="2290" y="890" width="760" height="450" as="geometry"/>
                </mxCell>
                <mxCell id="o1j_lH1K5KizX1-DXXIF-8" value="&lt;div&gt;&lt;b&gt;&lt;font style=&quot;font-size: 22px;&quot;&gt;OPTION 4 *Vector DB&lt;/font&gt;&lt;/b&gt;&lt;/div&gt;&lt;div&gt;&lt;b&gt;&lt;font style=&quot;font-size: 22px;&quot;&gt;&lt;br&gt;&lt;/font&gt;&lt;/b&gt;&lt;/div&gt;&lt;b&gt;QuestionID: question1&lt;/b&gt;&lt;div&gt;&lt;div&gt;Embedding: [12034912, 120349120934, 1041023491, etc...]&lt;/div&gt;&lt;/div&gt;" style="rounded=0;whiteSpace=wrap;html=1;align=left;horizontal=1;verticalAlign=top;" parent="1" vertex="1">
                    <mxGeometry x="2333.75" y="970" width="280" height="310" as="geometry"/>
                </mxCell>
                <mxCell id="o1j_lH1K5KizX1-DXXIF-9" value="&lt;div&gt;&lt;b&gt;&lt;font style=&quot;font-size: 22px;&quot;&gt;OPTION 4 *Content Store&lt;/font&gt;&lt;/b&gt;&lt;/div&gt;&lt;div&gt;&lt;b&gt;&lt;font style=&quot;font-size: 22px;&quot;&gt;&lt;br&gt;&lt;/font&gt;&lt;/b&gt;&lt;/div&gt;&lt;b&gt;QuestionID: question1&lt;/b&gt;&lt;div&gt;&lt;b&gt;VERSION 1&lt;/b&gt;&lt;div&gt;How does RAG AI work?&lt;/div&gt;&lt;div&gt;&lt;span style=&quot;background-color: initial;&quot;&gt;DateAdded: 02/02/1990&lt;/span&gt;&lt;br&gt;&lt;/div&gt;&lt;div&gt;Grading Criteria / Rubric:&lt;/div&gt;&lt;div&gt;Associated Conepts:&amp;nbsp; LLM, RAG, AI, etc&lt;/div&gt;&lt;div&gt;Accepted Solution Information:&amp;nbsp; &amp;lt;good answers&amp;gt;&lt;/div&gt;&lt;/div&gt;" style="rounded=0;whiteSpace=wrap;html=1;align=left;horizontal=1;verticalAlign=top;" parent="1" vertex="1">
                    <mxGeometry x="2650" y="970" width="280" height="310" as="geometry"/>
                </mxCell>
                <mxCell id="o1j_lH1K5KizX1-DXXIF-11" value="&lt;div&gt;&lt;b&gt;&lt;font style=&quot;font-size: 22px;&quot;&gt;OPTION 3&lt;/font&gt;&lt;/b&gt;&lt;b&gt;&lt;br&gt;&lt;/b&gt;&lt;/div&gt;&lt;div&gt;&lt;div&gt;3.) An Index per question &amp;amp; version&lt;/div&gt;&lt;div&gt;&lt;br style=&quot;font-size: 18px;&quot;&gt;&lt;/div&gt;&lt;/div&gt;&lt;div&gt;&lt;b&gt;&lt;font style=&quot;font-size: 22px;&quot;&gt;&lt;br&gt;&lt;/font&gt;&lt;/b&gt;&lt;/div&gt;&lt;b&gt;Question 1: question1&lt;/b&gt;&lt;div&gt;&lt;b&gt;VERSION ..... N&lt;/b&gt;&lt;div&gt;How does RAG AI work?&lt;/div&gt;&lt;div&gt;&lt;span style=&quot;background-color: initial;&quot;&gt;DateAdded: 02/02/1990&lt;/span&gt;&lt;br&gt;&lt;/div&gt;&lt;div&gt;&lt;span style=&quot;background-color: initial;&quot;&gt;Grading Criteria / Rubric:&lt;/span&gt;&lt;/div&gt;&lt;div&gt;&lt;span style=&quot;background-color: initial;&quot;&gt;Associated Conepts:&amp;nbsp; LLM, RAG, AI, etc&lt;/span&gt;&lt;br&gt;&lt;/div&gt;&lt;div&gt;&lt;span style=&quot;background-color: initial;&quot;&gt;Accepted Solution Information: [&lt;/span&gt;&lt;/div&gt;&lt;div&gt;&amp;nbsp; Answer1:&amp;nbsp; English is a language&lt;/div&gt;&lt;div&gt;&amp;nbsp; Answer2:&amp;nbsp; A language is English&lt;/div&gt;&lt;div&gt;&amp;nbsp; Answer3: One of the languags is English&lt;/div&gt;&lt;div&gt;&amp;nbsp; Answer4:&amp;nbsp; English its one of them&lt;/div&gt;&lt;div&gt;&amp;nbsp; Anaswer5:&amp;nbsp; Yep, that&#39;s it&lt;/div&gt;&lt;div&gt;&lt;span style=&quot;background-color: initial;&quot;&gt;]&lt;/span&gt;&lt;/div&gt;&lt;div&gt;&lt;span style=&quot;background-color: initial;&quot;&gt;Embedding: [12034912, 120349120934, 1041023491, etc...]&lt;/span&gt;&lt;br&gt;&lt;/div&gt;&lt;div&gt;&lt;br&gt;&lt;/div&gt;&lt;/div&gt;" style="rounded=0;whiteSpace=wrap;html=1;align=left;horizontal=1;verticalAlign=top;" parent="1" vertex="1">
                    <mxGeometry x="2920" y="530" width="280" height="310" as="geometry"/>
                </mxCell>
                <mxCell id="o1j_lH1K5KizX1-DXXIF-14" style="edgeStyle=orthogonalEdgeStyle;rounded=0;orthogonalLoop=1;jettySize=auto;html=1;exitX=0.5;exitY=1;exitDx=0;exitDy=0;entryX=0;entryY=0.5;entryDx=0;entryDy=0;" parent="1" source="o1j_lH1K5KizX1-DXXIF-16" target="o1j_lH1K5KizX1-DXXIF-17" edge="1">
                    <mxGeometry relative="1" as="geometry"/>
                </mxCell>
                <mxCell id="o1j_lH1K5KizX1-DXXIF-15" style="edgeStyle=orthogonalEdgeStyle;rounded=0;orthogonalLoop=1;jettySize=auto;html=1;exitX=0.75;exitY=1;exitDx=0;exitDy=0;entryX=0;entryY=0.5;entryDx=0;entryDy=0;" parent="1" source="o1j_lH1K5KizX1-DXXIF-16" target="o1j_lH1K5KizX1-DXXIF-18" edge="1">
                    <mxGeometry relative="1" as="geometry"/>
                </mxCell>
                <mxCell id="o1j_lH1K5KizX1-DXXIF-20" style="edgeStyle=orthogonalEdgeStyle;rounded=0;orthogonalLoop=1;jettySize=auto;html=1;exitX=0.25;exitY=1;exitDx=0;exitDy=0;entryX=0;entryY=0.5;entryDx=0;entryDy=0;" parent="1" source="o1j_lH1K5KizX1-DXXIF-16" target="o1j_lH1K5KizX1-DXXIF-19" edge="1">
                    <mxGeometry relative="1" as="geometry"/>
                </mxCell>
                <mxCell id="o1j_lH1K5KizX1-DXXIF-16" value="&lt;b&gt;Question 2: question2&lt;/b&gt;&lt;div&gt;&lt;br&gt;&lt;/div&gt;&lt;div&gt;Id: 77777&lt;/div&gt;&lt;div&gt;QuestionID&lt;/div&gt;&lt;div&gt;Question:&amp;nbsp; What is something else?&lt;/div&gt;&lt;div&gt;Author&lt;/div&gt;&lt;div&gt;&lt;span style=&quot;background-color: initial;&quot;&gt;Date Added&lt;/span&gt;&lt;br&gt;&lt;/div&gt;&lt;div&gt;&lt;span style=&quot;background-color: initial;&quot;&gt;&lt;br&gt;&lt;/span&gt;&lt;/div&gt;&lt;div&gt;&lt;br&gt;&lt;/div&gt;" style="rounded=0;whiteSpace=wrap;html=1;align=left;horizontal=1;verticalAlign=top;" parent="1" vertex="1">
                    <mxGeometry x="2333.75" y="1950" width="345" height="150" as="geometry"/>
                </mxCell>
                <mxCell id="o1j_lH1K5KizX1-DXXIF-17" value="&lt;div&gt;&lt;b&gt;Question 2 Answers&lt;/b&gt;&lt;/div&gt;&lt;div&gt;&lt;b&gt;&lt;br&gt;&lt;/b&gt;&lt;/div&gt;&lt;div&gt;&lt;b&gt;Version 2&lt;/b&gt;&lt;/div&gt;&lt;div&gt;&lt;div&gt;&lt;b&gt;parent ID:&amp;nbsp;&lt;/b&gt;&lt;span style=&quot;background-color: initial;&quot;&gt;77777&lt;/span&gt;&lt;/div&gt;&lt;div&gt;&lt;b&gt;&amp;lt;good answers&amp;gt;&lt;/b&gt;&lt;/div&gt;&lt;div&gt;&lt;b&gt;&amp;lt;embeddings&amp;gt;&lt;/b&gt;&lt;/div&gt;&lt;div&gt;&lt;b&gt;&amp;lt;date added&amp;gt;&lt;/b&gt;&lt;/div&gt;&lt;/div&gt;" style="rounded=0;whiteSpace=wrap;html=1;align=left;horizontal=1;verticalAlign=top;" parent="1" vertex="1">
                    <mxGeometry x="2693.75" y="2250" width="345" height="150" as="geometry"/>
                </mxCell>
                <mxCell id="o1j_lH1K5KizX1-DXXIF-18" value="&lt;div&gt;&lt;b&gt;Question 2 Answers&lt;/b&gt;&lt;/div&gt;&lt;div&gt;&lt;b&gt;&lt;br&gt;&lt;/b&gt;&lt;/div&gt;&lt;div&gt;&lt;b&gt;Version 1&lt;/b&gt;&lt;/div&gt;&lt;div&gt;&lt;b&gt;parent ID:&amp;nbsp;&lt;/b&gt;&lt;span style=&quot;background-color: initial;&quot;&gt;77777&lt;/span&gt;&lt;/div&gt;&lt;div&gt;&lt;b&gt;&amp;lt;good answers&amp;gt;&lt;/b&gt;&lt;/div&gt;&lt;div&gt;&lt;b style=&quot;background-color: initial;&quot;&gt;&amp;lt;embeddings&amp;gt;&lt;/b&gt;&lt;/div&gt;&lt;div&gt;&lt;b&gt;&amp;lt;date added&amp;gt;&lt;/b&gt;&lt;/div&gt;" style="rounded=0;whiteSpace=wrap;html=1;align=left;horizontal=1;verticalAlign=top;" parent="1" vertex="1">
                    <mxGeometry x="2693.75" y="2090" width="345" height="150" as="geometry"/>
                </mxCell>
                <mxCell id="o1j_lH1K5KizX1-DXXIF-19" value="&lt;div&gt;&lt;b&gt;Question 2 Answers&lt;/b&gt;&lt;/div&gt;&lt;div&gt;&lt;b&gt;&lt;br&gt;&lt;/b&gt;&lt;/div&gt;&lt;div&gt;&lt;b&gt;Version 3&lt;/b&gt;&lt;/div&gt;&lt;div&gt;&lt;b&gt;parent ID:&amp;nbsp;&lt;/b&gt;&lt;span style=&quot;background-color: initial;&quot;&gt;77777&lt;/span&gt;&lt;/div&gt;&lt;div&gt;&lt;b&gt;&amp;lt;good answers&amp;gt;&lt;/b&gt;&lt;/div&gt;&lt;div&gt;&lt;b style=&quot;background-color: initial;&quot;&gt;&amp;lt;embeddings&amp;gt;&lt;/b&gt;&lt;/div&gt;&lt;div&gt;&lt;b&gt;&amp;lt;date added&amp;gt;&lt;/b&gt;&lt;/div&gt;" style="rounded=0;whiteSpace=wrap;html=1;align=left;horizontal=1;verticalAlign=top;" parent="1" vertex="1">
                    <mxGeometry x="2693.75" y="2410" width="345" height="150" as="geometry"/>
                </mxCell>
                <mxCell id="o1j_lH1K5KizX1-DXXIF-21" value="ADMIN UI&lt;div&gt;&lt;br&gt;&lt;/div&gt;&lt;div&gt;&lt;br&gt;&lt;/div&gt;&lt;div&gt;Edit Question 1:&lt;/div&gt;&lt;div&gt;&lt;br&gt;&lt;/div&gt;&lt;div&gt;Add new answer?&lt;/div&gt;&lt;div&gt;Enable new question/answer version?&lt;/div&gt;&lt;div&gt;Version 1&amp;nbsp; &amp;nbsp; --&amp;gt;&amp;nbsp; Set to Active&lt;/div&gt;&lt;div&gt;Version 2&lt;/div&gt;&lt;div&gt;Version 3...&amp;nbsp;&lt;/div&gt;&lt;div&gt;&lt;br&gt;&lt;/div&gt;&lt;div&gt;Disable question?&lt;/div&gt;" style="whiteSpace=wrap;html=1;aspect=fixed;verticalAlign=top;align=left;" parent="1" vertex="1">
                    <mxGeometry x="1730" y="530" width="320" height="320" as="geometry"/>
                </mxCell>
            </root>
        </mxGraphModel>
    </diagram>
    <diagram id="5teDMYqcjxQezk6in2Tq" name="Solution Design">
        <mxGraphModel dx="5823" dy="703" grid="1" gridSize="10" guides="1" tooltips="1" connect="1" arrows="1" fold="1" page="1" pageScale="1" pageWidth="4800" pageHeight="4800" math="0" shadow="0">
            <root>
                <mxCell id="0"/>
                <mxCell id="1" parent="0"/>
                <mxCell id="YnMnG-iwRk9KfhMpKJIE-2" value="Public API Gateway" style="rounded=0;whiteSpace=wrap;html=1;strokeWidth=2;" parent="1" vertex="1">
                    <mxGeometry x="40" y="280" width="1640" height="60" as="geometry"/>
                </mxCell>
                <mxCell id="YnMnG-iwRk9KfhMpKJIE-3" value="" style="edgeStyle=none;html=1;" parent="1" source="YnMnG-iwRk9KfhMpKJIE-4" target="YnMnG-iwRk9KfhMpKJIE-15" edge="1">
                    <mxGeometry relative="1" as="geometry"/>
                </mxCell>
                <mxCell id="YnMnG-iwRk9KfhMpKJIE-4" value="Case Study Retrieval Service" style="rounded=0;whiteSpace=wrap;html=1;verticalAlign=top;" parent="1" vertex="1">
                    <mxGeometry x="40" y="400" width="160" height="230" as="geometry"/>
                </mxCell>
                <mxCell id="YnMnG-iwRk9KfhMpKJIE-5" value="Case Study" style="rounded=0;whiteSpace=wrap;html=1;" parent="1" vertex="1">
                    <mxGeometry x="60" y="500" width="120" height="60" as="geometry"/>
                </mxCell>
                <mxCell id="YnMnG-iwRk9KfhMpKJIE-6" value="" style="edgeStyle=none;html=1;" parent="1" source="YnMnG-iwRk9KfhMpKJIE-7" target="YnMnG-iwRk9KfhMpKJIE-4" edge="1">
                    <mxGeometry relative="1" as="geometry"/>
                </mxCell>
                <mxCell id="YnMnG-iwRk9KfhMpKJIE-7" value="Case Study Db" style="strokeWidth=2;html=1;shape=mxgraph.flowchart.database;whiteSpace=wrap;labelPosition=center;verticalLabelPosition=bottom;align=center;verticalAlign=top;" parent="1" vertex="1">
                    <mxGeometry x="90" y="700" width="60" height="60" as="geometry"/>
                </mxCell>
                <mxCell id="YnMnG-iwRk9KfhMpKJIE-8" style="edgeStyle=orthogonalEdgeStyle;rounded=0;orthogonalLoop=1;jettySize=auto;html=1;entryX=0.5;entryY=0;entryDx=0;entryDy=0;" parent="1" source="YnMnG-iwRk9KfhMpKJIE-11" target="YnMnG-iwRk9KfhMpKJIE-4" edge="1">
                    <mxGeometry relative="1" as="geometry"/>
                </mxCell>
                <mxCell id="YnMnG-iwRk9KfhMpKJIE-9" value="" style="edgeStyle=none;html=1;" parent="1" source="YnMnG-iwRk9KfhMpKJIE-11" target="YnMnG-iwRk9KfhMpKJIE-15" edge="1">
                    <mxGeometry relative="1" as="geometry"/>
                </mxCell>
                <mxCell id="YnMnG-iwRk9KfhMpKJIE-10" value="" style="edgeStyle=none;html=1;" parent="1" source="YnMnG-iwRk9KfhMpKJIE-11" target="YnMnG-iwRk9KfhMpKJIE-20" edge="1">
                    <mxGeometry relative="1" as="geometry">
                        <mxPoint x="429" y="194" as="targetPoint"/>
                        <Array as="points">
                            <mxPoint x="520" y="194"/>
                        </Array>
                    </mxGeometry>
                </mxCell>
                <mxCell id="YnMnG-iwRk9KfhMpKJIE-11" value="&lt;span style=&quot;color: rgb(240, 240, 240); font-family: Helvetica; font-size: 12px; font-style: normal; font-variant-ligatures: normal; font-variant-caps: normal; font-weight: 400; letter-spacing: normal; orphans: 2; text-align: center; text-indent: 0px; text-transform: none; widows: 2; word-spacing: 0px; -webkit-text-stroke-width: 0px; background-color: rgb(42, 37, 47); text-decoration-thickness: initial; text-decoration-style: initial; text-decoration-color: initial; float: none; display: inline !important;&quot;&gt;Candidate Testing&amp;nbsp;&lt;/span&gt;&lt;span style=&quot;color: rgb(240, 240, 240); font-family: Helvetica; font-size: 12px; font-style: normal; font-variant-ligatures: normal; font-variant-caps: normal; font-weight: 400; letter-spacing: normal; orphans: 2; text-align: center; text-indent: 0px; text-transform: none; widows: 2; word-spacing: 0px; -webkit-text-stroke-width: 0px; background-color: rgb(42, 37, 47); text-decoration-thickness: initial; text-decoration-style: initial; text-decoration-color: initial; float: none; display: inline !important;&quot;&gt;User Interface&lt;/span&gt;" style="sketch=0;pointerEvents=1;shadow=0;dashed=0;html=1;strokeColor=none;fillColor=#505050;labelPosition=center;verticalLabelPosition=top;verticalAlign=middle;outlineConnect=0;align=center;shape=mxgraph.office.devices.lcd_monitor;" parent="1" vertex="1">
                    <mxGeometry x="291" y="170" width="58" height="48" as="geometry"/>
                </mxCell>
                <mxCell id="YnMnG-iwRk9KfhMpKJIE-12" style="edgeStyle=orthogonalEdgeStyle;rounded=1;orthogonalLoop=1;jettySize=auto;html=1;" parent="1" source="YnMnG-iwRk9KfhMpKJIE-13" target="YnMnG-iwRk9KfhMpKJIE-26" edge="1">
                    <mxGeometry relative="1" as="geometry">
                        <Array as="points">
                            <mxPoint x="720" y="194"/>
                        </Array>
                    </mxGeometry>
                </mxCell>
                <mxCell id="YnMnG-iwRk9KfhMpKJIE-13" value="&lt;span style=&quot;color: rgb(240, 240, 240); font-family: Helvetica; font-size: 12px; font-style: normal; font-variant-ligatures: normal; font-variant-caps: normal; font-weight: 400; letter-spacing: normal; orphans: 2; text-align: center; text-indent: 0px; text-transform: none; widows: 2; word-spacing: 0px; -webkit-text-stroke-width: 0px; background-color: rgb(42, 37, 47); text-decoration-thickness: initial; text-decoration-style: initial; text-decoration-color: initial; float: none; display: inline !important;&quot;&gt;Expert Grading&amp;nbsp;&lt;/span&gt;&lt;span style=&quot;color: rgb(240, 240, 240); font-family: Helvetica; font-size: 12px; font-style: normal; font-variant-ligatures: normal; font-variant-caps: normal; font-weight: 400; letter-spacing: normal; orphans: 2; text-align: center; text-indent: 0px; text-transform: none; widows: 2; word-spacing: 0px; -webkit-text-stroke-width: 0px; background-color: rgb(42, 37, 47); text-decoration-thickness: initial; text-decoration-style: initial; text-decoration-color: initial; float: none; display: inline !important;&quot;&gt;User Interface&lt;/span&gt;" style="sketch=0;pointerEvents=1;shadow=0;dashed=0;html=1;strokeColor=none;fillColor=#505050;labelPosition=center;verticalLabelPosition=top;verticalAlign=middle;outlineConnect=0;align=center;shape=mxgraph.office.devices.lcd_monitor;" parent="1" vertex="1">
                    <mxGeometry x="691" y="170" width="58" height="48" as="geometry"/>
                </mxCell>
                <mxCell id="YnMnG-iwRk9KfhMpKJIE-14" style="edgeStyle=orthogonalEdgeStyle;rounded=0;orthogonalLoop=1;jettySize=auto;html=1;entryX=0.5;entryY=0;entryDx=0;entryDy=0;entryPerimeter=0;exitX=0.25;exitY=1;exitDx=0;exitDy=0;" parent="1" source="YnMnG-iwRk9KfhMpKJIE-15" target="YnMnG-iwRk9KfhMpKJIE-17" edge="1">
                    <mxGeometry relative="1" as="geometry">
                        <mxPoint x="330" y="680" as="sourcePoint"/>
                    </mxGeometry>
                </mxCell>
                <mxCell id="YnMnG-iwRk9KfhMpKJIE-15" value="Candidate Status Service" style="rounded=0;whiteSpace=wrap;html=1;verticalAlign=top;" parent="1" vertex="1">
                    <mxGeometry x="240" y="400" width="160" height="230" as="geometry"/>
                </mxCell>
                <mxCell id="YnMnG-iwRk9KfhMpKJIE-16" value="Candidate Progress" style="rounded=0;whiteSpace=wrap;html=1;" parent="1" vertex="1">
                    <mxGeometry x="260" y="500" width="120" height="60" as="geometry"/>
                </mxCell>
                <mxCell id="YnMnG-iwRk9KfhMpKJIE-17" value="Candidate Status Db" style="strokeWidth=2;html=1;shape=mxgraph.flowchart.database;whiteSpace=wrap;labelPosition=center;verticalLabelPosition=bottom;align=center;verticalAlign=top;" parent="1" vertex="1">
                    <mxGeometry x="250" y="700" width="60" height="60" as="geometry"/>
                </mxCell>
                <mxCell id="YnMnG-iwRk9KfhMpKJIE-18" style="edgeStyle=orthogonalEdgeStyle;rounded=0;orthogonalLoop=1;jettySize=auto;html=1;entryX=0.5;entryY=0;entryDx=0;entryDy=0;entryPerimeter=0;" parent="1" source="YnMnG-iwRk9KfhMpKJIE-20" target="YnMnG-iwRk9KfhMpKJIE-23" edge="1">
                    <mxGeometry relative="1" as="geometry"/>
                </mxCell>
                <mxCell id="YnMnG-iwRk9KfhMpKJIE-19" value="" style="edgeStyle=none;html=1;" parent="1" source="YnMnG-iwRk9KfhMpKJIE-20" target="YnMnG-iwRk9KfhMpKJIE-15" edge="1">
                    <mxGeometry relative="1" as="geometry"/>
                </mxCell>
                <mxCell id="YnMnG-iwRk9KfhMpKJIE-20" value="Architecture Submission Service" style="rounded=0;whiteSpace=wrap;html=1;verticalAlign=top;" parent="1" vertex="1">
                    <mxGeometry x="440" y="400" width="160" height="230" as="geometry"/>
                </mxCell>
                <mxCell id="YnMnG-iwRk9KfhMpKJIE-21" value="Architecture Submission" style="rounded=0;whiteSpace=wrap;html=1;" parent="1" vertex="1">
                    <mxGeometry x="460" y="500" width="120" height="60" as="geometry"/>
                </mxCell>
                <mxCell id="YnMnG-iwRk9KfhMpKJIE-22" value="" style="edgeStyle=none;html=1;entryX=0.25;entryY=1;entryDx=0;entryDy=0;" parent="1" source="YnMnG-iwRk9KfhMpKJIE-23" target="YnMnG-iwRk9KfhMpKJIE-26" edge="1">
                    <mxGeometry relative="1" as="geometry">
                        <mxPoint x="680" y="670" as="targetPoint"/>
                        <Array as="points">
                            <mxPoint x="680" y="730"/>
                        </Array>
                    </mxGeometry>
                </mxCell>
                <mxCell id="YnMnG-iwRk9KfhMpKJIE-23" value="Submission Ungraded Db" style="strokeWidth=2;html=1;shape=mxgraph.flowchart.database;whiteSpace=wrap;labelPosition=center;verticalLabelPosition=bottom;align=center;verticalAlign=top;" parent="1" vertex="1">
                    <mxGeometry x="490" y="700" width="60" height="60" as="geometry"/>
                </mxCell>
                <mxCell id="YnMnG-iwRk9KfhMpKJIE-24" style="edgeStyle=orthogonalEdgeStyle;rounded=0;orthogonalLoop=1;jettySize=auto;html=1;entryX=0.5;entryY=0;entryDx=0;entryDy=0;entryPerimeter=0;exitX=0.75;exitY=1;exitDx=0;exitDy=0;" parent="1" source="YnMnG-iwRk9KfhMpKJIE-26" target="YnMnG-iwRk9KfhMpKJIE-30" edge="1">
                    <mxGeometry relative="1" as="geometry">
                        <mxPoint x="750" y="650" as="sourcePoint"/>
                    </mxGeometry>
                </mxCell>
                <mxCell id="YnMnG-iwRk9KfhMpKJIE-25" style="edgeStyle=none;curved=1;rounded=0;orthogonalLoop=1;jettySize=auto;html=1;entryX=0.019;entryY=0.178;entryDx=0;entryDy=0;entryPerimeter=0;fontSize=12;startSize=8;endSize=8;" parent="1" source="YnMnG-iwRk9KfhMpKJIE-26" target="YnMnG-iwRk9KfhMpKJIE-44" edge="1">
                    <mxGeometry relative="1" as="geometry"/>
                </mxCell>
                <mxCell id="YnMnG-iwRk9KfhMpKJIE-26" value="Architecture Manual Grader" style="rounded=0;whiteSpace=wrap;html=1;verticalAlign=top;" parent="1" vertex="1">
                    <mxGeometry x="640" y="400" width="160" height="230" as="geometry"/>
                </mxCell>
                <mxCell id="YnMnG-iwRk9KfhMpKJIE-27" value="" style="edgeStyle=none;html=1;entryX=0.75;entryY=1;entryDx=0;entryDy=0;" parent="1" source="YnMnG-iwRk9KfhMpKJIE-26" target="YnMnG-iwRk9KfhMpKJIE-15" edge="1">
                    <mxGeometry relative="1" as="geometry">
                        <mxPoint x="360" y="680" as="targetPoint"/>
                        <Array as="points">
                            <mxPoint x="720" y="840"/>
                            <mxPoint x="360" y="840"/>
                        </Array>
                    </mxGeometry>
                </mxCell>
                <mxCell id="YnMnG-iwRk9KfhMpKJIE-28" value="Architecture Grading" style="rounded=0;whiteSpace=wrap;html=1;" parent="1" vertex="1">
                    <mxGeometry x="660" y="500" width="120" height="60" as="geometry"/>
                </mxCell>
                <mxCell id="YnMnG-iwRk9KfhMpKJIE-29" value="" style="edgeStyle=none;html=1;entryX=0;entryY=0.25;entryDx=0;entryDy=0;" parent="1" source="YnMnG-iwRk9KfhMpKJIE-30" target="YnMnG-iwRk9KfhMpKJIE-44" edge="1">
                    <mxGeometry relative="1" as="geometry"/>
                </mxCell>
                <mxCell id="YnMnG-iwRk9KfhMpKJIE-30" value="Architecture Grade and Feedback Db" style="strokeWidth=2;html=1;shape=mxgraph.flowchart.database;whiteSpace=wrap;labelPosition=center;verticalLabelPosition=bottom;align=center;verticalAlign=top;" parent="1" vertex="1">
                    <mxGeometry x="730" y="700" width="60" height="60" as="geometry"/>
                </mxCell>
                <mxCell id="YnMnG-iwRk9KfhMpKJIE-31" value="" style="edgeStyle=none;html=1;" parent="1" source="YnMnG-iwRk9KfhMpKJIE-26" target="YnMnG-iwRk9KfhMpKJIE-35" edge="1">
                    <mxGeometry relative="1" as="geometry"/>
                </mxCell>
                <mxCell id="YnMnG-iwRk9KfhMpKJIE-32" value="" style="edgeStyle=none;html=1;" parent="1" source="YnMnG-iwRk9KfhMpKJIE-33" target="YnMnG-iwRk9KfhMpKJIE-37" edge="1">
                    <mxGeometry relative="1" as="geometry"/>
                </mxCell>
                <mxCell id="YnMnG-iwRk9KfhMpKJIE-33" value="Certification Viewer User Interface" style="sketch=0;pointerEvents=1;shadow=0;dashed=0;html=1;strokeColor=none;fillColor=#505050;labelPosition=center;verticalLabelPosition=top;verticalAlign=middle;outlineConnect=0;align=center;shape=mxgraph.office.devices.lcd_monitor;" parent="1" vertex="1">
                    <mxGeometry x="1211" y="170" width="58" height="48" as="geometry"/>
                </mxCell>
                <mxCell id="YnMnG-iwRk9KfhMpKJIE-34" value="" style="edgeStyle=none;html=1;" parent="1" source="YnMnG-iwRk9KfhMpKJIE-35" target="YnMnG-iwRk9KfhMpKJIE-41" edge="1">
                    <mxGeometry relative="1" as="geometry"/>
                </mxCell>
                <mxCell id="YnMnG-iwRk9KfhMpKJIE-35" value="Candidate Certification Service" style="rounded=0;whiteSpace=wrap;html=1;verticalAlign=top;" parent="1" vertex="1">
                    <mxGeometry x="840" y="400" width="160" height="230" as="geometry"/>
                </mxCell>
                <mxCell id="YnMnG-iwRk9KfhMpKJIE-36" value="Generate Certification" style="rounded=0;whiteSpace=wrap;html=1;" parent="1" vertex="1">
                    <mxGeometry x="860" y="500" width="120" height="60" as="geometry"/>
                </mxCell>
                <mxCell id="YnMnG-iwRk9KfhMpKJIE-37" value="Certification Viewer Service" style="rounded=0;whiteSpace=wrap;html=1;verticalAlign=top;" parent="1" vertex="1">
                    <mxGeometry x="1160" y="400" width="160" height="230" as="geometry"/>
                </mxCell>
                <mxCell id="YnMnG-iwRk9KfhMpKJIE-38" value="View Certification" style="rounded=0;whiteSpace=wrap;html=1;" parent="1" vertex="1">
                    <mxGeometry x="1180" y="500" width="120" height="60" as="geometry"/>
                </mxCell>
                <mxCell id="YnMnG-iwRk9KfhMpKJIE-39" value="" style="edgeStyle=none;html=1;" parent="1" source="YnMnG-iwRk9KfhMpKJIE-41" target="YnMnG-iwRk9KfhMpKJIE-37" edge="1">
                    <mxGeometry relative="1" as="geometry"/>
                </mxCell>
                <mxCell id="YnMnG-iwRk9KfhMpKJIE-40" value="" style="edgeStyle=none;html=1;" parent="1" source="YnMnG-iwRk9KfhMpKJIE-41" target="YnMnG-iwRk9KfhMpKJIE-44" edge="1">
                    <mxGeometry relative="1" as="geometry">
                        <mxPoint x="1090" y="625" as="targetPoint"/>
                        <Array as="points">
                            <mxPoint x="1080" y="800"/>
                        </Array>
                    </mxGeometry>
                </mxCell>
                <mxCell id="YnMnG-iwRk9KfhMpKJIE-41" value="Certification Database" style="strokeWidth=2;html=1;shape=mxgraph.flowchart.database;whiteSpace=wrap;labelPosition=center;verticalLabelPosition=top;align=center;verticalAlign=bottom;" parent="1" vertex="1">
                    <mxGeometry x="1050" y="485" width="60" height="60" as="geometry"/>
                </mxCell>
                <mxCell id="YnMnG-iwRk9KfhMpKJIE-42" value="" style="edgeStyle=none;html=1;" parent="1" source="YnMnG-iwRk9KfhMpKJIE-44" target="YnMnG-iwRk9KfhMpKJIE-46" edge="1">
                    <mxGeometry relative="1" as="geometry">
                        <mxPoint x="920" y="990" as="targetPoint"/>
                    </mxGeometry>
                </mxCell>
                <mxCell id="YnMnG-iwRk9KfhMpKJIE-43" value="" style="edgeStyle=none;html=1;" parent="1" source="YnMnG-iwRk9KfhMpKJIE-44" target="YnMnG-iwRk9KfhMpKJIE-47" edge="1">
                    <mxGeometry relative="1" as="geometry">
                        <mxPoint x="920" y="990" as="targetPoint"/>
                    </mxGeometry>
                </mxCell>
                <mxCell id="YnMnG-iwRk9KfhMpKJIE-44" value="Candidate Architecture Notification" style="rounded=0;whiteSpace=wrap;html=1;verticalAlign=top;" parent="1" vertex="1">
                    <mxGeometry x="840" y="680" width="160" height="230" as="geometry"/>
                </mxCell>
                <mxCell id="YnMnG-iwRk9KfhMpKJIE-45" value="Candidate Architecture Results" style="rounded=0;whiteSpace=wrap;html=1;" parent="1" vertex="1">
                    <mxGeometry x="860" y="780" width="120" height="60" as="geometry"/>
                </mxCell>
                <mxCell id="YnMnG-iwRk9KfhMpKJIE-46" value="Email" style="sketch=0;outlineConnect=0;fontColor=#232F3E;gradientColor=none;strokeColor=#232F3E;fillColor=#ffffff;dashed=0;verticalLabelPosition=bottom;verticalAlign=top;align=center;html=1;fontSize=12;fontStyle=0;aspect=fixed;shape=mxgraph.aws4.resourceIcon;resIcon=mxgraph.aws4.email;" parent="1" vertex="1">
                    <mxGeometry x="1100" y="820" width="60" height="60" as="geometry"/>
                </mxCell>
                <mxCell id="YnMnG-iwRk9KfhMpKJIE-47" value="Certificate" style="shape=note;whiteSpace=wrap;html=1;backgroundOutline=1;darkOpacity=0.05;labelPosition=center;verticalLabelPosition=bottom;align=center;verticalAlign=top;" parent="1" vertex="1">
                    <mxGeometry x="1100" y="920" width="70" height="80" as="geometry"/>
                </mxCell>
                <mxCell id="YnMnG-iwRk9KfhMpKJIE-48" value="FAQ Chatbot" style="whiteSpace=wrap;html=1;aspect=fixed;fontSize=16;" parent="1" vertex="1">
                    <mxGeometry x="80" y="830" width="80" height="80" as="geometry"/>
                </mxCell>
                <mxCell id="YnMnG-iwRk9KfhMpKJIE-49" value="Grading AI" style="whiteSpace=wrap;html=1;aspect=fixed;fontSize=16;" parent="1" vertex="1">
                    <mxGeometry x="60" y="940" width="80" height="80" as="geometry"/>
                </mxCell>
                <mxCell id="YnMnG-iwRk9KfhMpKJIE-50" style="edgeStyle=none;curved=1;rounded=0;orthogonalLoop=1;jettySize=auto;html=1;fontSize=12;startSize=8;endSize=8;" parent="1" source="YnMnG-iwRk9KfhMpKJIE-51" target="YnMnG-iwRk9KfhMpKJIE-55" edge="1">
                    <mxGeometry relative="1" as="geometry">
                        <mxPoint x="340" y="1136.6" as="targetPoint"/>
                    </mxGeometry>
                </mxCell>
                <mxCell id="YnMnG-iwRk9KfhMpKJIE-51" value="Candidate UI" style="rounded=0;whiteSpace=wrap;html=1;fontSize=16;" parent="1" vertex="1">
                    <mxGeometry x="120" y="1105" width="120" height="60" as="geometry"/>
                </mxCell>
                <mxCell id="YnMnG-iwRk9KfhMpKJIE-52" style="edgeStyle=none;curved=1;rounded=0;orthogonalLoop=1;jettySize=auto;html=1;fontSize=12;startSize=8;endSize=8;" parent="1" source="YnMnG-iwRk9KfhMpKJIE-53" target="YnMnG-iwRk9KfhMpKJIE-51" edge="1">
                    <mxGeometry relative="1" as="geometry"/>
                </mxCell>
                <mxCell id="YnMnG-iwRk9KfhMpKJIE-53" value="Case Study DB" style="shape=cylinder3;whiteSpace=wrap;html=1;boundedLbl=1;backgroundOutline=1;size=15;fontSize=16;" parent="1" vertex="1">
                    <mxGeometry x="-70" y="1075" width="110" height="120" as="geometry"/>
                </mxCell>
                <mxCell id="YnMnG-iwRk9KfhMpKJIE-54" style="edgeStyle=none;curved=1;rounded=0;orthogonalLoop=1;jettySize=auto;html=1;fontSize=12;startSize=8;endSize=8;entryX=0;entryY=0.5;entryDx=0;entryDy=0;entryPerimeter=0;" parent="1" source="YnMnG-iwRk9KfhMpKJIE-55" target="YnMnG-iwRk9KfhMpKJIE-57" edge="1">
                    <mxGeometry relative="1" as="geometry">
                        <mxPoint x="940" y="1140" as="targetPoint"/>
                    </mxGeometry>
                </mxCell>
                <mxCell id="YnMnG-iwRk9KfhMpKJIE-55" value="Architecture Submission" style="rounded=0;whiteSpace=wrap;html=1;fontSize=16;" parent="1" vertex="1">
                    <mxGeometry x="500" y="1055" width="220" height="170" as="geometry"/>
                </mxCell>
                <mxCell id="YnMnG-iwRk9KfhMpKJIE-56" style="edgeStyle=none;curved=1;rounded=0;orthogonalLoop=1;jettySize=auto;html=1;fontSize=12;startSize=8;endSize=8;" parent="1" source="YnMnG-iwRk9KfhMpKJIE-57" target="YnMnG-iwRk9KfhMpKJIE-62" edge="1">
                    <mxGeometry relative="1" as="geometry">
                        <mxPoint x="1230" y="1300" as="targetPoint"/>
                    </mxGeometry>
                </mxCell>
                <mxCell id="YnMnG-iwRk9KfhMpKJIE-57" value="submission ungraded DB" style="shape=cylinder3;whiteSpace=wrap;html=1;boundedLbl=1;backgroundOutline=1;size=15;fontSize=16;" parent="1" vertex="1">
                    <mxGeometry x="1175" y="1080" width="110" height="120" as="geometry"/>
                </mxCell>
                <mxCell id="YnMnG-iwRk9KfhMpKJIE-58" style="edgeStyle=none;curved=1;rounded=0;orthogonalLoop=1;jettySize=auto;html=1;fontSize=12;startSize=8;endSize=8;" parent="1" source="YnMnG-iwRk9KfhMpKJIE-59" edge="1">
                    <mxGeometry relative="1" as="geometry">
                        <mxPoint x="680" y="1660" as="targetPoint"/>
                    </mxGeometry>
                </mxCell>
                <mxCell id="YnMnG-iwRk9KfhMpKJIE-59" value="Data Retrieval" style="rounded=0;whiteSpace=wrap;html=1;fontSize=16;" parent="1" vertex="1">
                    <mxGeometry x="620" y="1420" width="120" height="60" as="geometry"/>
                </mxCell>
                <mxCell id="YnMnG-iwRk9KfhMpKJIE-60" value="query vector db and compare based on the grading critera for the architecture characteristic?&lt;br&gt;&lt;b&gt;Apply Filtering&lt;br&gt;Ranking&lt;br&gt;&lt;/b&gt;" style="rounded=0;whiteSpace=wrap;html=1;" parent="1" vertex="1">
                    <mxGeometry x="280" y="1710" width="120" height="190" as="geometry"/>
                </mxCell>
                <mxCell id="YnMnG-iwRk9KfhMpKJIE-61" value="" style="edgeStyle=none;curved=1;rounded=0;orthogonalLoop=1;jettySize=auto;html=1;fontSize=12;startSize=8;endSize=8;entryX=0.501;entryY=0.136;entryDx=0;entryDy=0;entryPerimeter=0;" parent="1" source="YnMnG-iwRk9KfhMpKJIE-62" target="YnMnG-iwRk9KfhMpKJIE-70" edge="1">
                    <mxGeometry relative="1" as="geometry">
                        <mxPoint x="1230" y="1460" as="targetPoint"/>
                    </mxGeometry>
                </mxCell>
                <mxCell id="YnMnG-iwRk9KfhMpKJIE-62" value="Chunk data&amp;nbsp;&lt;div&gt;(if needed)&lt;/div&gt;" style="rounded=0;whiteSpace=wrap;html=1;" parent="1" vertex="1">
                    <mxGeometry x="1170" y="1340" width="120" height="60" as="geometry"/>
                </mxCell>
                <mxCell id="YnMnG-iwRk9KfhMpKJIE-63" style="edgeStyle=none;curved=1;rounded=0;orthogonalLoop=1;jettySize=auto;html=1;fontSize=12;startSize=8;endSize=8;" parent="1" source="YnMnG-iwRk9KfhMpKJIE-64" target="YnMnG-iwRk9KfhMpKJIE-59" edge="1">
                    <mxGeometry relative="1" as="geometry"/>
                </mxCell>
                <mxCell id="YnMnG-iwRk9KfhMpKJIE-64" value="Case Study, Question and Detailed Evaluation Criteria DB" style="shape=cylinder3;whiteSpace=wrap;html=1;boundedLbl=1;backgroundOutline=1;size=15;fontSize=16;" parent="1" vertex="1">
                    <mxGeometry x="360" y="1370" width="190" height="160" as="geometry"/>
                </mxCell>
                <mxCell id="YnMnG-iwRk9KfhMpKJIE-65" style="edgeStyle=none;curved=1;rounded=0;orthogonalLoop=1;jettySize=auto;html=1;fontSize=12;startSize=8;endSize=8;" parent="1" source="YnMnG-iwRk9KfhMpKJIE-66" edge="1">
                    <mxGeometry relative="1" as="geometry">
                        <mxPoint x="170" y="1420" as="targetPoint"/>
                    </mxGeometry>
                </mxCell>
                <mxCell id="YnMnG-iwRk9KfhMpKJIE-66" value="Designated Expert SA&amp;nbsp;" style="shape=umlActor;verticalLabelPosition=bottom;verticalAlign=top;html=1;outlineConnect=0;fontSize=16;" parent="1" vertex="1">
                    <mxGeometry x="40" y="1390" width="30" height="60" as="geometry"/>
                </mxCell>
                <mxCell id="YnMnG-iwRk9KfhMpKJIE-67" style="edgeStyle=none;curved=1;rounded=0;orthogonalLoop=1;jettySize=auto;html=1;fontSize=12;startSize=8;endSize=8;" parent="1" source="YnMnG-iwRk9KfhMpKJIE-68" target="YnMnG-iwRk9KfhMpKJIE-64" edge="1">
                    <mxGeometry relative="1" as="geometry"/>
                </mxCell>
                <mxCell id="YnMnG-iwRk9KfhMpKJIE-68" value="Admin UI" style="whiteSpace=wrap;html=1;aspect=fixed;fontSize=16;" parent="1" vertex="1">
                    <mxGeometry x="150" y="1410" width="80" height="80" as="geometry"/>
                </mxCell>
                <mxCell id="YnMnG-iwRk9KfhMpKJIE-69" style="edgeStyle=none;curved=1;rounded=0;orthogonalLoop=1;jettySize=auto;html=1;entryX=0.637;entryY=-0.003;entryDx=0;entryDy=0;entryPerimeter=0;fontSize=12;startSize=8;endSize=8;" parent="1" source="YnMnG-iwRk9KfhMpKJIE-70" target="YnMnG-iwRk9KfhMpKJIE-76" edge="1">
                    <mxGeometry relative="1" as="geometry"/>
                </mxCell>
                <mxCell id="YnMnG-iwRk9KfhMpKJIE-70" value="Submissions Chunked DB&lt;br&gt;(Question, Submitted Solution , embedding, metadata)" style="shape=cylinder3;whiteSpace=wrap;html=1;boundedLbl=1;backgroundOutline=1;size=15;fontSize=16;" parent="1" vertex="1">
                    <mxGeometry x="1110" y="1640" width="240" height="200" as="geometry"/>
                </mxCell>
                <mxCell id="YnMnG-iwRk9KfhMpKJIE-71" style="edgeStyle=none;curved=1;rounded=0;orthogonalLoop=1;jettySize=auto;html=1;fontSize=12;startSize=8;endSize=8;" parent="1" source="YnMnG-iwRk9KfhMpKJIE-72" edge="1">
                    <mxGeometry relative="1" as="geometry">
                        <mxPoint x="980" y="2030" as="targetPoint"/>
                    </mxGeometry>
                </mxCell>
                <mxCell id="YnMnG-iwRk9KfhMpKJIE-72" value="Grab each critierion and query against&lt;br&gt;&lt;br&gt;&lt;br&gt;&lt;br&gt;Reliability:&lt;br&gt;Should be load balanced&lt;br&gt;Should be geo redundant&lt;br&gt;Should auto scale&lt;br&gt;Should have DDOS protection&amp;nbsp;&lt;br&gt;&lt;br&gt;And provide a rubric" style="rounded=0;whiteSpace=wrap;html=1;fontSize=16;" parent="1" vertex="1">
                    <mxGeometry x="550" y="1660" width="271" height="340" as="geometry"/>
                </mxCell>
                <mxCell id="YnMnG-iwRk9KfhMpKJIE-73" style="edgeStyle=none;curved=1;rounded=0;orthogonalLoop=1;jettySize=auto;html=1;fontSize=12;startSize=8;endSize=8;" parent="1" source="YnMnG-iwRk9KfhMpKJIE-74" edge="1">
                    <mxGeometry relative="1" as="geometry">
                        <mxPoint x="1280" y="2090" as="targetPoint"/>
                    </mxGeometry>
                </mxCell>
                <mxCell id="YnMnG-iwRk9KfhMpKJIE-74" value="Prompt Orchestrator" style="whiteSpace=wrap;html=1;aspect=fixed;fontSize=16;" parent="1" vertex="1">
                    <mxGeometry x="980" y="2000" width="180" height="180" as="geometry"/>
                </mxCell>
                <mxCell id="YnMnG-iwRk9KfhMpKJIE-75" style="edgeStyle=none;curved=1;rounded=0;orthogonalLoop=1;jettySize=auto;html=1;entryX=0;entryY=0.5;entryDx=0;entryDy=0;fontSize=12;startSize=8;endSize=8;" parent="1" source="YnMnG-iwRk9KfhMpKJIE-76" target="YnMnG-iwRk9KfhMpKJIE-77" edge="1">
                    <mxGeometry relative="1" as="geometry"/>
                </mxCell>
                <mxCell id="YnMnG-iwRk9KfhMpKJIE-76" value="LLM" style="whiteSpace=wrap;html=1;aspect=fixed;fontSize=16;" parent="1" vertex="1">
                    <mxGeometry x="1275" y="1990" width="170" height="170" as="geometry"/>
                </mxCell>
                <mxCell id="YnMnG-iwRk9KfhMpKJIE-77" value="Produces a rank based on the rubric provided" style="whiteSpace=wrap;html=1;aspect=fixed;fontSize=16;" parent="1" vertex="1">
                    <mxGeometry x="1580" y="1970" width="200" height="200" as="geometry"/>
                </mxCell>
            </root>
        </mxGraphModel>
    </diagram>
</mxfile>